<svg width="513" height="425" viewBox="0 0 513 425" fill="none" xmlns="http://www.w3.org/2000/svg">
<path d="M237.351 81.4976C236.364 81.1637 235.618 80.9388 234.879 80.664C233.231 80.063 231.61 79.3779 229.941 78.8406C228.272 78.3033 226.548 77.8868 224.847 77.445C223.32 77.0432 221.789 76.6619 220.261 76.2896C218.578 75.8814 216.923 75.3213 215.21 75.1239C211.824 74.7376 208.408 74.379 205.008 74.3344C199.425 74.2474 194.121 75.9197 188.865 77.5595C186.105 78.4246 183.449 79.6091 180.788 80.7372C180.364 80.9184 180.135 81.5397 179.798 81.9389C178.691 83.2488 178.914 84.3668 179.956 85.6994C180.719 86.6726 180.511 86.8345 181.75 86.705C182.197 87.3285 182.508 88.307 183.775 87.4173C183.699 87.6017 183.612 87.7796 183.536 87.9641C184.116 88.185 184.694 88.3969 185.268 88.6292C185.452 88.7052 185.595 88.8793 185.762 88.9986C186.22 89.3007 186.695 89.5981 187.235 89.9554C187.76 90.2202 188.332 90.4819 188.88 90.7983C189.076 90.9194 189.178 91.1913 189.371 91.3328C189.698 91.5829 190.048 91.8077 190.404 92.0211C190.487 92.0762 190.66 92.0009 190.724 92.0609C191.418 92.7435 192.082 93.4538 192.789 94.1136C193.536 94.8112 194.365 95.4191 195.089 96.1419C195.943 96.9847 196.714 97.917 197.52 98.8013C197.431 98.9023 197.343 99.0033 197.254 99.1043C194.988 98.3215 192.748 97.4546 190.45 96.7672C188.059 96.0566 185.632 95.5004 183.207 94.9148C180.782 94.3291 178.355 93.6666 175.906 93.2419C173.102 92.7576 170.261 92.3124 167.43 92.1927C162.191 91.9846 156.933 91.8491 151.698 92.0164C144.666 92.25 137.796 93.7338 131.035 95.555C126.625 96.7464 122.29 98.2554 117.94 99.6719C116.644 100.096 115.416 100.734 114.149 101.267C113.395 101.585 113.035 102.116 113.239 102.949C113.423 103.71 113.811 103.896 114.679 103.895C115.451 103.891 116.256 104.554 116.998 104.982C117.92 105.507 118.794 106.103 119.693 106.683C119.844 106.777 119.95 106.923 120.088 107.04C120.487 107.377 120.875 107.708 121.28 108.033C121.365 108.097 121.497 108.12 121.564 108.189C122.241 108.953 122.866 109.771 123.588 110.484C124.31 111.198 125.163 111.79 125.91 112.487C126.452 112.998 126.968 113.555 127.417 114.149C128 114.92 128.505 115.759 129.063 116.546C129.471 117.132 129.926 117.676 130.358 118.245C130.969 119.047 131.579 119.848 132.168 120.675C132.647 121.348 133.174 122.018 133.528 122.762C134.7 125.19 135.959 127.584 136.886 130.106C137.817 132.646 138.608 135.271 139.05 137.933C139.43 140.215 139.372 142.557 139.13 144.929C138.951 146.675 138.008 147.333 136.785 148.066C132.46 150.692 128.1 153.26 123.867 156.016C120.615 158.142 117.511 160.499 114.372 162.797C112.355 164.274 110.345 165.778 108.413 167.357C106.515 168.918 104.727 170.604 102.873 172.22C101.551 173.375 100.194 174.472 98.8979 175.65C98.145 176.334 97.4865 177.119 96.7865 177.857C96.2155 178.463 95.6607 179.094 95.053 179.672C93.7819 180.872 92.4392 181.985 91.2071 183.222C90.4687 183.96 89.907 184.854 89.224 185.655C88.5696 186.419 87.8649 187.139 87.1853 187.881C86.6257 188.494 86.0547 189.101 85.5432 189.749C84.9256 190.542 84.3975 191.417 83.7661 192.194C83.1346 192.972 82.384 193.665 81.7502 194.433C81.1607 195.151 80.6356 195.929 80.1056 196.689C79.3526 197.769 78.5996 198.849 77.8947 199.964C77.3372 200.838 76.8963 201.786 76.3298 202.662C75.7699 203.526 75.0909 204.306 74.5196 205.164C74.085 205.811 73.7213 206.507 73.378 207.207C72.9233 208.14 72.5461 209.109 72.1004 210.04C71.7182 210.847 71.2993 211.625 70.8967 212.428C70.3125 213.598 69.7399 214.774 69.1672 215.951C68.7322 216.849 68.2948 217.739 67.8803 218.641C67.5293 219.421 67.1832 220.218 66.9073 221.025C66.5818 221.972 66.3835 222.961 66.0465 223.901C65.7077 224.87 65.2326 225.798 64.8848 226.77C64.6191 227.507 64.4218 228.284 64.2515 229.053C64.0329 230.039 63.9075 231.047 63.6684 232.028C63.4269 233 63.0515 233.94 62.828 234.908C62.601 235.934 62.3609 236.982 62.3489 238.018C62.3346 239.586 62.0296 240.141 60.5178 240.478C54.946 241.73 49.4701 243.303 44.1847 245.443C41.3634 246.585 38.6734 248.001 36.416 250.131C35.1449 251.331 33.6898 252.348 32.4162 253.539C31.6591 254.243 31.107 255.173 30.4305 255.963C29.7564 256.761 29.0157 257.49 28.353 258.295C27.7659 259.022 27.1836 259.767 26.7246 260.575C26.0413 261.772 25.3564 262.998 24.8715 264.286C24.4818 265.317 24.3402 266.445 24.1505 267.539C24.0079 268.339 24.0263 269.165 23.8657 269.97C23.47 271.987 24.2589 273.851 24.8791 275.625C25.2497 276.684 25.2358 278.145 26.7465 278.812C27.6213 279.195 28.1601 280.306 28.8829 281.058C29.0717 281.258 29.3739 281.341 29.6137 281.48C29.874 281.622 30.253 281.704 30.3584 281.917C30.7148 282.671 31.2405 282.868 32.0106 282.536C32.3857 283.324 32.7727 284.011 33.7974 283.621C33.8941 283.586 34.1138 284.009 34.3211 284.098C35.3708 284.522 36.4288 284.904 37.4869 285.287C37.5734 285.322 37.7563 285.176 37.7979 285.223C38.4598 285.856 39.3918 285.732 40.1044 286.014C41.3908 286.528 42.6881 286.615 43.978 286.926C44.8863 287.146 45.7573 287.298 46.6762 287.342C47.869 287.399 49.0685 287.589 50.2661 287.664C51.0607 287.711 51.8739 287.648 52.6702 287.666C58.4352 287.82 63.8403 285.802 69.4365 284.93C70.2057 284.811 70.5546 284.853 70.9591 285.642C71.7658 287.211 72.8347 288.643 73.7421 290.157C74.2819 291.054 74.6627 292.043 75.218 292.927C75.7548 293.777 76.4212 294.535 77.0407 295.334C77.6049 296.071 78.1715 296.817 78.7268 297.556C79.4949 298.586 80.263 299.616 81.0221 300.648C81.6309 301.479 82.2085 302.337 82.8419 303.152C83.3874 303.855 83.9756 304.538 84.5523 305.213C85.3991 306.212 86.2238 307.236 87.124 308.182C87.8492 308.943 88.7057 309.583 89.4555 310.328C90.1524 311.019 90.7671 311.8 91.4729 312.49C92.2456 313.248 93.0806 313.951 93.9001 314.667C94.0035 314.765 94.1824 314.785 94.2678 314.887C94.9366 315.654 95.5166 316.522 96.2675 317.199C97.0298 317.883 97.9631 318.376 98.8101 318.979C99.0024 319.12 99.1174 319.37 99.3032 319.523C99.6176 319.795 99.9697 320.029 100.297 320.279C100.515 320.443 100.739 320.595 100.926 320.787C101.048 320.918 101.074 321.162 101.207 321.261C102.067 321.842 102.945 322.379 103.802 322.95C104.001 323.08 104.101 323.343 104.289 323.505C104.603 323.778 104.956 324.012 105.29 324.25C105.482 324.392 105.697 324.508 105.867 324.675C105.97 324.772 105.972 324.994 106.077 325.062C106.991 325.628 107.921 326.18 108.842 326.735C109.013 326.834 109.209 326.916 109.358 327.04C109.459 327.129 109.463 327.36 109.568 327.428C110.493 328 111.432 328.55 112.358 329.123C112.588 329.263 112.768 329.466 112.99 329.609C113.354 329.85 113.733 330.076 114.103 330.305C114.3 330.426 114.494 330.539 114.681 330.662C115.102 330.935 115.523 331.209 115.928 331.496C116.143 331.651 116.306 331.897 116.525 332.031C116.895 332.26 117.285 332.455 117.675 332.649C117.853 332.737 118.154 332.743 118.217 332.871C118.528 333.492 118.88 333.938 119.69 333.721C119.807 333.69 119.991 333.979 120.158 334.098C120.618 334.409 121.084 334.709 121.727 335.125C122.193 335.319 122.788 335.555 123.378 335.812C123.507 335.864 123.642 335.934 123.727 336.037C123.824 336.146 123.832 336.356 123.937 336.425C124.977 337.025 126.02 337.604 127.133 338.049C127.632 338.543 127.918 339.393 128.981 339.002C129.069 338.969 129.277 339.386 129.483 339.504C130.376 340.028 131.284 340.537 132.21 341.003C132.365 341.077 132.637 340.937 132.912 340.883C133.333 341.59 133.808 342.283 134.824 341.789C135.254 342.456 135.568 343.231 136.567 342.78C136.645 342.749 136.869 343.152 137.072 343.262C138.004 343.785 138.939 344.287 139.886 344.757C140.041 344.831 140.301 344.685 140.576 344.63C140.959 345.483 141.528 345.987 142.535 345.495C142.492 345.622 142.458 345.747 142.415 345.875C143.001 346.046 143.603 346.203 144.188 346.404C144.411 346.479 144.573 346.686 144.794 346.791C145.19 346.975 145.595 347.117 146.005 347.278C146.253 347.375 146.488 347.496 146.734 347.584C147.166 347.758 147.603 347.911 148.027 348.087C148.243 348.174 148.449 348.293 148.656 348.382C149.082 348.567 149.506 348.743 149.938 348.917C150.155 349.003 150.494 349.009 150.573 349.161C150.977 349.912 151.538 350.023 152.254 349.599C152.716 350.315 153.13 350.957 154.077 350.53C154.18 350.483 154.433 350.849 154.652 350.945C155.014 351.109 155.412 351.224 155.8 351.342C155.893 351.365 156.075 351.249 156.114 351.287C156.742 351.939 157.526 352.018 158.379 352.176C159.325 352.357 160.13 353.164 161.063 353.513C162.028 353.872 163.082 353.985 164.092 354.226C164.258 354.268 164.407 354.393 164.536 354.513C164.648 354.608 164.695 354.817 164.811 354.854C165.844 355.146 166.887 355.398 167.918 355.681C168.18 355.756 168.419 355.895 168.683 355.978C169.065 356.108 169.461 356.214 169.847 356.323C170.131 356.411 170.428 356.476 170.706 356.575C170.801 356.608 170.847 356.779 170.94 356.802C171.96 357.04 172.99 357.247 174.007 357.476C174.264 357.533 174.512 357.669 174.774 357.744C175.192 357.864 175.623 357.96 176.041 358.08C176.303 358.155 176.544 358.264 176.803 358.33C177.221 358.449 177.646 358.557 178.071 358.665C178.3 358.729 178.534 358.773 178.772 358.835C179.261 358.964 179.747 359.085 180.222 359.238C180.486 359.321 180.735 359.457 180.994 359.562C181.286 359.677 181.575 359.821 181.886 359.902C182.334 360.023 182.795 360.122 183.253 360.211C183.53 360.272 183.815 360.292 184.09 360.344C184.455 360.41 184.82 360.477 185.179 360.554C185.517 360.628 185.851 360.721 186.192 360.804C186.553 360.891 186.92 360.966 187.275 361.064C187.379 361.094 187.454 361.228 187.554 361.24C188.576 361.381 189.603 361.502 190.618 361.654C190.891 361.697 191.131 361.874 191.395 361.958C191.731 362.061 192.067 362.125 192.408 362.208C192.769 362.295 193.13 362.381 193.488 362.459C193.826 362.532 194.171 362.594 194.516 362.656C194.884 362.732 195.249 362.798 195.623 362.862C195.968 362.924 196.317 362.965 196.659 363.018C197.002 363.071 197.342 363.115 197.68 363.189C197.998 363.258 198.296 363.362 198.611 363.422C199.049 363.507 199.48 363.566 199.922 363.631C200.203 363.671 200.481 363.703 200.765 363.752C201.169 363.818 201.566 363.895 201.969 363.96C202.282 364.012 202.597 364.033 202.919 364.082C203.291 364.137 203.658 364.212 204.033 364.276C204.346 364.327 204.659 364.379 204.974 364.439C205.38 364.513 205.78 364.6 206.186 364.674C206.469 364.724 206.75 364.764 207.034 364.814C207.478 364.888 207.918 364.944 208.356 365.029C208.499 365.058 208.632 365.158 208.77 365.169C210.51 365.253 212.243 365.271 213.98 365.414C215.006 365.496 216.009 365.816 217.039 365.916C218.059 366.01 219.102 365.943 220.136 365.984C220.888 366.014 221.624 366.097 222.367 366.168C223.371 366.276 224.366 366.424 225.372 366.502C226.348 366.578 227.321 366.607 228.3 366.625C229.28 366.642 230.26 366.553 231.237 366.6C232.245 366.649 233.25 366.833 234.258 366.92C234.939 366.979 235.623 367.008 236.315 366.996C238.062 366.963 239.813 366.87 241.563 366.845C243.322 366.817 245.085 366.876 246.842 366.84C248.598 366.803 250.363 366.688 252.119 366.613C253.854 366.534 255.583 366.466 257.318 366.349C259.121 366.233 260.923 366.078 262.725 365.923C264.349 365.788 265.961 365.645 267.582 365.5C270.05 365.273 272.526 365.073 274.995 364.779C278.202 364.392 281.423 364.021 284.6 363.45C292.225 362.082 299.875 360.805 307.425 359.12C320.193 356.268 332.803 352.754 345.175 348.493C352.35 346.02 359.434 343.244 366.438 340.315C371.994 337.996 377.406 335.32 382.803 332.658C385.564 331.291 388.212 329.683 390.812 328.041C394.836 325.515 398.841 322.955 402.74 320.25C405.239 318.519 407.622 316.606 409.888 314.58C413.955 310.952 418.076 307.348 421.836 303.406C425.18 299.895 428.118 295.98 431.129 292.162C432.622 290.275 433.96 288.247 435.224 286.19C436.531 284.045 437.699 281.811 438.837 279.575C439.724 277.842 440.52 276.055 441.274 274.261C441.939 272.673 442.516 271.042 443.081 269.404C443.678 267.671 444.275 265.937 444.777 264.172C445.27 262.447 445.709 260.698 446.048 258.937C446.531 256.453 446.982 253.958 447.313 251.446C447.542 249.706 447.55 247.937 447.62 246.181C447.69 244.425 447.778 242.664 447.751 240.905C447.725 239.222 447.611 237.535 447.469 235.855C447.346 234.315 447.081 232.783 447.016 231.247C447.007 230.96 447.614 230.488 448.019 230.379C451.776 229.305 455.57 228.337 459.322 227.245C463.792 225.951 467.976 223.99 471.69 221.209C475.067 218.682 478.032 215.697 479.983 211.883C480.87 210.149 481.813 208.41 482.361 206.564C482.87 204.864 483.016 203.03 483.096 201.242C483.171 199.465 483.09 197.653 482.839 195.886C482.605 194.183 482.169 192.485 481.651 190.838C481.084 189.05 480.426 187.277 479.606 185.585C478.779 183.867 477.803 182.207 476.741 180.62C475.697 179.065 474.496 177.611 473.316 176.161C472.785 175.512 472.171 174.914 471.533 174.37C470.192 173.253 468.825 172.152 467.433 171.097C466.017 170.028 464.588 168.982 463.095 168.022C462.254 167.475 461.28 167.118 460.359 166.708C459.502 166.32 458.63 165.946 457.751 165.622C456.07 165.001 454.417 164.199 452.672 163.884C450.381 163.475 448.021 163.383 445.691 163.332C441.912 163.244 438.34 164.394 434.75 165.366C430.405 166.55 426.127 167.947 422.114 170.045C421.522 170.358 421.16 170.233 420.754 169.618C419.736 168.086 418.594 166.635 417.495 165.163C416.484 163.803 415.466 162.454 414.421 161.113C413.316 159.691 412.193 158.273 411.048 156.882C409.885 155.456 408.721 154.03 407.513 152.655C406.321 151.305 405.075 150.007 403.846 148.696C402.669 147.438 401.507 146.166 400.284 144.95C398.991 143.655 397.654 142.411 396.314 141.158C395.671 140.559 394.977 140.021 394.327 139.432C392.508 137.796 390.769 136.061 388.864 134.535C386.943 132.985 384.891 131.594 382.855 130.19C381.068 128.961 379.212 127.836 377.408 126.65C375.965 125.695 374.585 124.617 373.087 123.744C371.589 122.871 369.974 122.213 368.43 121.421C367.533 120.956 366.674 120.414 365.791 119.927C364.93 119.453 364.072 118.988 363.178 118.571C362.264 118.15 361.311 117.797 360.377 117.411C358.53 116.641 356.683 115.872 354.849 115.079C353.911 114.674 353.007 114.183 352.068 113.778C351.303 113.443 350.515 113.133 349.715 112.884C348.067 112.389 346.402 111.976 344.752 111.472C343.069 110.958 341.428 110.307 339.737 109.833C338.076 109.362 336.383 109.024 334.708 108.643C333.814 108.438 332.91 108.236 332.011 108.052C329.383 107.502 326.758 106.96 324.138 106.407C323.523 106.273 322.888 106.173 322.306 105.943C322.048 105.848 321.792 105.501 321.726 105.22C320.845 101.788 320.011 98.3532 319.148 94.9166C318.727 93.2343 318.374 91.5238 317.809 89.8801C317.254 88.243 316.553 86.6355 315.774 85.0972C314.902 83.3909 313.895 81.7591 312.879 80.1298C312.419 79.3844 311.862 78.6747 311.232 78.052C309.47 76.3041 307.704 74.5381 305.831 72.9165C304.449 71.723 302.947 70.6198 301.373 69.6806C299.859 68.7833 298.19 68.1397 296.59 67.3909C294.979 66.6355 293.402 65.7936 291.749 65.1362C290.128 64.4895 288.428 64.0183 286.772 63.4582C285.105 62.8915 283.462 62.27 281.779 61.7555C280.104 61.2296 278.396 60.7993 276.701 60.3461C275.849 60.1207 274.991 59.9067 274.128 59.7132C271.413 59.0894 268.716 58.3546 265.976 57.8918C260.737 56.9984 255.484 56.0894 250.207 55.4862C243.477 54.7219 236.729 54.2135 229.935 54.5766C225.529 54.8113 221.351 56.0078 217.175 57.2428C214.438 58.0532 211.765 59.0978 209.163 60.2678C208.441 60.5966 207.891 61.6801 207.609 62.5374C207.276 63.563 208.027 64.1338 209.316 63.9719C209.63 64.6405 209.995 65.3151 210.981 64.9254C211.096 64.885 211.332 65.2271 211.544 65.3343C211.902 65.5183 212.28 65.6679 212.658 65.8176C212.681 65.8308 212.734 65.7779 212.766 65.7887C213.614 66.1792 214.469 66.5584 215.297 66.9832C215.812 67.2504 216.288 67.5861 216.87 67.7392C217.348 68.2287 217.666 68.9832 218.67 68.5502C218.74 68.5219 218.938 68.8646 219.118 68.9611C220.24 69.5483 221.171 70.4282 222.536 70.7671C223.034 70.8944 223.234 72.1824 224.296 71.6082C224.729 72.3223 224.946 73.2775 225.646 72.9356C226.531 73.3549 227.134 73.6275 227.714 73.9163C227.869 73.9905 227.991 74.1219 228.126 74.2305C228.573 74.6029 229.018 74.9663 229.339 75.2278C230.126 75.6442 230.692 75.9174 231.231 76.2362C231.428 76.3573 231.545 76.6154 231.735 76.7479C232.094 77.0087 232.48 77.2238 232.85 77.4528C233.022 77.5517 233.2 77.6392 233.364 77.7495C233.813 78.054 234.261 78.3585 234.69 78.6974C234.884 78.8479 235.019 79.0627 235.183 79.2409C235.408 79.47 235.639 79.9004 235.87 79.8965C236.982 79.8303 236.955 80.6675 237.351 81.4976ZM345.925 126.515C346.55 126.936 347.001 127.249 347.474 127.538C347.796 127.731 348.153 127.877 348.482 128.059C348.699 128.184 348.953 128.522 349.086 128.476C350.314 128.051 350.609 129.729 351.891 129.616C352.616 129.548 353.357 130.98 354.257 131.347C355.07 131.68 355.767 132.014 356.306 132.69C356.375 132.768 356.597 132.699 356.727 132.751C356.989 132.864 357.263 132.984 357.498 133.143C358.366 133.75 359.208 134.374 360.076 134.981C360.169 135.043 360.378 134.92 360.505 134.963C360.696 135.027 360.87 135.135 361.021 135.268C361.793 135.95 362.56 136.651 363.334 137.342C363.384 137.386 363.481 137.389 363.538 137.422C363.893 137.665 364.23 137.912 364.584 138.155C364.877 138.347 365.17 138.539 365.471 138.728C365.668 138.849 365.911 138.929 366.079 139.087C366.853 139.777 367.602 140.483 368.358 141.179C368.408 141.223 368.496 141.228 368.556 141.27C369.373 141.833 370.241 142.334 370.984 142.984C371.769 143.681 372.336 144.678 373.189 145.231C373.772 145.606 374.245 145.933 374.552 146.536C374.629 146.68 374.862 146.723 375 146.841C375.312 147.105 375.617 147.38 375.923 147.655C376.139 147.848 376.339 148.055 376.555 148.248C377.287 148.892 378.05 149.508 378.763 150.185C379.682 151.059 380.555 151.974 381.434 152.877C382.032 153.489 382.628 154.092 383.177 154.736C383.848 155.512 384.466 156.34 385.122 157.13C385.62 157.73 386.143 158.314 386.673 158.886C387.35 159.612 388.099 160.28 388.727 161.038C389.385 161.837 389.915 162.737 390.54 163.554C391.368 164.626 392.242 165.656 393.083 166.705C393.621 167.381 394.15 168.06 394.695 168.724C395.363 169.559 396.062 170.366 396.702 171.208C397.329 172.034 397.894 172.916 398.514 173.753C399.09 174.535 399.756 175.254 400.289 176.057C400.851 176.891 401.28 177.809 401.801 178.673C402.231 179.378 402.711 180.051 403.19 180.724C403.776 181.542 404.452 182.297 404.964 183.164C405.839 184.666 406.607 186.236 407.44 187.76C407.837 188.484 408.312 189.177 408.743 189.882C409.254 190.71 409.826 191.513 410.261 192.381C411.027 193.903 411.691 195.482 412.416 197.035C412.754 197.755 413.154 198.459 413.51 199.174C414.02 200.176 414.573 201.158 415.022 202.186C415.66 203.665 416.174 205.188 416.803 206.67C417.474 208.276 418.314 209.826 418.889 211.468C419.673 213.709 420.264 216.022 420.951 218.299C421.205 219.138 421.488 219.979 421.751 220.816C422.059 221.786 422.406 222.755 422.669 223.736C423.115 225.402 423.508 227.083 423.945 228.751C424.363 230.348 424.957 231.916 425.217 233.536C425.655 236.285 425.905 239.056 426.212 241.821C426.292 242.552 426.333 243.285 426.319 244.022C426.276 245.771 426.203 247.518 426.131 249.265C426.037 251.617 426.025 253.985 425.804 256.331C425.639 258.055 425.195 259.747 424.871 261.456C424.731 262.198 424.572 262.935 424.424 263.68C424.226 264.669 424.057 265.66 423.827 266.639C423.656 267.37 423.435 268.095 423.201 268.804C422.876 269.789 422.49 270.761 422.165 271.746C421.851 272.699 421.62 273.677 421.292 274.615C421.036 275.35 420.695 276.059 420.375 276.772C419.932 277.75 419.466 278.714 419.035 279.698C418.654 280.582 418.374 281.516 417.958 282.38C417.386 283.557 416.726 284.699 416.108 285.849C415.722 286.57 415.375 287.329 414.93 288.008C414.403 288.816 413.769 289.545 413.207 290.333C412.73 291.001 412.278 291.692 411.84 292.398C411.314 293.244 410.861 294.147 410.277 294.959C409.674 295.806 408.95 296.56 408.307 297.37C407.231 298.72 406.219 300.13 405.092 301.436C403.934 302.769 402.652 304 401.441 305.281C400.246 306.547 399.105 307.875 397.869 309.095C396.6 310.342 395.243 311.507 393.908 312.685C392.056 314.31 390.232 315.967 388.317 317.503C386.306 319.113 384.218 320.648 382.106 322.131C379.555 323.924 377.05 325.812 374.355 327.354C368.997 330.412 363.613 333.447 358.07 336.138C352.527 338.83 346.871 341.388 341.076 343.462C333.089 346.326 324.943 348.779 316.818 351.236C308.641 353.717 300.29 355.51 291.809 356.567C285.459 357.361 279.09 358.16 272.705 358.539C265.164 358.996 257.596 359.209 250.044 359.158C243.989 359.11 237.934 358.561 231.884 358.136C229.405 357.96 226.951 357.556 224.49 357.231C222.769 357.007 221.061 356.789 219.353 356.503C217.648 356.227 215.943 355.882 214.241 355.547C212.66 355.227 211.08 354.878 209.496 354.55C207.769 354.192 206.036 353.885 204.317 353.486C202.598 353.088 200.905 352.605 199.202 352.154C197.5 351.712 195.788 351.302 194.095 350.82C192.441 350.336 190.812 349.769 189.168 349.254C186.829 348.52 184.474 347.838 182.156 347.04C180.539 346.479 178.973 345.75 177.375 345.117C176.555 344.796 175.71 344.559 174.886 344.259C173.892 343.898 172.904 343.525 171.927 343.121C171.014 342.739 170.144 342.267 169.236 341.902C167.646 341.266 166.018 340.737 164.455 340.056C162.852 339.366 161.307 338.535 159.733 337.779C158.981 337.421 158.218 337.094 157.457 336.738C156.508 336.297 155.56 335.857 154.623 335.384C153.717 334.922 152.842 334.394 151.93 333.943C150.407 333.193 148.815 332.548 147.331 331.73C145.813 330.891 144.394 329.882 142.915 328.975C142.177 328.526 141.382 328.15 140.624 327.736C139.741 327.248 138.837 326.795 137.989 326.26C137.164 325.738 136.402 325.093 135.575 324.562C134.116 323.621 132.587 322.776 131.157 321.798C129.718 320.822 128.347 319.742 126.95 318.707C126.243 318.192 125.535 317.677 124.835 317.15C124.049 316.56 123.257 315.981 122.491 315.356C121.106 314.221 119.727 313.075 118.364 311.915C117.502 311.181 116.661 310.422 115.839 309.658C114.577 308.48 113.316 307.303 112.086 306.098C110.803 304.839 109.535 303.567 108.314 302.253C107.11 300.964 105.956 299.613 104.808 298.28C103.747 297.058 102.643 295.858 101.679 294.563C100.221 292.617 98.8283 290.626 97.4758 288.604C96.1143 286.585 94.7594 284.554 93.548 282.446C92.274 280.249 91.123 277.971 89.999 275.685C89.217 274.099 88.5357 272.458 87.8905 270.806C87.264 269.189 86.7071 267.543 86.1862 265.887C85.6936 264.301 85.2282 262.707 84.8551 261.099C84.3257 258.799 84.0418 256.442 83.3953 254.174C82.5112 251.09 82.8202 247.957 82.7564 244.837C82.7188 243.004 82.9232 241.173 83.0982 239.341C83.2655 237.587 83.5121 235.842 83.797 234.096C84.0736 232.39 84.3934 230.702 84.7722 229.018C85.1617 227.302 85.6102 225.589 86.1246 223.907C86.5894 222.363 87.1562 220.841 87.7051 219.323C88.533 217.045 89.2582 214.708 90.2729 212.516C91.7573 209.338 93.3119 206.171 95.1226 203.166C97.3601 199.449 99.663 195.724 102.342 192.323C105.983 187.718 109.983 183.413 113.883 179.019C115.039 177.715 116.312 176.447 118.192 176.223C123.128 175.625 127.731 173.966 132.192 171.845C136.351 169.861 140.375 167.625 144.167 164.987C147.005 163.011 149.735 160.879 152.01 158.272C153.833 156.181 155.476 153.917 157.009 151.605C157.917 150.241 158.608 148.676 159.083 147.101C159.488 145.767 160.004 144.702 161.279 144.09C166.772 141.431 172.231 138.713 177.761 136.151C186.158 132.26 194.905 129.279 203.731 126.518C204.835 126.174 205.949 125.576 206.489 127.266C206.506 127.329 206.608 127.35 206.654 127.415C207.25 128.268 207.87 129.106 208.414 129.983C208.953 130.843 209.382 131.761 209.912 132.622C210.343 133.327 210.831 133.998 211.32 134.668C212.001 135.624 212.662 136.615 214.076 136.526C214.417 136.502 214.781 136.742 215.106 136.694C216.351 136.515 217.595 136.259 218.837 136.032C220.585 135.708 222.341 135.383 224.086 135.05C225.168 134.838 226.246 134.577 227.331 134.374C227.91 134.267 228.517 134.297 229.075 134.148C230.305 133.837 231.496 133.422 232.724 133.102C234.91 132.546 236.046 131.093 235.884 128.868C235.769 127.248 235.844 125.799 237.194 124.569C238.699 123.2 239.912 121.495 241.486 120.234C242.661 119.291 244.161 118.475 245.615 118.21C247.825 117.811 250.075 117.421 252.407 117.838C253.695 118.072 255.072 117.916 256.347 118.423C256.509 118.486 256.718 118.401 256.893 118.441C257.82 118.695 258.771 118.894 259.665 119.243C260.615 119.616 261.477 120.311 262.448 120.514C263.417 120.709 264.479 120.53 265.488 120.405C266.58 120.266 267.655 120.027 268.73 119.787C273.702 118.676 278.692 117.629 283.637 116.381C284.668 116.124 285.541 115.166 286.436 114.473C287.22 113.867 286.697 113.032 286.75 112.294C286.775 111.882 287.213 111.176 287.464 111.176C288.382 111.181 289.287 111.46 290.205 111.571C291.123 111.682 292.048 111.714 292.97 111.767C293.961 111.829 294.959 111.842 295.949 111.934C297.176 112.049 298.387 112.207 299.611 112.381C299.892 112.422 300.148 112.585 300.418 112.657C300.729 112.738 301.049 112.777 301.362 112.829C301.736 112.893 302.108 112.947 302.489 113C302.831 113.053 303.183 113.103 303.525 113.156C303.867 113.209 304.201 113.265 304.546 113.327C304.89 113.389 305.238 113.46 305.582 113.522C305.957 113.586 306.324 113.661 306.698 113.725C307.014 113.785 307.327 113.837 307.633 113.899C308.039 113.974 308.439 114.06 308.845 114.134C309.128 114.184 309.407 114.215 309.684 114.276C310.074 114.365 310.461 114.474 310.853 114.571C311.094 114.642 311.387 114.833 311.571 114.765C312.196 114.501 312.624 114.695 313.061 115.138C313.192 115.267 313.475 115.239 313.681 115.29C314.133 115.391 314.59 115.51 315.039 115.602C315.345 115.665 315.669 115.684 315.984 115.706C316.231 115.727 316.497 115.675 316.719 115.75C317.695 116.077 318.636 116.636 319.633 116.755C320.979 116.915 322.161 117.362 323.412 117.818C324.161 118.09 325.029 118.051 325.715 118.629C325.802 118.702 326.063 118.526 326.242 118.546C326.503 118.582 326.758 118.668 327.006 118.766C327.987 119.15 328.94 119.609 329.929 119.913C330.854 120.196 331.876 120.192 332.764 120.553C333.707 120.937 334.489 121.838 335.451 122.043C336.28 122.217 336.966 122.4 337.566 122.982C337.669 123.08 337.99 122.907 338.198 122.929C338.395 122.944 338.688 122.991 338.762 123.125C339.111 123.707 339.503 124.017 340.232 123.745C340.371 123.688 340.676 123.925 340.828 124.097C341.545 124.899 342.867 124.612 343.494 125.583C343.527 125.632 343.782 125.506 343.916 125.537C344.134 125.595 344.461 125.662 344.534 125.825C344.888 126.57 345.427 126.745 345.925 126.515ZM188.792 110.715C189.34 111.138 189.75 111.481 190.178 111.782C190.464 111.985 190.846 112.076 191.092 112.309C191.832 113.018 192.814 113.479 193.634 113.944C194.499 114.436 195.061 115.271 196.051 115.652C196.946 116.001 197.547 117.056 198.301 117.781C199.482 118.912 200.677 120.02 201.996 121.269C201.407 121.485 201.131 121.607 200.854 121.691C195.448 123.381 189.999 124.947 184.646 126.796C178.919 128.765 173.268 130.984 167.601 133.14C165.621 133.892 163.687 134.777 161.73 135.581C161.294 135.756 160.783 136.009 160.645 135.206C160.404 133.765 160.205 132.303 159.874 130.886C159.462 129.133 159.052 127.351 158.402 125.682C157.497 123.347 156.474 121.044 155.313 118.836C154.131 116.586 152.859 114.359 151.39 112.301C149.94 110.276 148.267 108.389 146.534 106.604C144.559 104.566 142.393 102.714 140.334 100.756C140.06 100.492 139.891 100.112 139.503 99.5308C140.793 99.4458 141.829 99.313 142.868 99.334C144.505 99.3584 146.14 99.4802 147.766 99.566C148.481 99.606 149.197 99.6844 149.916 99.7039C150.919 99.7346 151.92 99.6883 152.911 99.7508C153.685 99.7943 154.454 99.9261 155.221 100.087C156.213 100.295 157.188 100.583 158.169 100.822C158.294 100.857 158.453 100.727 158.6 100.736C158.915 100.758 159.229 100.78 159.522 100.865C160.461 101.125 161.389 101.417 162.324 101.669C162.449 101.703 162.614 101.562 162.753 101.573C163.052 101.609 163.351 101.683 163.638 101.78C163.904 101.873 164.148 102.097 164.42 102.14C165.397 102.293 166.419 102.289 167.369 102.556C168.339 102.827 169.21 103.52 170.186 103.703C170.989 103.854 171.786 103.805 172.426 104.425C172.504 104.501 172.782 104.349 172.952 104.371C173.212 104.407 173.48 104.471 173.722 104.58C174.687 104.977 175.651 105.404 176.626 105.8C176.735 105.847 176.913 105.684 177.045 105.707C177.279 105.75 177.569 105.788 177.698 105.947C178.411 106.808 179.833 106.205 180.432 107.289C180.465 107.338 180.777 107.206 180.953 107.217C181.15 107.232 181.366 107.28 181.544 107.368C182.085 107.657 182.612 107.969 183.138 108.273C183.16 108.247 183.185 108.231 183.216 108.203C183.854 108.496 184.483 108.791 185.119 109.074C185.705 109.351 186.278 109.545 186.844 109.75C187.006 109.813 187.244 109.875 187.287 109.999C187.62 110.807 188.226 110.944 188.792 110.715ZM441.88 173.967C442.147 175.034 443.983 174.504 444.432 175.783C444.458 175.843 444.794 175.763 444.955 175.826C445.169 175.904 445.386 176.029 445.561 176.175C446.318 176.841 447.06 177.521 447.811 178.198C447.861 178.242 447.959 178.245 448.009 178.289C448.806 178.887 449.654 179.422 450.385 180.095C451.154 180.806 451.806 181.654 452.528 182.436C453.205 183.162 453.993 183.8 454.565 184.602C455.571 186.012 456.453 187.503 457.36 188.979C457.72 189.567 458.013 190.193 458.289 190.824C458.952 192.364 459.697 193.883 460.212 195.482C460.776 197.262 461.207 199.086 461.527 200.931C461.778 202.369 461.936 203.862 461.823 205.311C461.677 207.145 461.276 208.961 460.87 210.759C460.676 211.622 460.281 212.452 459.864 213.239C459.428 214.06 458.869 214.818 458.339 215.578C457.345 216.983 456.484 218.527 455.283 219.737C453.947 221.089 452.372 222.235 450.767 223.273C449.6 224.03 448.242 224.509 446.942 225.06C446.293 225.34 445.744 225.13 445.549 224.401C445.31 223.509 445.134 222.601 444.895 221.709C444.472 220.095 444.043 218.492 443.575 216.889C443.042 215.082 442.492 213.28 441.908 211.497C441.324 209.713 440.71 207.928 440.072 206.159C439.498 204.556 438.881 202.974 438.255 201.395C437.619 199.779 436.993 198.162 436.27 196.579C435.559 195.042 434.726 193.557 433.961 192.034C432.856 189.82 431.864 187.557 430.659 185.4C429.115 182.628 427.421 179.945 425.801 177.213C425.256 176.298 425.603 175.79 426.681 175.742C427.415 175.709 428.153 175.58 428.88 175.413C430.074 175.151 431.242 174.79 432.43 174.54C433.135 174.399 433.89 174.477 434.593 174.327C436.226 173.976 437.834 173.526 439.46 173.148C439.679 173.099 439.94 173.174 440.163 173.249C440.673 173.46 441.174 173.673 441.88 173.967ZM283.528 77.7537C283.58 77.7686 283.63 77.7746 283.691 77.7871C284.215 78.1198 284.736 78.4435 285.243 78.79C285.385 78.8871 285.47 79.0576 285.601 79.1865C286.376 79.9537 287.148 80.7119 287.921 81.4701C288.627 82.1593 289.373 82.8185 290.007 83.5654C290.706 84.3723 291.321 85.2598 291.941 86.1359C292.518 86.9562 293.116 87.7806 293.61 88.6521C294.118 89.5391 294.549 90.4658 294.938 91.4137C295.62 93.0554 296.303 94.7061 296.861 96.3907C297.406 98.0301 297.817 99.7058 298.256 101.383C298.428 102.023 298.494 102.7 298.606 103.336C293.841 103.348 289.303 103.377 284.761 103.358C284.413 103.355 283.932 103.108 283.748 102.819C283.089 101.799 282.537 100.711 281.935 99.6564C281.034 98.093 280.197 96.4833 279.197 94.9849C278.216 93.5201 277.096 92.1503 275.976 90.7806C274.84 89.3862 273.686 87.9967 272.427 86.722C271.196 85.4785 269.819 84.3709 268.488 83.2218C266.943 81.8886 265.39 80.5578 263.83 79.2384C263.167 78.6729 262.488 78.1212 261.818 77.5671C260.461 76.4637 259.139 75.3121 257.73 74.2706C256.331 73.2267 254.85 72.3109 253.422 71.3036C252.003 70.294 250.626 69.2248 249.197 68.2176C248.486 67.723 247.71 67.3131 246.956 66.878C246.111 66.3902 245.225 65.9618 244.422 65.4144C244.078 65.1782 243.885 64.7088 243.588 64.2864C244.605 64.3711 245.432 64.4295 246.256 64.5174C246.385 64.5311 246.479 64.7375 246.613 64.7692C246.947 64.8631 247.296 64.9047 247.641 64.9668C247.977 65.0312 248.313 65.0957 248.64 65.1626C248.978 65.2361 249.321 65.3275 249.661 65.41C250.022 65.4966 250.392 65.5424 250.758 65.6471C250.999 65.7176 251.221 65.8994 251.461 65.9315C252.443 66.0643 253.445 66.0564 254.396 66.2937C255.348 66.531 256.22 67.1564 257.179 67.3144C258.025 67.4449 258.852 67.4355 259.537 68.0437C259.615 68.1193 259.883 67.9315 260.062 67.9511C260.329 67.976 260.6 68.0484 260.835 68.1688C261.09 68.2934 261.301 68.5748 261.557 68.6316C262.558 68.8364 263.596 68.8574 264.556 69.1601C265.506 69.4653 266.338 70.227 267.29 70.3964C268.173 70.5557 268.961 70.7596 269.673 71.2926C269.721 71.328 269.829 71.299 269.89 71.2731C270.457 70.9763 270.776 71.2672 271.071 71.7191C271.183 71.8823 271.493 72.0693 271.624 72.0151C272.334 71.7476 272.783 71.9843 273.2 72.5676C273.311 72.7308 273.735 72.6558 274.01 72.7077C274.244 72.7513 274.578 72.7389 274.676 72.8865C275.051 73.4229 275.421 73.7967 276.149 73.5243C276.264 73.4839 276.492 73.7221 276.666 73.83C277.591 74.364 278.527 74.9046 279.458 75.4272C279.536 75.4643 279.688 75.3464 279.777 75.3901C279.993 75.477 280.183 75.6095 280.386 75.7192C280.817 75.9607 281.265 76.1883 281.689 76.4413C281.886 76.5623 282.043 76.7519 282.235 76.8934C282.677 77.1709 283.111 77.4599 283.528 77.7537ZM60.8503 245.862C61.0011 245.957 61.143 246.054 61.2963 246.157C61.2894 246.96 61.2555 247.771 61.2667 248.569C61.3006 250.316 61.2781 252.069 61.4159 253.808C61.5715 255.794 61.8128 257.775 62.1287 259.747C62.3992 261.44 62.8186 263.114 63.1906 264.79C63.4375 265.892 63.6868 267.003 63.9992 268.096C64.4702 269.746 64.9503 271.394 65.491 273.015C65.8912 274.22 66.361 275.398 66.8243 276.586C67.243 277.681 67.6797 278.77 68.1568 279.974C67.6716 280.037 67.4579 280.104 67.2519 280.091C65.6987 279.986 64.1204 280.004 62.6049 279.715C60.3066 279.279 57.9979 278.768 55.7894 278.018C54.1882 277.482 52.6827 276.582 51.2253 275.718C49.0347 274.423 47.1328 272.944 46.1435 270.333C44.7331 266.618 45.0562 263.105 46.7818 259.747C49.1707 255.082 52.7901 251.371 56.8791 248.152C58.0575 247.218 59.5083 246.617 60.8503 245.862ZM247.421 109.966C247.374 110.008 247.277 110.149 247.16 110.181C242.573 111.468 237.994 112.753 233.4 114.013C232.484 114.268 232.055 113.678 231.737 112.923C231.327 111.933 230.933 110.929 230.406 110.008C229.175 107.828 227.935 105.651 226.588 103.541C225.241 101.431 223.867 99.3283 222.328 97.3663C220.789 95.4043 219.088 93.5626 217.369 91.7552C215.941 90.2459 214.367 88.8725 212.895 87.4137C212.658 87.1779 212.579 86.7744 212.513 86.6376C213.361 86.7771 214.447 86.6503 214.709 87.0529C215.392 88.1247 216.747 87.4529 217.505 88.4465C217.801 88.8305 219.02 88.8416 219.628 89.4895C219.707 89.5651 219.987 89.4225 220.159 89.4535C220.381 89.4905 220.607 89.5749 220.803 89.696C221.297 89.9884 221.779 90.3128 222.269 90.6257C222.35 90.4976 222.434 90.3786 222.516 90.2506C222.847 91.0207 223.227 91.6815 224.193 91.2875C224.272 91.2568 224.45 91.489 224.585 91.5976C225.392 92.2308 226.198 92.864 227.018 93.4744C227.114 93.5452 227.317 93.4717 227.447 93.5238C227.683 93.6148 227.934 93.7214 228.14 93.8785C228.972 94.5339 229.788 95.2031 230.629 95.8562C230.726 95.9269 230.932 95.833 231.062 95.8851C231.249 95.9702 231.409 96.1008 231.563 96.243C232.36 96.9465 233.15 97.6615 233.955 98.3626C234.006 98.4069 234.107 98.3894 234.158 98.4338C234.455 98.6436 234.755 98.8625 235.04 99.0952C235.319 99.3098 235.585 99.5473 235.858 99.7734C236.117 99.9839 236.39 100.172 236.642 100.393C236.918 100.629 237.153 100.894 237.426 101.12C237.703 101.364 238.01 101.571 238.303 101.802C238.576 102.028 238.843 102.265 239.115 102.491C239.352 102.689 239.61 102.861 239.831 103.072C240.562 103.783 241.24 104.547 242.013 105.199C242.774 105.845 243.689 106.304 244.435 106.963C245.466 107.894 246.413 108.943 247.421 109.966Z" fill="#FEFF8B"/>
<path d="M187.69 275.474C189.006 275.343 190.327 275.192 191.641 275.09C193.371 274.955 195.11 274.924 196.839 274.75C199.311 274.502 201.767 274.192 204.229 273.87C208.099 273.364 211.989 272.968 215.831 272.286C222.873 271.046 229.926 269.812 236.904 268.261C251.79 264.958 266.466 260.832 281.005 256.232C289.423 253.571 297.762 250.651 306.052 247.619C311.714 245.552 317.231 243.089 322.815 240.802C331.321 237.316 339.781 233.698 348.37 230.412C351.898 229.061 355.691 228.412 359.367 227.436C360.196 227.214 360.913 227.225 361.38 228.103C361.459 228.256 361.655 228.445 361.797 228.436C362.891 228.374 363.994 228.349 365.065 228.168C366.468 227.927 367.841 227.54 369.236 227.234C370.038 227.058 370.838 226.911 371.64 226.734C374.799 226.023 377.965 225.339 381.114 224.592C382.729 224.207 383.025 222.863 382.091 221.502C381.078 220.026 379.582 220.099 378.165 219.89C372.529 219.103 367.006 219.887 361.574 221.333C352.788 223.668 343.98 225.951 335.298 228.635C330.091 230.242 325.084 232.52 320.031 234.588C314.417 236.874 308.861 239.299 303.261 241.601C298.028 243.756 292.809 245.927 287.512 247.915C275.81 252.296 263.833 255.833 251.768 259.037C244.712 260.909 237.62 262.684 230.473 264.145C220.901 266.102 211.208 267.319 201.441 267.754C194.192 268.075 186.921 268.102 179.658 268.263C178.055 268.297 176.672 267.857 175.365 266.798C173.453 265.244 171.335 263.93 169.327 262.489C167.914 261.468 166.564 260.353 165.131 259.366C164.269 258.777 163.296 258.352 162.372 257.857C161.639 257.464 160.922 257.058 160.176 256.688C158.585 255.899 157.029 254.993 155.366 254.368C152.211 253.186 148.965 252.453 145.539 252.493C141.363 252.541 137.482 253.87 133.58 255.051C130.714 255.915 127.904 257.064 125.203 258.367C124.092 258.906 122.936 259.814 122.608 261.292C122.507 261.743 121.837 262.087 121.781 262.527C121.655 263.497 121.453 264.651 121.851 265.452C122.375 266.508 122.12 268.188 123.795 268.531C123.986 270.034 125.925 269.418 126.371 270.65C126.409 270.756 126.819 270.848 126.974 270.778C127.522 270.515 127.808 270.718 128.017 271.212C128.046 271.282 128.097 271.365 128.158 271.377C129.133 271.666 130.108 271.955 131.081 272.235C131.426 272.336 131.787 272.384 132.135 272.493C132.262 272.536 132.363 272.732 132.483 272.748C133.505 272.889 134.538 272.998 135.567 273.128C135.807 273.16 136.051 273.239 136.278 273.333C136.442 273.405 136.577 273.619 136.736 273.635C137.739 273.742 138.749 273.8 139.757 273.887C140.004 273.908 140.249 273.958 140.485 274.049C140.688 274.12 140.864 274.343 141.061 274.358C142.082 274.423 143.119 274.367 144.131 274.472C145.153 274.574 146.159 274.836 147.175 274.988C147.951 275.108 148.737 275.197 149.518 275.229C150.513 275.271 151.516 275.196 152.512 275.238C153.519 275.286 154.512 275.426 155.513 275.524C155.772 275.551 156.027 275.676 156.266 275.631C157.657 275.384 158.692 275.966 159.592 276.95C159.756 277.128 160.006 277.235 160.219 277.381C160.54 277.604 160.869 277.824 161.192 278.056C161.421 278.227 161.623 278.443 161.852 278.613C162.192 278.87 162.559 279.09 162.907 279.344C163.136 279.514 163.346 279.719 163.575 279.889C163.923 280.143 164.272 280.368 164.627 280.611C164.888 280.792 165.149 280.973 165.412 281.163C165.71 281.373 165.998 281.585 166.293 281.786C166.611 282 166.936 282.202 167.245 282.419C167.483 282.587 167.705 282.768 167.952 282.934C168.318 283.183 168.691 283.421 169.054 283.662C169.251 283.783 169.441 283.915 169.637 284.036C170.058 284.31 170.494 284.569 170.902 284.865C171.094 285.007 171.258 285.185 171.428 285.352C171.688 285.601 171.932 285.864 172.211 286.078C172.551 286.335 172.923 286.534 173.29 286.754C173.692 286.994 174.099 287.213 174.486 287.544C175.104 287.832 175.728 288.109 176.333 288.42C176.502 288.51 176.585 288.748 176.741 288.899C176.992 289.15 177.292 289.62 177.524 289.587C178.188 289.506 178.332 290.008 178.719 290.3C179.566 290.941 180.569 291.368 181.503 291.899C181.731 292.031 181.904 292.245 182.135 292.386C182.505 292.615 182.889 292.821 183.272 293.027C183.441 293.117 183.735 293.135 183.801 293.272C184.101 293.886 184.414 294.372 185.241 294.179C185.367 294.145 185.554 294.52 185.762 294.648C186.132 294.877 186.529 295.06 186.91 295.257C187.111 295.358 187.32 295.456 187.501 295.591C187.971 295.938 188.425 296.299 188.97 296.568C189.553 296.943 190.127 297.32 190.769 297.736C191.366 297.982 191.969 298.216 192.546 298.496C192.756 298.594 192.875 298.861 193.072 298.982C193.442 299.211 193.839 299.394 194.229 299.589C194.432 299.699 194.648 299.786 194.847 299.916C195.327 300.231 195.794 300.569 196.2 300.856C196.919 301.165 197.493 301.398 198.063 301.651C198.241 301.738 198.388 301.892 198.562 301.999C199.035 302.326 199.507 302.644 200.063 302.92C200.68 303.276 201.296 303.631 201.913 303.987C201.979 303.873 202.036 303.762 202.104 303.656C202.492 304.383 202.833 305.189 203.904 304.574C204.378 305.19 204.691 306.071 205.722 305.631C205.791 305.603 206.013 305.746 206.06 305.849C206.404 306.664 207.015 306.819 207.795 306.523C208.222 307.181 208.563 307.949 209.554 307.471C209.622 307.433 209.881 307.644 209.946 307.781C210.303 308.535 210.833 308.75 211.606 308.282C212.025 309.164 212.549 309.747 213.576 309.26C213.955 309.988 214.355 310.653 215.311 310.223C215.396 310.181 215.621 310.372 215.75 310.492C215.853 310.59 215.891 310.802 216 310.85C216.999 311.228 218.009 311.576 219.006 311.946C219.252 312.034 219.476 312.186 219.727 312.293C220.121 312.467 220.524 312.639 220.922 312.793C221.139 312.88 221.486 312.845 221.584 312.992C221.96 313.567 222.356 313.857 223.077 313.557C223.207 313.503 223.463 313.811 223.673 313.909C224.067 314.083 224.488 314.212 224.88 314.377C225.153 314.497 225.409 314.66 225.68 314.771C226.049 314.923 226.437 315.041 226.815 315.191C227.084 315.292 227.351 315.424 227.628 315.523C228.036 315.674 228.445 315.797 228.85 315.939C229.096 316.028 229.337 316.137 229.585 316.234C229.986 316.397 230.387 316.56 230.794 316.711C231.017 316.787 231.358 316.763 231.456 316.911C231.841 317.483 232.272 317.725 232.962 317.453C233.092 317.399 233.344 317.582 233.511 317.701C233.63 317.785 233.677 317.995 233.802 318.029C234.806 318.32 235.821 318.578 236.837 318.837C237.066 318.901 237.409 318.848 237.515 318.993C237.928 319.559 238.376 319.757 239.05 319.46C239.18 319.406 239.432 319.59 239.597 319.7C239.75 319.804 239.861 320.073 239.987 320.078C240.93 320.067 241.714 320.542 242.554 320.761C243.072 320.892 243.618 320.765 244.067 321.253C244.205 321.409 244.61 321.301 244.887 321.361C245.214 321.428 245.528 321.518 245.839 321.637C245.969 321.689 246.052 321.889 246.174 321.914C247.186 322.087 248.206 322.219 249.217 322.392C249.48 322.438 249.732 322.583 249.989 322.678C250.289 322.79 250.585 322.923 250.89 323.015C251.34 323.146 251.789 323.238 252.244 323.348C252.491 323.407 252.736 323.457 252.981 323.507C253.408 323.586 253.846 323.671 254.272 323.75C254.585 323.801 254.898 323.853 255.213 323.913C255.579 323.979 255.944 324.045 256.309 324.112C256.654 324.174 256.99 324.238 257.334 324.3C257.67 324.365 258.004 324.42 258.348 324.482C258.723 324.546 259.099 324.619 259.476 324.692C259.812 324.756 260.157 324.818 260.495 324.892C260.804 324.963 261.108 325.055 261.424 325.116C261.861 325.201 262.303 325.266 262.746 325.331C263.027 325.371 263.31 325.382 263.591 325.423C263.969 325.466 264.343 325.53 264.715 325.585C265.066 325.636 265.406 325.68 265.758 325.73C266.098 325.774 266.447 325.816 266.789 325.869C267.105 325.929 267.407 326.051 267.722 326.073C268.746 326.146 269.773 326.16 270.798 326.242C272.062 326.348 273.318 326.494 274.579 326.629C275.583 326.736 276.581 326.894 277.586 326.972C278.63 327.049 279.669 327.07 280.714 327.08C281.546 327.088 282.382 327.038 283.208 327.058C284.963 327.09 286.709 327.192 288.463 327.185C290.044 327.176 291.64 327.115 293.216 326.983C295.02 326.837 296.829 326.632 298.613 326.376C302.365 325.825 306.127 325.347 309.851 324.62C317.535 323.111 325.21 321.498 332.569 318.774C336.39 317.364 340.084 315.554 343.677 313.616C347.101 311.772 350.411 309.679 353.591 307.427C356.121 305.629 358.589 303.636 360.709 301.389C366.166 295.602 371.379 289.592 376.76 283.739C382.069 277.973 387.473 272.278 392.843 266.563C393.676 265.674 394.686 264.94 395.471 264.015C395.779 263.653 395.917 262.872 395.743 262.437C395.594 262.061 394.905 261.725 394.434 261.697C392.777 261.6 391.118 261.639 389.458 261.64C389.275 261.641 389.09 261.671 388.91 261.719C386.773 262.282 384.622 262.791 382.507 263.435C380.275 264.11 378.036 264.797 375.91 265.724C374.779 266.22 373.836 267.206 372.873 268.043C371.939 268.844 371.051 269.709 370.177 270.59C369.464 271.312 368.803 272.088 368.117 272.841C367.557 273.454 367.028 274.108 366.44 274.69C365.724 275.403 364.907 276.027 364.207 276.765C363.485 277.528 362.866 278.389 362.192 279.187C361.68 279.797 361.181 280.423 360.63 280.995C359.928 281.724 359.147 282.377 358.47 283.128C357.793 283.879 357.217 284.719 356.576 285.498C356.002 286.202 355.412 286.882 354.822 287.561C353.997 288.516 353.181 289.468 352.342 290.407C351.664 291.158 350.957 291.869 350.28 292.62C349.667 293.286 349.091 293.981 348.48 294.656C347.641 295.595 346.779 296.521 345.952 297.466C345.257 298.261 344.62 299.088 343.925 299.882C343.38 300.511 342.836 301.149 342.215 301.711C340.178 303.55 338.224 305.512 336.035 307.141C333.095 309.318 329.977 311.264 326.904 313.265C318.875 318.495 309.813 319.582 300.55 319.554C295.721 319.545 290.891 319.17 286.08 318.721C282.922 318.428 279.807 317.719 276.68 317.177C274.259 316.754 271.829 316.363 269.44 315.806C267.049 315.24 264.711 314.476 262.357 313.794C259.996 313.124 257.62 312.506 255.276 311.754C253.639 311.227 252.073 310.498 250.464 309.897C248.823 309.284 247.152 308.776 245.522 308.132C243.892 307.488 242.316 306.723 240.697 306.047C239.761 305.651 238.787 305.333 237.838 304.959C237.027 304.636 236.204 304.336 235.417 303.958C233.885 303.21 232.394 302.364 230.848 301.64C229.277 300.892 227.632 300.3 226.075 299.531C224.508 298.763 223.027 297.847 221.49 297.043C219.926 296.217 218.317 295.471 216.758 294.624C215.9 294.159 215.13 293.554 214.292 293.055C213.385 292.516 212.454 292.032 211.53 291.537C210.763 291.124 209.979 290.755 209.245 290.286C208.386 289.744 207.608 289.074 206.753 288.55C205.887 288.02 204.957 287.612 204.071 287.116C203.343 286.703 202.65 286.242 201.951 285.793C200.247 284.695 198.524 283.632 196.847 282.489C195.408 281.513 194.031 280.444 192.599 279.457C191.198 278.481 189.756 277.565 188.34 276.602C188.033 276.395 187.788 276.094 187.506 275.832C187.587 275.704 187.644 275.592 187.69 275.474Z" fill="#FEFF8B"/>
<path d="M154.082 190.679C154.489 191.767 155.051 191.954 156.104 191.778C157.62 191.526 158.798 192.214 159.798 193.568C161.598 196.001 162.233 198.803 162.758 201.626C163.034 203.087 162.745 204.641 161.966 206.056C161.734 206.485 161.81 207.237 162.033 207.708C162.145 207.948 162.884 207.895 163.344 207.955C163.485 207.976 163.646 207.894 163.787 207.914C165.381 208.21 166.748 207.294 168.241 207.068C169.595 206.86 170.958 206.687 172.292 206.407C175.379 205.754 178.456 205.026 181.541 204.363C182.582 204.142 183.146 203.508 183.394 202.525C183.689 201.355 184.092 200.195 184.237 199.008C184.365 198.008 184.354 196.921 184.122 195.95C183.711 194.236 183.084 192.579 182.52 190.906C182.308 190.259 182.768 189.633 183.622 189.472C185.518 189.128 187.418 188.831 189.308 188.431C192.369 187.785 195.435 187.127 198.457 186.337C199.106 186.163 199.728 185.494 200.118 184.898C200.303 184.616 200.053 183.757 199.74 183.522C199.078 183.033 198.271 182.651 197.462 182.443C195.793 182.012 194.102 181.645 192.404 181.395C189.001 180.908 185.593 180.363 182.162 180.134C174.453 179.603 166.927 180.983 159.534 182.964C154.067 184.428 148.628 186.031 143.269 187.824C138.681 189.362 134.318 191.486 130.4 194.37C128.948 195.435 127.874 197.045 126.384 198.043C125.273 198.794 125.288 199.968 124.65 200.863C124.42 201.194 124.58 201.972 124.82 202.4C124.951 202.635 125.619 202.572 126.052 202.639C126.123 202.649 126.196 202.601 126.273 202.599C127.431 202.598 128.526 202.469 129.671 202.133C132.038 201.421 134.494 201.005 136.912 200.482C137.268 200.406 137.643 200.402 138.012 200.371C138.628 200.331 139.26 200.384 139.85 200.245C141.364 199.878 142.898 199.515 144.354 198.971C145.013 198.727 145.602 198.115 146.058 197.549C146.699 196.769 147.068 195.734 147.778 195.032C149.562 193.261 151.657 191.86 154.082 190.679Z" fill="#FEFF8B"/>
<path d="M323.108 147.84C323.843 149.467 324.454 150.703 324.966 151.966C325.577 153.491 326.203 155.032 326.654 156.61C327.142 158.284 327.976 159.923 327.598 161.752C327.524 162.091 327.238 162.389 327.194 162.729C327.098 163.344 327.005 164.006 327.141 164.587C327.181 164.769 327.993 164.774 328.453 164.834C328.593 164.854 328.752 164.763 328.895 164.793C330.461 165.126 331.787 164.201 333.242 163.975C334.631 163.758 336.028 163.567 337.398 163.277C340.521 162.614 343.644 161.912 346.757 161.174C347.219 161.06 347.79 160.743 347.994 160.351C348.605 159.174 349.27 158.088 349.129 156.553C348.847 153.52 347.853 150.746 346.761 147.969C346.21 146.563 345.539 145.208 344.97 143.806C344.875 143.562 344.981 142.983 345.114 142.938C346.081 142.621 347.07 142.385 348.072 142.164C348.383 142.1 348.75 142.243 349.056 142.161C350.923 141.671 352.803 141.196 354.645 140.616C355.518 140.343 356.065 139.646 355.976 138.666C355.844 137.235 355.217 136.553 354.171 136.36C347.036 135.02 340.156 136.467 333.339 138.294C327.224 139.932 321.145 141.706 315.14 143.682C310.509 145.203 306.134 147.389 302.094 150.141C300.305 151.354 298.651 152.782 296.962 154.151C296.409 154.608 295.823 155.122 295.485 155.734C295.236 156.177 295.237 156.862 295.368 157.387C295.514 158.004 296.058 158.09 296.632 157.82C296.76 157.757 296.931 157.711 297.063 157.734C298.301 157.962 299.426 157.439 300.59 157.175C302.967 156.644 305.328 155.799 307.728 155.677C310.089 155.556 312.161 154.538 314.428 154.278C315.965 154.107 316.641 152.884 317.661 152.08C319.364 150.764 321.078 149.417 323.108 147.84Z" fill="#FEFF8B"/>
<path d="M247.885 184.714C247.951 184.851 248 185.108 248.158 185.229C248.915 185.857 249.721 186.413 250.471 187.052C251.058 187.551 251.669 188.063 252.131 188.672C253.112 189.954 254.027 191.282 254.912 192.638C255.269 193.179 255.491 193.612 256.285 193.331C256.815 193.151 257.456 193.307 258.029 193.212C258.691 193.092 259.322 192.817 259.983 192.688C261.836 192.327 263.701 192.049 265.545 191.651C268.596 191.007 271.628 190.292 274.672 189.621C276.429 189.227 276.918 187.918 275.813 186.496C274.648 184.994 273.521 183.452 272.262 182.033C271.223 180.854 270.02 179.825 268.858 178.766C268.693 178.617 268.382 178.575 268.131 178.575C266.398 178.556 264.671 178.556 262.943 178.556C262.721 178.557 262.47 178.557 262.293 178.652C260.342 179.764 258.049 179.529 256 180.31C253.593 181.234 251.151 182.062 248.724 182.945C247.912 183.23 247.698 183.837 247.885 184.714Z" fill="#FEFF8B"/>
</svg>
