<svg width="495" height="312" viewBox="0 0 495 312" fill="none" xmlns="http://www.w3.org/2000/svg">
<path d="M142.895 79.0301C141.694 78.6642 140.508 78.2061 139.282 77.9653C137.02 77.5261 135.493 76.2125 134.599 74.1731C132.812 70.0942 131.093 65.9897 129.375 61.8852C128.275 59.2724 127.206 56.6416 126.156 54.007C125.271 51.8031 125.874 51.0603 128.16 50.9527C132.028 50.7688 135.603 51.9111 139.207 53.0436C139.451 53.1176 139.716 53.1098 140.209 53.1715C140.261 52.0265 140.328 50.9907 140.354 49.9439C140.413 47.9226 141.077 47.3454 143.017 47.2155C147.029 46.9558 150.719 48.1906 154.418 49.4625C155.696 49.9017 157.009 50.2447 158.302 50.6615C159.499 51.0437 160.415 51.5261 160.702 53.0431C161.054 54.9109 161.828 56.7076 162.52 58.8425C163.071 56.7862 163.552 54.992 164.033 53.1979C164.173 52.6736 164.295 52.153 164.435 51.6287C165.023 49.4681 165.22 49.4859 167.313 49.3441C171.498 49.0607 175.301 50.501 179.16 51.7283C181.206 52.382 183.205 53.1809 185.285 53.9401C185.425 53.4158 185.613 52.7812 185.768 52.1378C186.164 50.4615 186.356 50.4339 188.091 50.2841C191.49 49.9833 194.63 51.0792 197.809 51.9309C199.766 52.4556 201.655 53.2074 203.591 53.814C204.96 54.2423 205.616 55.103 205.954 56.5283C207.064 61.1368 208.316 65.7046 209.541 70.274C209.621 70.5675 209.911 70.7945 210.348 71.3944C211.021 69.2743 211.656 67.4601 212.167 65.6212C213.107 62.1766 213.964 58.7182 214.88 55.267C215.48 52.9956 215.559 53.0607 217.915 52.9193C221.722 52.7015 225.208 53.8814 228.71 55.0657C230.054 55.5224 231.429 55.8993 232.779 56.3314C234.066 56.7378 234.807 57.3489 235.049 58.968C235.891 64.4444 236.999 69.878 238.63 75.1968C239.061 76.6031 239.452 78.0251 240.022 79.372C240.26 79.9273 240.83 80.5192 241.38 80.728C242.249 81.0574 242.719 80.2177 243.102 79.609C244.861 76.7789 246.063 73.7028 247.041 70.5139C247.994 67.4152 249.035 64.3487 250.035 61.2713C250.078 61.1424 250.097 61.0069 250.149 60.8803C250.906 58.9406 252.129 58.0127 254.402 57.9193C258.313 57.7732 261.854 59.0733 265.5 60.0502C266.868 60.4167 268.166 61.0805 269.539 61.3957C271.666 61.878 272.631 63.3569 273.158 65.2545C274.199 68.9751 275.152 72.7252 276.219 76.4443C277.233 79.965 278.256 83.488 279.859 86.8149C280.218 87.5698 280.584 88.1067 281.441 88.117C282.369 88.1285 282.699 87.4531 282.92 86.6956C284.115 82.564 285.342 78.4412 286.488 74.2964C287.047 72.2773 287.423 70.2181 287.94 68.1879C288.365 66.5369 289.001 66.1629 290.677 66.0676C294.683 65.8326 298.382 67.0345 302.074 68.3311C303.479 68.8217 304.925 69.1917 306.337 69.6578C307.411 70.0071 308.137 70.5089 308.266 71.8956C308.536 74.9533 309.091 77.991 309.503 81.0428C310.027 84.8885 310.515 88.7337 311.661 92.4561C311.711 92.6277 311.82 92.7798 312.069 93.2592C312.798 92.2428 313.543 91.4592 314.003 90.5287C315.692 87.144 317.286 83.7166 318.897 80.2935C319.789 78.4076 320.446 76.3798 321.996 74.8896C322.399 74.4973 322.998 74.0341 323.493 74.0528C325.623 74.1318 327.709 74.0147 329.896 74.539C332.799 75.238 335.567 76.3132 338.432 77.0897C339.521 77.3817 340.597 77.8894 341.527 78.5161C342.916 79.4591 343.198 81.0624 343.324 82.589C343.727 87.737 344.005 92.8953 344.408 98.0434C344.67 101.389 345.04 104.728 345.402 108.065C345.444 108.498 345.712 108.903 346.226 109.348C347.026 106.788 347.795 104.211 348.645 101.664C349.479 99.1738 350.386 96.7038 351.275 94.2376C351.411 93.8614 351.643 93.5196 351.849 93.1795C352.584 91.9101 353.579 91.4743 355.15 91.4123C358.902 91.2676 362.319 92.4113 365.781 93.5147C367.132 93.9468 368.497 94.3566 369.848 94.7887C371.771 95.4095 373.097 96.4934 373.364 98.7074C373.883 102.965 374.548 107.199 375.149 111.444C375.852 116.488 376.654 121.523 378.45 126.324C378.867 127.455 379.108 128.783 380.32 129.635C382.451 127.581 383.848 125.119 385.263 122.688C386.833 120.009 388.364 117.311 389.841 114.581C390.402 113.537 391.163 113.285 392.294 113.228C396.297 113.036 400.004 114.143 403.684 115.481C404.509 115.781 405.372 115.968 406.21 116.245C407.041 116.521 407.895 116.776 408.676 117.169C409.876 117.772 409.973 118.325 409.325 119.433C407.537 122.501 405.757 125.572 404.008 128.659C401.97 132.266 399.538 135.61 396.263 138.131C393.833 139.991 390.869 140.961 387.731 140.349C382.615 139.355 377.525 138.229 372.445 137.069C371.031 136.743 369.69 136.112 368.181 135.778C381.6 148.452 393.556 162.193 401.305 179.512C402.14 178.199 402.774 177.175 403.429 176.174C406.85 170.909 411.569 167.88 417.954 167.615C420.813 167.494 423.63 167.731 426.441 168.282C432.447 169.461 438.313 171.13 443.96 173.486C448.827 175.51 452.936 178.657 456.518 182.523C460.461 186.784 463.342 191.727 465.487 197.061C467.281 201.537 468.171 206.245 468.377 211.112C468.629 217.053 467.044 222.643 465.147 228.115C463.993 231.44 461.875 234.394 459.687 237.188C457.895 239.483 455.98 241.683 453.676 243.498C451.841 244.938 449.976 246.361 448.049 247.688C445.688 249.321 443.144 250.624 440.459 251.634C437.721 252.675 435.031 253.868 432.216 254.641C428.14 255.762 423.972 256.472 419.72 256.711C415.719 256.929 411.761 256.756 407.84 256.021C401.708 254.887 395.55 253.782 389.691 251.597C388.094 251.002 387.193 251.938 386.281 252.624C384.291 254.119 382.02 255.091 379.928 256.375C376.236 258.652 372.083 259.831 368.156 261.509C365.649 262.576 362.874 263.035 360.199 263.679C352.108 265.629 343.873 266.707 335.598 267.212C328.359 267.651 321.08 267.747 313.827 267.551C295.729 267.066 277.847 264.627 260.072 261.296C235.041 256.599 210.543 249.851 186.255 242.316C166.239 236.109 146.529 229.054 127.353 220.562C113.649 214.493 100.431 207.492 87.8536 199.345C80.2299 194.404 72.9713 188.921 66.4787 182.545C60.7974 176.975 55.7156 170.872 52.3906 163.553C51.1962 160.933 50.3648 158.137 49.5081 155.37C48.9497 153.587 48.5968 153.168 46.6418 152.829C45.1812 152.578 43.7212 152.292 42.2766 151.949C34.0189 149.964 28.3044 144.78 24.4036 137.448C20.6544 130.403 19.6811 122.828 21.1284 115.067C22.343 108.535 24.4507 102.242 28.523 96.8091C32.4837 91.5308 37.684 88.1476 44.085 86.6403C48.6974 85.5493 53.3315 85.4914 57.9938 86.4422C64.3232 87.7255 70.4722 89.5838 76.399 92.1729C79.15 93.3754 81.6574 94.9956 83.8348 97.0278C84.7342 97.8659 85.3685 97.8251 86.3006 97.3285C92.5596 93.9919 99.0502 91.2002 105.705 88.7775C117.115 84.6347 128.803 81.5848 140.814 79.8159C141.517 79.7146 142.21 79.5226 142.9 79.3737C142.893 79.2667 142.897 79.1536 142.895 79.0301ZM200.819 83.5925C199.981 85.0803 199.376 86.4546 198.5 87.6249C197.761 88.6124 197.144 89.7026 195.494 89.8662C193.987 90.0157 192.573 89.9529 191.125 89.6878C188.128 89.1395 185.101 88.7059 182.164 87.9364C179.439 87.224 176.55 86.8977 174.177 85.1029C173.733 84.7642 173.025 84.5218 172.481 84.5868C166.605 85.3129 160.726 85.9855 154.882 86.9221C150.139 87.6796 145.434 88.6929 140.756 89.7663C137.435 90.5272 134.136 91.4345 130.906 92.5097C126.953 93.8298 123.114 95.5057 119.155 96.8155C115.178 98.1208 111.434 99.9362 107.695 101.735C104.54 103.252 101.658 105.324 98.5265 106.918C95.2831 108.569 92.403 110.765 89.5883 112.978C85.9064 115.873 82.5005 119.113 79.4399 122.736C75.2518 127.717 71.833 133.07 69.8931 139.294C68.8143 142.763 67.9523 146.307 67.9054 149.956C67.8366 155.391 69.0886 160.582 71.227 165.545C73.2467 170.231 76.1618 174.392 79.4254 178.27C84.8673 184.733 91.2814 190.157 98.0773 195.139C109.033 203.176 120.829 209.814 132.999 215.779C147.992 223.133 163.509 229.223 179.339 234.474C191.234 238.416 203.226 242.095 215.262 245.61C235.716 251.591 256.435 256.352 277.646 258.822C289.917 260.249 302.205 261.083 314.564 260.61C324.729 260.225 334.827 259.243 344.712 256.694C353.398 254.455 361.633 251.183 368.946 245.88C376.735 240.241 383.125 233.436 386.587 224.248C387.95 220.636 389.183 216.953 389.554 213.11C390.2 206.54 389.311 200.059 387.803 193.658C385.718 184.792 382.283 176.444 377.839 168.518C372.238 158.518 365.091 149.701 357.04 141.573C350.304 134.763 343.086 128.535 335.321 122.943C334.144 122.092 332.751 121.393 331.354 121.037C327.763 120.118 324.112 119.456 320.507 118.622C319.821 118.464 319.155 118.031 318.58 117.588C317.13 116.479 315.808 115.185 314.314 114.144C308.229 109.95 301.905 106.156 295.248 102.95C293.623 102.164 291.891 101.515 290.145 101.118C284.934 99.9231 279.673 98.9438 274.453 97.782C270.915 96.9922 267.988 95.1366 265.519 92.4555C264.783 91.6614 263.662 91.159 262.648 90.6852C261.86 90.3161 260.907 90.298 260.128 89.931C258.895 89.3548 257.733 89.7899 256.898 90.4178C254.481 92.2287 251.777 92.5227 248.995 92.155C245.647 91.7057 242.332 91.0018 239.019 90.3248C234.297 89.3669 229.543 88.4619 225.854 84.9621C225.755 84.874 225.634 84.7979 225.518 84.7404C225.014 84.4912 224.625 84.4044 224.08 84.8643C221.832 86.7645 219.218 87.3459 216.335 86.7667C214.143 86.3286 211.948 85.9337 209.759 85.4875C206.796 84.8781 203.826 84.2315 200.819 83.5925ZM394.544 246.198C395.372 246.516 395.87 246.72 396.37 246.889C398.605 247.655 400.874 248.333 403.073 249.203C404.184 249.642 405.236 249.844 406.422 249.714C414.956 248.796 422.873 246.123 430.056 241.401C438.282 236.001 444.215 228.801 447.062 219.256C448.407 214.761 449.126 210.177 448.691 205.477C447.783 195.627 443.844 187.126 437.076 179.974C435.51 178.316 433.54 177.051 431.793 175.573C430.848 174.775 429.781 174.99 428.954 175.453C425.093 177.606 422.299 180.791 420.775 184.94C419.994 187.066 419.555 189.328 419.108 191.553C418.284 195.643 418.344 199.681 420.165 203.567C420.378 204.019 420.18 204.66 420.167 205.561C416.231 204.848 412.604 204.193 408.787 203.495C409.113 208.736 409.762 213.95 408.841 219.156C407.944 224.272 406.258 229.124 403.946 233.755C401.61 238.406 398.172 242.262 394.544 246.198ZM47.9582 146.245C48.1755 145.434 48.3815 144.927 48.4395 144.416C49.1198 137.977 50.8191 131.865 54.0618 126.218C58.6671 118.206 64.9485 111.706 72.2449 106.136C72.7431 105.752 73.2091 105.323 74.1065 104.563C72.55 104.146 71.4708 103.848 70.3872 103.566C68.7219 103.129 68.459 102.733 68.5081 101.043C68.5241 100.459 68.4401 99.8219 68.2042 99.2933C67.1133 96.8761 65.3154 95.0333 63.0792 93.679C62.4437 93.298 61.4682 93.0718 60.7862 93.2578C58.963 93.7703 57.1141 94.3461 55.4734 95.2587C51.4694 97.4873 48.2766 100.653 46.0264 104.66C41.5199 112.664 39.2004 121.156 40.5055 130.409C41.3173 136.326 43.7052 141.505 47.9582 146.245ZM358.709 124.073C357.648 124.394 356.452 124.759 354.972 125.205C357.839 127.483 360.474 129.577 363.275 131.803C361.667 129.089 360.207 126.608 358.709 124.073Z" fill="#FEFF8B"/>
<path d="M163.397 158.105C164.097 158.047 164.797 158.024 165.49 157.928C178.938 156.009 192.458 155.232 206.035 155.551C226.843 156.051 247.414 158.35 267.53 163.924C273.863 165.683 280.161 167.607 286.124 170.425C289.304 171.927 292.36 173.659 294.808 176.291C296.026 177.609 296.084 177.555 295.358 179.152C295.189 179.519 295.062 179.897 294.812 180.533C293.51 180.316 292.219 180.119 290.926 179.896C288.007 179.386 285.081 178.935 282.18 178.325C280.333 177.944 278.499 177.418 276.722 176.775C276.233 176.6 275.632 175.728 275.688 175.259C275.849 173.968 275.118 173.289 274.243 172.818C271.879 171.517 269.533 170.08 267.017 169.178C258.419 166.075 249.433 164.677 240.378 163.866C233.057 163.204 225.703 162.762 218.356 162.523C211.515 162.297 204.669 162.517 197.82 163.009C191.902 163.434 186.008 164.032 180.144 164.911C175.252 165.637 170.369 166.462 165.593 167.834C162.205 168.814 158.738 169.527 155.387 170.631C152.064 171.725 148.834 173.099 145.596 174.435C143.137 175.453 140.794 176.757 138.3 177.643C136.632 178.232 134.801 178.216 132.981 177.798C129.96 177.112 126.873 176.671 123.844 176.017C121.993 175.618 120.118 175.177 118.379 174.456C114.769 172.954 115.067 169.284 117.607 167.375C120.127 165.477 122.843 163.825 125.601 162.281C132.061 158.656 138.504 154.991 145.107 151.65C152.917 147.702 160.778 143.793 168.832 140.376C178.082 136.462 187.469 132.822 196.971 129.573C207.069 126.132 217.351 123.215 227.582 120.196C240.949 116.253 254.574 113.31 268.188 110.381C270.517 109.881 272.963 109.86 275.382 110.763C278.152 111.795 281.069 112.445 283.914 113.295C284.817 113.563 285.708 113.908 286.574 114.28C287.189 114.541 287.541 115.031 287.395 115.738C287.266 116.353 286.86 116.49 286.245 116.624C279.801 117.997 273.353 119.351 266.945 120.883C261.651 122.16 256.412 123.689 251.14 125.078C246.453 126.315 241.73 127.429 237.062 128.76C231.538 130.335 226.031 132.012 220.56 133.786C216.598 135.069 212.713 136.592 208.791 137.991C205.479 139.176 202.136 140.282 198.85 141.535C196.181 142.55 193.571 143.738 190.945 144.852C188.37 145.945 185.796 147.029 183.239 148.152C180.511 149.353 177.803 150.612 175.091 151.852C173.028 152.801 170.949 153.71 168.922 154.721C167.028 155.662 165.186 156.705 163.321 157.698C163.338 157.834 163.364 157.965 163.397 158.105Z" fill="#FEFF8B"/>
<path d="M304.103 147.988C303.324 147.718 302.752 147.328 302.207 147.366C300.025 147.51 298.162 146.37 296.105 146.021C294.921 145.818 294.234 144.975 294.29 144.174C294.358 143.296 295.43 142.214 296.467 142.079C299.158 141.737 301.854 141.669 304.558 142.13C318.343 144.49 330.937 149.594 341.936 158.354C342.407 158.726 342.859 159.137 343.311 159.548C344.18 160.334 344.178 160.342 343.421 161.922C342.051 161.695 340.612 161.459 339.17 161.204C336.452 160.73 333.693 160.412 331.036 159.709C328.404 159.013 325.504 158.859 323.392 156.748C323.171 156.522 322.844 156.399 322.473 156.177C321.61 157.693 321.249 159.238 321.002 160.814C320.887 161.573 320.91 162.273 321.615 162.822C322.435 163.463 322.272 164.201 321.544 165.086C320.245 164.887 318.857 164.691 317.481 164.454C314.633 163.972 311.775 163.531 308.94 162.938C307.16 162.567 305.382 162.09 303.677 161.44C301.756 160.715 300.891 158.569 301.489 156.174C301.978 154.215 302.665 152.309 303.271 150.373C303.519 149.676 303.768 148.978 304.103 147.988Z" fill="#FEFF8B"/>
<path d="M177.132 103.667C175.383 103.479 173.655 103.306 171.932 103.116C171.667 103.089 171.396 102.99 171.132 102.99C168.138 103.057 167.672 103.09 166.248 105.913C166.097 106.215 165.954 106.519 165.842 106.84C164.909 109.567 165.074 110.033 167.474 111.694C168.755 112.582 168.755 112.582 168.016 114.325C165.507 113.924 162.918 113.591 160.359 113.081C157.191 112.451 154.029 111.736 150.898 110.932C148.129 110.225 146.191 108.512 145.808 105.582C145.669 104.526 146.125 103.384 146.349 102.285C146.46 101.708 146.644 101.152 146.837 100.431C145.847 100.095 144.976 99.7743 144.083 99.5001C143.5 99.3174 142.902 99.1921 142.316 99.0527C141.195 98.7787 139.947 98.6199 139.809 97.1342C139.721 96.1534 140.905 95.3381 142.765 95.3097C146.679 95.2521 150.615 95.1476 154.514 95.3757C161.956 95.8157 169.003 97.9586 175.858 100.788C176.166 100.914 176.464 101.082 176.766 101.233C177.753 101.743 177.918 102.472 177.132 103.667Z" fill="#FEFF8B"/>
<path d="M208.021 221.806C204.614 220.691 201.186 219.623 197.809 218.429C196.942 218.126 196.183 217.484 195.425 216.938C194.757 216.452 194.039 215.82 194.482 214.921C194.91 214.043 195.37 212.884 196.571 212.925C198.703 212.996 200.88 212.341 202.96 213.46C203.635 213.826 204.552 213.711 205.324 213.945C207.715 214.656 210.142 215.297 212.462 216.208C214.614 217.057 216.719 216.936 218.829 216.369C220.815 215.839 222.81 215.601 224.841 215.723C225.836 215.779 226.817 216.051 227.801 216.244C228.594 216.395 229.401 216.498 230.163 216.737C232.997 217.628 235.823 218.552 238.644 219.492C239.022 219.62 239.406 219.828 239.704 220.092C240.47 220.772 240.241 221.922 239.254 222.132C236.617 222.698 233.976 223.281 231.305 223.681C223.407 224.875 215.728 223.388 208.021 221.806Z" fill="#FEFF8B"/>
</svg>
