<svg width="351" height="37" viewBox="0 0 351 37" fill="none" xmlns="http://www.w3.org/2000/svg">
<path d="M350.262 6.07132C332.331 4.19023 315.325 2.22164 298.275 0.734267C290.918 0.0780704 283.428 0.165633 276.026 0.121887C254.439 0.0343937 232.807 -0.140635 211.219 0.209338C198.355 0.384322 185.534 1.65298 172.714 2.13419C152.8 2.87787 132.842 3.27156 112.929 4.01525C88.3893 4.93393 63.8498 6.07133 39.3102 7.16499C35.3892 7.33998 31.4682 8.21489 27.5031 8.52112C20.1016 9.08982 12.7001 9.48357 5.34262 9.92103C4.19714 10.0085 3.0957 10.096 1.86212 10.1835C1.50964 11.2334 0.980986 12.1521 0.93695 13.0708C0.584472 18.9328 0.364257 24.7948 0.01181 30.6568C-0.120362 33.0191 0.848877 34.1565 3.31607 34.5502C6.7084 35.1189 10.0126 36.1251 13.5812 37C14.991 34.1128 17.5463 33.6315 20.454 33.2816C59.9728 28.5569 99.756 28.2945 139.451 27.5071C152.139 27.2446 164.828 26.3696 177.516 25.8447C191.173 25.276 204.831 24.4886 218.533 24.3573C242.279 24.1386 266.026 24.3573 289.728 24.4886C304.928 24.576 319.995 26.4134 334.974 28.9507C339.468 29.6944 344.094 29.5631 348.764 29.8693C352.288 21.7763 350.702 14.0332 350.262 6.07132Z" fill="#FEFF8B"/>
</svg>
