<svg width="807" height="235" viewBox="0 0 807 235" fill="none" xmlns="http://www.w3.org/2000/svg">
<g clip-path="url(#clip0_2001_1885)">
<path d="M92.2819 104H84.9719V48.1H96.1519L114.212 95.4L132.272 48.1H143.452V104H136.142V55.84L117.652 104H110.772L92.2819 55.84V104ZM158.932 78.63H168.822C180.002 78.63 185.592 82.7867 185.592 91.1C185.592 99.7 180.002 104 168.822 104H151.622V61H158.932V78.63ZM168.392 84.22H158.932V98.41H168.392C171.373 98.41 173.695 97.894 175.358 96.862C177.021 95.7727 177.852 93.852 177.852 91.1C177.852 86.5133 174.699 84.22 168.392 84.22ZM197.202 104H189.892V61H197.202V104ZM236.315 84.22V79.06H244.055C246.979 79.06 249.272 78.4867 250.935 77.34C252.655 76.1933 253.515 74.4733 253.515 72.18C253.515 70.0587 252.626 68.31 250.849 66.934C249.072 65.558 246.377 64.87 242.765 64.87C238.924 64.87 236.086 65.8447 234.251 67.794C232.474 69.686 231.585 71.7213 231.585 73.9H224.275C224.275 70.4027 225.766 67.1633 228.747 64.182C231.728 61.2007 236.401 59.71 242.765 59.71C249.072 59.71 253.658 60.8567 256.525 63.15C259.392 65.386 260.825 68.1093 260.825 71.32C260.825 73.728 260.051 75.7347 258.503 77.34C257.012 78.888 255.522 79.8627 254.031 80.264L251.795 80.78V81.21C252.082 81.2673 252.454 81.3533 252.913 81.468C253.429 81.5253 254.289 81.7833 255.493 82.242C256.754 82.7007 257.844 83.274 258.761 83.962C259.736 84.5927 260.596 85.5387 261.341 86.8C262.144 88.0613 262.545 89.4947 262.545 91.1C262.545 95.3427 260.796 98.7827 257.299 101.42C253.859 104 249.014 105.29 242.765 105.29C236.344 105.29 231.499 103.885 228.231 101.076C225.02 98.2667 223.415 94.5113 223.415 89.81H230.725C230.725 93.0207 231.7 95.5433 233.649 97.378C235.598 99.2127 238.637 100.13 242.765 100.13C246.95 100.13 249.989 99.2987 251.881 97.636C253.83 95.916 254.805 93.7373 254.805 91.1C254.805 86.5133 251.222 84.22 244.055 84.22H236.315ZM273.755 116.9H266.445V98.41H268.165C271.319 98.41 273.669 96.2887 275.217 92.046C276.823 87.746 277.625 80.694 277.625 70.89V61H309.015V98.41H316.755V116.9H309.445V104H273.755V116.9ZM284.505 71.75C284.505 86.2553 282.499 95.142 278.485 98.41H301.705V66.59H284.505V71.75ZM359.772 84.22H327.092C327.321 89.552 328.669 93.5367 331.134 96.174C333.599 98.8113 336.695 100.13 340.422 100.13C343.346 100.13 345.84 99.356 347.904 97.808C350.025 96.26 351.401 94.024 352.032 91.1H359.342C358.425 95.3427 356.332 98.7827 353.064 101.42C349.853 104 345.639 105.29 340.422 105.29C333.657 105.29 328.439 103.14 324.77 98.84C321.158 94.54 319.352 89.0933 319.352 82.5C319.352 75.9067 321.129 70.46 324.684 66.16C328.296 61.86 333.399 59.71 339.992 59.71C346.585 59.71 351.516 61.774 354.784 65.902C358.109 70.03 359.772 74.9893 359.772 80.78V84.22ZM348.592 68.482C346.356 66.074 343.489 64.87 339.992 64.87C336.495 64.87 333.599 66.0453 331.306 68.396C329.07 70.7467 327.723 74.3013 327.264 79.06H352.032C352.032 74.3587 350.885 70.8327 348.592 68.482ZM377.62 69.256C375.154 72.18 373.922 76.5947 373.922 82.5C373.922 88.4053 375.154 92.82 377.62 95.744C380.085 98.668 383.296 100.13 387.252 100.13C390.634 100.13 393.3 99.1553 395.25 97.206C397.199 95.1993 398.403 92.4473 398.862 88.95H406.602C406.372 93.5367 404.566 97.4067 401.184 100.56C397.801 103.713 393.157 105.29 387.252 105.29C380.486 105.29 375.269 103.14 371.6 98.84C367.988 94.54 366.182 89.0933 366.182 82.5C366.182 75.9067 367.988 70.46 371.6 66.16C375.269 61.86 380.486 59.71 387.252 59.71C393.157 59.71 397.801 61.2867 401.184 64.44C404.566 67.5933 406.372 71.4633 406.602 76.05H398.862C398.403 72.5527 397.199 69.8293 395.25 67.88C393.3 65.8733 390.634 64.87 387.252 64.87C383.296 64.87 380.085 66.332 377.62 69.256ZM421.182 78.63H432.792C443.972 78.63 449.562 82.7867 449.562 91.1C449.562 99.7 443.972 104 432.792 104H413.872V61H421.182V78.63ZM432.362 84.22H421.182V98.41H432.362C435.343 98.41 437.665 97.894 439.328 96.862C440.99 95.7727 441.822 93.852 441.822 91.1C441.822 86.5133 438.668 84.22 432.362 84.22ZM457.47 95.83H464.78V105.29C464.78 111.31 462.057 114.32 456.61 114.32H455.75V110.88C457.814 110.88 459.248 110.393 460.05 109.418C460.91 108.501 461.34 107.125 461.34 105.29V104H457.47V95.83ZM521.832 61H529.142V104H521.832V83.79C521.545 84.1913 521.086 84.6787 520.456 85.252C519.882 85.8253 518.506 86.5993 516.328 87.574C514.206 88.4913 511.884 88.95 509.362 88.95C504.66 88.95 500.905 87.6887 498.096 85.166C495.286 82.6433 493.882 78.888 493.882 73.9V61H501.192V72.18C501.192 76.0787 501.994 78.9167 503.6 80.694C505.262 82.4713 507.9 83.36 511.512 83.36C514.608 83.36 517.102 82.8153 518.994 81.726C520.886 80.5793 521.832 78.974 521.832 76.91V61ZM558.778 104H551.468V66.59H535.558V61H574.688V66.59H558.778V104ZM582.703 98.84C579.091 94.54 577.285 89.0933 577.285 82.5C577.285 75.9067 579.091 70.46 582.703 66.16C586.372 61.86 591.59 59.71 598.355 59.71C605.12 59.71 610.309 61.86 613.921 66.16C617.59 70.46 619.425 75.9067 619.425 82.5C619.425 89.0933 617.59 94.54 613.921 98.84C610.309 103.14 605.12 105.29 598.355 105.29C591.59 105.29 586.372 103.14 582.703 98.84ZM588.723 69.256C586.258 72.18 585.025 76.5947 585.025 82.5C585.025 88.4053 586.258 92.82 588.723 95.744C591.188 98.668 594.399 100.13 598.355 100.13C602.311 100.13 605.522 98.668 607.987 95.744C610.452 92.82 611.685 88.4053 611.685 82.5C611.685 76.5947 610.452 72.18 607.987 69.256C605.522 66.332 602.311 64.87 598.355 64.87C594.399 64.87 591.188 66.332 588.723 69.256ZM646.948 66.59C643.164 66.59 639.982 68.0807 637.402 71.062C634.88 74.0433 633.618 78.1427 633.618 83.36C633.618 88.864 634.851 93.0493 637.316 95.916C639.839 98.7253 643.05 100.13 646.948 100.13C650.847 100.13 654.029 98.7253 656.494 95.916C659.017 93.0493 660.278 88.864 660.278 83.36C660.278 77.856 659.017 73.6993 656.494 70.89C654.029 68.0233 650.847 66.59 646.948 66.59ZM665.438 43.8C665.438 45.1187 665.352 46.294 665.18 47.326C665.008 48.3007 664.607 49.4473 663.976 50.766C663.403 52.0847 662.342 53.1167 660.794 53.862C659.304 54.6073 657.412 54.98 655.118 54.98H647.808C637.718 54.98 632.271 61.2867 631.468 73.9H631.898C631.956 73.556 632.07 73.126 632.242 72.61C632.472 72.0367 632.988 71.0333 633.79 69.6C634.593 68.1667 635.539 66.9053 636.628 65.816C637.718 64.6693 639.237 63.666 641.186 62.806C643.193 61.8887 645.4 61.43 647.808 61.43C654.459 61.43 659.476 63.5513 662.858 67.794C666.298 72.0367 668.018 77.2253 668.018 83.36C668.018 89.552 666.184 94.7693 662.514 99.012C658.902 103.197 653.714 105.29 646.948 105.29C639.896 105.29 634.622 103.025 631.124 98.496C627.627 93.9667 625.878 87.7747 625.878 79.92C625.878 58.7067 634.048 48.1 650.388 48.1H655.118C657.182 48.1 658.702 47.8133 659.676 47.24C660.651 46.6093 661.138 45.4627 661.138 43.8H665.438ZM682.642 78.63H692.532C703.712 78.63 709.302 82.7867 709.302 91.1C709.302 99.7 703.712 104 692.532 104H675.332V61H682.642V78.63ZM692.102 84.22H682.642V98.41H692.102C695.083 98.41 697.405 97.894 699.068 96.862C700.73 95.7727 701.562 93.852 701.562 91.1C701.562 86.5133 698.408 84.22 692.102 84.22ZM720.912 104H713.602V61H720.912V104ZM36.1014 186H28.7914V148.59H12.8814V143H52.0114V148.59H36.1014V186ZM65.8016 160.63H75.6916C86.8716 160.63 92.4616 164.787 92.4616 173.1C92.4616 181.7 86.8716 186 75.6916 186H58.4916V143H65.8016V160.63ZM75.2616 166.22H65.8016V180.41H75.2616C78.243 180.41 80.565 179.894 82.2276 178.862C83.8903 177.773 84.7216 175.852 84.7216 173.1C84.7216 168.513 81.5683 166.22 75.2616 166.22ZM104.072 186H96.7616V143H104.072V186ZM151.785 166.22H138.885V180.41H151.785C154.766 180.41 157.088 179.894 158.751 178.862C160.414 177.773 161.245 175.852 161.245 173.1C161.245 168.513 158.092 166.22 151.785 166.22ZM138.885 161.06H150.495C156.802 161.06 159.955 158.91 159.955 154.61C159.955 150.597 157.088 148.59 151.355 148.59H138.885V161.06ZM131.575 186V143H151.785C156.314 143 160.012 143.831 162.879 145.494C165.803 147.099 167.265 149.708 167.265 153.32C167.265 155.728 166.577 157.735 165.201 159.34C163.825 160.888 162.449 161.863 161.073 162.264L159.095 162.78V163.21C159.382 163.267 159.726 163.353 160.127 163.468C160.586 163.525 161.388 163.783 162.535 164.242C163.682 164.701 164.685 165.274 165.545 165.962C166.405 166.65 167.179 167.682 167.867 169.058C168.612 170.377 168.985 171.867 168.985 173.53C168.985 177.945 167.437 181.127 164.341 183.076C161.245 185.025 157.203 186 152.215 186H131.575ZM186.463 151.256C183.998 154.18 182.765 158.595 182.765 164.5C182.765 170.405 183.998 174.82 186.463 177.744C188.928 180.668 192.139 182.13 196.095 182.13C199.478 182.13 202.144 181.155 204.093 179.206C206.042 177.199 207.246 174.447 207.705 170.95H215.445C215.216 175.537 213.41 179.407 210.027 182.56C206.644 185.713 202 187.29 196.095 187.29C189.33 187.29 184.112 185.14 180.443 180.84C176.831 176.54 175.025 171.093 175.025 164.5C175.025 157.907 176.831 152.46 180.443 148.16C184.112 143.86 189.33 141.71 196.095 141.71C202 141.71 206.644 143.287 210.027 146.44C213.41 149.593 215.216 153.463 215.445 158.05H207.705C207.246 154.553 206.042 151.829 204.093 149.88C202.144 147.873 199.478 146.87 196.095 146.87C192.139 146.87 188.928 148.332 186.463 151.256ZM262.275 166.22H229.595C229.824 171.552 231.171 175.537 233.637 178.174C236.102 180.811 239.198 182.13 242.925 182.13C245.849 182.13 248.343 181.356 250.407 179.808C252.528 178.26 253.904 176.024 254.535 173.1H261.845C260.927 177.343 258.835 180.783 255.567 183.42C252.356 186 248.142 187.29 242.925 187.29C236.159 187.29 230.942 185.14 227.273 180.84C223.661 176.54 221.855 171.093 221.855 164.5C221.855 157.907 223.632 152.46 227.187 148.16C230.799 143.86 235.901 141.71 242.495 141.71C249.088 141.71 254.019 143.774 257.287 147.902C260.612 152.03 262.275 156.989 262.275 162.78V166.22ZM251.095 150.482C248.859 148.074 245.992 146.87 242.495 146.87C238.997 146.87 236.102 148.045 233.809 150.396C231.573 152.747 230.225 156.301 229.767 161.06H254.535C254.535 156.359 253.388 152.833 251.095 150.482ZM276.854 186H269.544V143H300.074V148.59H276.854V186ZM305.661 198.9H298.351V180.41H300.071C303.224 180.41 305.575 178.289 307.123 174.046C308.728 169.746 309.531 162.694 309.531 152.89V143H340.921V180.41H348.661V198.9H341.351V186H305.661V198.9ZM316.411 153.75C316.411 168.255 314.404 177.142 310.391 180.41H333.611V148.59H316.411V153.75ZM382.691 178.69C382.577 178.919 382.405 179.235 382.175 179.636C381.946 180.037 381.373 180.725 380.455 181.7C379.595 182.675 378.621 183.535 377.531 184.28C376.499 185.025 375.095 185.713 373.317 186.344C371.54 186.975 369.648 187.29 367.641 187.29C362.883 187.29 359.185 186.086 356.547 183.678C353.91 181.27 352.591 178.174 352.591 174.39C352.591 170.377 354.111 167.166 357.149 164.758C360.188 162.293 365.119 161.06 371.941 161.06C374.292 161.06 376.213 160.888 377.703 160.544C379.251 160.143 380.369 159.598 381.057 158.91C381.745 158.165 382.175 157.448 382.347 156.76C382.577 156.072 382.691 155.212 382.691 154.18C382.691 149.307 379.108 146.87 371.941 146.87C364.488 146.87 360.761 149.88 360.761 155.9H353.451C353.451 151.141 355.114 147.587 358.439 145.236C361.765 142.885 366.265 141.71 371.941 141.71C383.981 141.71 390.001 146.44 390.001 155.9V175.68C390.001 176.769 390.03 177.572 390.087 178.088C390.145 178.547 390.288 179.063 390.517 179.636C390.804 180.209 391.234 180.582 391.807 180.754C392.438 180.926 393.269 180.955 394.301 180.84V186C392.983 186.287 391.693 186.43 390.431 186.43C387.909 186.43 385.988 186 384.669 185.14C383.351 184.28 382.691 182.56 382.691 179.98V178.69ZM382.691 164.93V162.006C382.634 162.121 382.519 162.264 382.347 162.436C382.233 162.608 381.889 162.895 381.315 163.296C380.742 163.64 380.054 163.955 379.251 164.242C378.506 164.529 377.388 164.787 375.897 165.016C374.464 165.245 372.859 165.36 371.081 165.36C368.215 165.36 365.692 165.991 363.513 167.252C361.392 168.513 360.331 170.606 360.331 173.53C360.331 176.11 361.134 178.203 362.739 179.808C364.402 181.356 366.609 182.13 369.361 182.13C372.916 182.13 376.012 180.754 378.649 178.002C381.344 175.193 382.691 170.835 382.691 164.93ZM439.868 148.59C436.084 148.59 432.902 150.081 430.322 153.062C427.799 156.043 426.538 160.143 426.538 165.36C426.538 170.864 427.771 175.049 430.236 177.916C432.759 180.725 435.969 182.13 439.868 182.13C443.767 182.13 446.949 180.725 449.414 177.916C451.937 175.049 453.198 170.864 453.198 165.36C453.198 159.856 451.937 155.699 449.414 152.89C446.949 150.023 443.767 148.59 439.868 148.59ZM458.358 125.8C458.358 127.119 458.272 128.294 458.1 129.326C457.928 130.301 457.527 131.447 456.896 132.766C456.323 134.085 455.262 135.117 453.714 135.862C452.223 136.607 450.331 136.98 448.038 136.98H440.728C430.637 136.98 425.191 143.287 424.388 155.9H424.818C424.875 155.556 424.99 155.126 425.162 154.61C425.391 154.037 425.907 153.033 426.71 151.6C427.513 150.167 428.459 148.905 429.548 147.816C430.637 146.669 432.157 145.666 434.106 144.806C436.113 143.889 438.32 143.43 440.728 143.43C447.379 143.43 452.395 145.551 455.778 149.794C459.218 154.037 460.938 159.225 460.938 165.36C460.938 171.552 459.103 176.769 455.434 181.012C451.822 185.197 446.633 187.29 439.868 187.29C432.816 187.29 427.541 185.025 424.044 180.496C420.547 175.967 418.798 169.775 418.798 161.92C418.798 140.707 426.968 130.1 443.308 130.1H448.038C450.102 130.1 451.621 129.813 452.596 129.24C453.571 128.609 454.058 127.463 454.058 125.8H458.358ZM475.561 160.63H485.451C496.631 160.63 502.221 164.787 502.221 173.1C502.221 181.7 496.631 186 485.451 186H468.251V143H475.561V160.63ZM485.021 166.22H475.561V180.41H485.021C488.003 180.41 490.325 179.894 491.987 178.862C493.65 177.773 494.481 175.852 494.481 173.1C494.481 168.513 491.328 166.22 485.021 166.22ZM513.831 186H506.521V143H513.831V186ZM561.098 143V186H553.788V148.59H536.588V158.05C536.588 168.313 535.527 175.623 533.406 179.98C531.342 184.28 527.816 186.43 522.828 186.43L519.388 186V179.98C519.789 180.095 520.276 180.152 520.85 180.152C522.398 180.152 523.659 179.894 524.634 179.378C525.608 178.862 526.497 177.83 527.3 176.282C528.16 174.734 528.762 172.412 529.106 169.316C529.507 166.163 529.708 162.121 529.708 157.19V143H561.098ZM595.978 186H588.668V143H619.198V148.59H595.978V186ZM626.786 180.84C623.174 176.54 621.368 171.093 621.368 164.5C621.368 157.907 623.174 152.46 626.786 148.16C630.456 143.86 635.673 141.71 642.438 141.71C649.204 141.71 654.392 143.86 658.004 148.16C661.674 152.46 663.508 157.907 663.508 164.5C663.508 171.093 661.674 176.54 658.004 180.84C654.392 185.14 649.204 187.29 642.438 187.29C635.673 187.29 630.456 185.14 626.786 180.84ZM632.806 151.256C630.341 154.18 629.108 158.595 629.108 164.5C629.108 170.405 630.341 174.82 632.806 177.744C635.272 180.668 638.482 182.13 642.438 182.13C646.394 182.13 649.605 180.668 652.07 177.744C654.536 174.82 655.768 170.405 655.768 164.5C655.768 158.595 654.536 154.18 652.07 151.256C649.605 148.332 646.394 146.87 642.438 146.87C638.482 146.87 635.272 148.332 632.806 151.256ZM689.298 186H681.988V148.59H666.078V143H705.208V148.59H689.298V186ZM713.223 180.84C709.611 176.54 707.805 171.093 707.805 164.5C707.805 157.907 709.611 152.46 713.223 148.16C716.892 143.86 722.11 141.71 728.875 141.71C735.64 141.71 740.829 143.86 744.441 148.16C748.11 152.46 749.945 157.907 749.945 164.5C749.945 171.093 748.11 176.54 744.441 180.84C740.829 185.14 735.64 187.29 728.875 187.29C722.11 187.29 716.892 185.14 713.223 180.84ZM719.243 151.256C716.778 154.18 715.545 158.595 715.545 164.5C715.545 170.405 716.778 174.82 719.243 177.744C721.708 180.668 724.919 182.13 728.875 182.13C732.831 182.13 736.042 180.668 738.507 177.744C740.972 174.82 742.205 170.405 742.205 164.5C742.205 158.595 740.972 154.18 738.507 151.256C736.042 148.332 732.831 146.87 728.875 146.87C724.919 146.87 721.708 148.332 719.243 151.256ZM777.468 166.22H764.568V180.41H777.468C780.45 180.41 782.772 179.894 784.434 178.862C786.097 177.773 786.928 175.852 786.928 173.1C786.928 168.513 783.775 166.22 777.468 166.22ZM764.568 161.06H776.178C782.485 161.06 785.638 158.91 785.638 154.61C785.638 150.597 782.772 148.59 777.038 148.59H764.568V161.06ZM757.258 186V143H777.468C781.998 143 785.696 143.831 788.562 145.494C791.486 147.099 792.948 149.708 792.948 153.32C792.948 155.728 792.26 157.735 790.884 159.34C789.508 160.888 788.132 161.863 786.756 162.264L784.778 162.78V163.21C785.065 163.267 785.409 163.353 785.81 163.468C786.269 163.525 787.072 163.783 788.218 164.242C789.365 164.701 790.368 165.274 791.228 165.962C792.088 166.65 792.862 167.682 793.55 169.058C794.296 170.377 794.668 171.867 794.668 173.53C794.668 177.945 793.12 181.127 790.024 183.076C786.928 185.025 782.886 186 777.898 186H757.258Z" fill="#231F1C"/>
<path d="M92.2819 104V106H94.2819V104H92.2819ZM84.9719 104H82.9719V106H84.9719V104ZM84.9719 48.1V46.1H82.9719V48.1H84.9719ZM96.1519 48.1L98.0204 47.3866L97.5291 46.1H96.1519V48.1ZM114.212 95.4L112.343 96.1134L114.212 101.007L116.08 96.1134L114.212 95.4ZM132.272 48.1V46.1H130.895L130.403 47.3866L132.272 48.1ZM143.452 48.1H145.452V46.1H143.452V48.1ZM143.452 104V106H145.452V104H143.452ZM136.142 104H134.142V106H136.142V104ZM136.142 55.84H138.142L134.275 55.1232L136.142 55.84ZM117.652 104V106H119.026L119.519 104.717L117.652 104ZM110.772 104L108.905 104.717L109.397 106H110.772V104ZM92.2819 55.84L94.149 55.1232L90.2819 55.84H92.2819ZM92.2819 102H84.9719V106H92.2819V102ZM86.9719 104V48.1H82.9719V104H86.9719ZM84.9719 50.1H96.1519V46.1H84.9719V50.1ZM94.2835 48.8134L112.343 96.1134L116.08 94.6866L98.0204 47.3866L94.2835 48.8134ZM116.08 96.1134L134.14 48.8134L130.403 47.3866L112.343 94.6866L116.08 96.1134ZM132.272 50.1H143.452V46.1H132.272V50.1ZM141.452 48.1V104H145.452V48.1H141.452ZM143.452 102H136.142V106H143.452V102ZM138.142 104V55.84H134.142V104H138.142ZM134.275 55.1232L115.785 103.283L119.519 104.717L138.009 56.5568L134.275 55.1232ZM117.652 102H110.772V106H117.652V102ZM112.639 103.283L94.149 55.1232L90.4148 56.5568L108.905 104.717L112.639 103.283ZM90.2819 55.84V104H94.2819V55.84H90.2819ZM158.932 78.63H156.932V80.63H158.932V78.63ZM151.622 104H149.622V106H151.622V104ZM151.622 61V59H149.622V61H151.622ZM158.932 61H160.932V59H158.932V61ZM158.932 84.22V82.22H156.932V84.22H158.932ZM158.932 98.41H156.932V100.41H158.932V98.41ZM175.358 96.862L176.413 98.5613L176.433 98.5484L176.454 98.5349L175.358 96.862ZM197.202 104V106H199.202V104H197.202ZM189.892 104H187.892V106H189.892V104ZM189.892 61V59H187.892V61H189.892ZM197.202 61H199.202V59H197.202V61ZM158.932 80.63H168.822V76.63H158.932V80.63ZM168.822 80.63C174.222 80.63 177.909 81.6442 180.206 83.3524C182.392 84.978 183.592 87.4378 183.592 91.1H187.592C187.592 86.4489 185.997 82.6736 182.593 80.1426C179.3 77.6941 174.602 76.63 168.822 76.63V80.63ZM183.592 91.1C183.592 94.9307 182.374 97.5021 180.18 99.1898C177.887 100.954 174.211 102 168.822 102V106C174.612 106 179.322 104.896 182.619 102.36C186.015 99.7479 187.592 95.8693 187.592 91.1H183.592ZM168.822 102H151.622V106H168.822V102ZM153.622 104V61H149.622V104H153.622ZM151.622 63H158.932V59H151.622V63ZM156.932 61V78.63H160.932V61H156.932ZM168.392 82.22H158.932V86.22H168.392V82.22ZM156.932 84.22V98.41H160.932V84.22H156.932ZM158.932 100.41H168.392V96.41H158.932V100.41ZM168.392 100.41C171.565 100.41 174.309 99.8672 176.413 98.5613L174.303 95.1627C173.082 95.9208 171.181 96.41 168.392 96.41V100.41ZM176.454 98.5349C178.883 96.9434 179.852 94.2421 179.852 91.1H175.852C175.852 93.4619 175.158 94.6019 174.262 95.1891L176.454 98.5349ZM179.852 91.1C179.852 88.2952 178.853 85.9152 176.663 84.3225C174.592 82.816 171.728 82.22 168.392 82.22V86.22C171.362 86.22 173.229 86.7707 174.311 87.5575C175.274 88.2582 175.852 89.3182 175.852 91.1H179.852ZM197.202 102H189.892V106H197.202V102ZM191.892 104V61H187.892V104H191.892ZM189.892 63H197.202V59H189.892V63ZM195.202 61V104H199.202V61H195.202ZM236.315 84.22H234.315V86.22H236.315V84.22ZM236.315 79.06V77.06H234.315V79.06H236.315ZM250.935 77.34L249.826 75.6759L249.813 75.6846L249.8 75.6936L250.935 77.34ZM250.849 66.934L252.073 65.3526L252.073 65.3526L250.849 66.934ZM234.251 67.794L232.795 66.4233L232.793 66.4246L234.251 67.794ZM231.585 73.9V75.9H233.585V73.9H231.585ZM224.275 73.9H222.275V75.9H224.275V73.9ZM256.525 63.15L255.276 64.7117L255.285 64.7194L255.295 64.727L256.525 63.15ZM258.503 77.34L257.063 75.9517L257.062 75.9527L258.503 77.34ZM254.031 80.264L254.481 82.2128L254.516 82.2046L254.551 82.1952L254.031 80.264ZM251.795 80.78L251.345 78.8312L249.795 79.189V80.78H251.795ZM251.795 81.21H249.795V82.8496L251.403 83.1712L251.795 81.21ZM252.913 81.468L252.428 83.4083L252.559 83.4409L252.692 83.4558L252.913 81.468ZM255.493 82.242L254.781 84.111L254.795 84.1164L254.81 84.1216L255.493 82.242ZM258.761 83.962L257.561 85.562L257.617 85.6035L257.675 85.6411L258.761 83.962ZM261.341 86.8L259.619 87.8175L259.636 87.8459L259.654 87.8738L261.341 86.8ZM257.299 101.42L258.499 103.02L258.503 103.017L257.299 101.42ZM228.231 101.076L226.914 102.581L226.921 102.587L226.927 102.593L228.231 101.076ZM223.415 89.81V87.81H221.415V89.81H223.415ZM230.725 89.81H232.725V87.81H230.725V89.81ZM233.649 97.378L235.02 95.9216L235.02 95.9216L233.649 97.378ZM251.881 97.636L253.201 99.1383L253.204 99.1357L251.881 97.636ZM238.315 84.22V79.06H234.315V84.22H238.315ZM236.315 81.06H244.055V77.06H236.315V81.06ZM244.055 81.06C247.211 81.06 249.955 80.4453 252.071 78.9864L249.8 75.6936C248.59 76.528 246.747 77.06 244.055 77.06V81.06ZM252.045 79.0041C254.389 77.4412 255.515 75.0559 255.515 72.18H251.515C251.515 73.8907 250.921 74.9455 249.826 75.6759L252.045 79.0041ZM255.515 72.18C255.515 69.3984 254.306 67.0812 252.073 65.3526L249.625 68.5154C250.947 69.5388 251.515 70.7189 251.515 72.18H255.515ZM252.073 65.3526C249.789 63.5843 246.571 62.87 242.765 62.87V66.87C246.183 66.87 248.354 67.5317 249.625 68.5154L252.073 65.3526ZM242.765 62.87C238.616 62.87 235.147 63.9241 232.795 66.4233L235.708 69.1647C237.025 67.7652 239.232 66.87 242.765 66.87V62.87ZM232.793 66.4246C230.739 68.612 229.585 71.1177 229.585 73.9H233.585C233.585 72.325 234.209 70.76 235.709 69.1633L232.793 66.4246ZM231.585 71.9H224.275V75.9H231.585V71.9ZM226.275 73.9C226.275 71.0393 227.473 68.2849 230.161 65.5962L227.333 62.7678C224.059 66.0418 222.275 69.7661 222.275 73.9H226.275ZM230.161 65.5962C232.614 63.1436 236.665 61.71 242.765 61.71V57.71C236.137 57.71 230.843 59.2577 227.333 62.7678L230.161 65.5962ZM242.765 61.71C248.913 61.71 252.94 62.8435 255.276 64.7117L257.775 61.5883C254.376 58.8698 249.231 57.71 242.765 57.71V61.71ZM255.295 64.727C257.749 66.641 258.825 68.8126 258.825 71.32H262.825C262.825 67.406 261.035 64.131 257.755 61.573L255.295 64.727ZM258.825 71.32C258.825 73.2555 258.222 74.7506 257.063 75.9517L259.943 78.7283C261.881 76.7187 262.825 74.2005 262.825 71.32H258.825ZM257.062 75.9527C255.729 77.3372 254.54 78.0558 253.511 78.3328L254.551 82.1952C256.504 81.6695 258.296 80.4388 259.944 78.7273L257.062 75.9527ZM253.581 78.3152L251.345 78.8312L252.245 82.7288L254.481 82.2128L253.581 78.3152ZM249.795 80.78V81.21H253.795V80.78H249.795ZM251.403 83.1712C251.646 83.2197 251.984 83.2973 252.428 83.4083L253.398 79.5277C252.925 79.4094 252.518 79.315 252.187 79.2488L251.403 83.1712ZM252.692 83.4558C252.926 83.4818 253.57 83.6497 254.781 84.111L256.205 80.373C255.008 79.917 253.932 79.5689 253.134 79.4802L252.692 83.4558ZM254.81 84.1216C255.917 84.5241 256.825 85.0102 257.561 85.562L259.961 82.362C258.862 81.5378 257.592 80.8772 256.177 80.3624L254.81 84.1216ZM257.675 85.6411C258.33 86.0652 258.991 86.7549 259.619 87.8175L263.063 85.7825C262.2 84.3225 261.142 83.1201 259.848 82.2829L257.675 85.6411ZM259.654 87.8738C260.237 88.7903 260.545 89.8458 260.545 91.1H264.545C264.545 89.1436 264.05 87.3323 263.028 85.7262L259.654 87.8738ZM260.545 91.1C260.545 94.6915 259.11 97.5493 256.095 99.8231L258.503 103.017C262.483 100.016 264.545 95.9938 264.545 91.1H260.545ZM256.099 99.82C253.131 102.046 248.77 103.29 242.765 103.29V107.29C249.258 107.29 254.587 105.954 258.499 103.02L256.099 99.82ZM242.765 103.29C236.595 103.29 232.299 101.935 229.535 99.5594L226.927 102.593C230.7 105.835 236.093 107.29 242.765 107.29V103.29ZM229.548 99.5708C226.819 97.1827 225.415 94.0006 225.415 89.81H221.415C221.415 95.022 223.222 99.3506 226.914 102.581L229.548 99.5708ZM223.415 91.81H230.725V87.81H223.415V91.81ZM228.725 89.81C228.725 93.4533 229.848 96.5474 232.278 98.8344L235.02 95.9216C233.551 94.5393 232.725 92.5881 232.725 89.81H228.725ZM232.278 98.8344C234.756 101.166 238.395 102.13 242.765 102.13V98.13C238.879 98.13 236.441 97.2591 235.02 95.9216L232.278 98.8344ZM242.765 102.13C247.138 102.13 250.769 101.276 253.201 99.1383L250.561 96.1337C249.209 97.3218 246.763 98.13 242.765 98.13V102.13ZM253.204 99.1357C255.591 97.0298 256.805 94.3016 256.805 91.1H252.805C252.805 93.173 252.07 94.8022 250.558 96.1363L253.204 99.1357ZM256.805 91.1C256.805 88.1884 255.613 85.8028 253.196 84.2555C250.93 82.8056 247.788 82.22 244.055 82.22V86.22C247.489 86.22 249.722 86.7811 251.04 87.6245C252.205 88.3705 252.805 89.4249 252.805 91.1H256.805ZM244.055 82.22H236.315V86.22H244.055V82.22ZM273.755 116.9V118.9H275.755V116.9H273.755ZM266.445 116.9H264.445V118.9H266.445V116.9ZM266.445 98.41V96.41H264.445V98.41H266.445ZM275.217 92.046L273.344 91.3465L273.341 91.3535L273.339 91.3605L275.217 92.046ZM277.625 61V59H275.625V61H277.625ZM309.015 61H311.015V59H309.015V61ZM309.015 98.41H307.015V100.41H309.015V98.41ZM316.755 98.41H318.755V96.41H316.755V98.41ZM316.755 116.9V118.9H318.755V116.9H316.755ZM309.445 116.9H307.445V118.9H309.445V116.9ZM309.445 104H311.445V102H309.445V104ZM273.755 104V102H271.755V104H273.755ZM278.485 98.41L277.223 96.8591L272.862 100.41H278.485V98.41ZM301.705 98.41V100.41H303.705V98.41H301.705ZM301.705 66.59H303.705V64.59H301.705V66.59ZM284.505 66.59V64.59H282.505V66.59H284.505ZM273.755 114.9H266.445V118.9H273.755V114.9ZM268.445 116.9V98.41H264.445V116.9H268.445ZM266.445 100.41H268.165V96.41H266.445V100.41ZM268.165 100.41C270.239 100.41 272.092 99.6946 273.633 98.3038C275.132 96.9514 276.255 95.0368 277.096 92.7315L273.339 91.3605C272.632 93.2978 271.806 94.5652 270.953 95.3342C270.144 96.0648 269.245 96.41 268.165 96.41V100.41ZM277.091 92.7455C278.831 88.086 279.625 80.724 279.625 70.89H275.625C275.625 80.664 274.815 87.406 273.344 91.3465L277.091 92.7455ZM279.625 70.89V61H275.625V70.89H279.625ZM277.625 63H309.015V59H277.625V63ZM307.015 61V98.41H311.015V61H307.015ZM309.015 100.41H316.755V96.41H309.015V100.41ZM314.755 98.41V116.9H318.755V98.41H314.755ZM316.755 114.9H309.445V118.9H316.755V114.9ZM311.445 116.9V104H307.445V116.9H311.445ZM309.445 102H273.755V106H309.445V102ZM271.755 104V116.9H275.755V104H271.755ZM282.505 71.75C282.505 78.9306 282.007 84.6137 281.049 88.8535C280.078 93.1567 278.703 95.6534 277.223 96.8591L279.748 99.9609C282.281 97.8986 283.916 94.318 284.951 89.7345C286.001 85.0876 286.505 79.0747 286.505 71.75H282.505ZM278.485 100.41H301.705V96.41H278.485V100.41ZM303.705 98.41V66.59H299.705V98.41H303.705ZM301.705 64.59H284.505V68.59H301.705V64.59ZM282.505 66.59V71.75H286.505V66.59H282.505ZM359.772 84.22V86.22H361.772V84.22H359.772ZM327.092 84.22V82.22H325.004L325.094 84.3059L327.092 84.22ZM331.134 96.174L329.673 97.5398L329.673 97.5398L331.134 96.174ZM347.904 97.808L346.725 96.1924L346.715 96.2001L346.704 96.208L347.904 97.808ZM352.032 91.1V89.1H350.418L350.077 90.6783L352.032 91.1ZM359.342 91.1L361.297 91.5227L361.821 89.1H359.342V91.1ZM353.064 101.42L354.317 102.979L354.32 102.976L353.064 101.42ZM324.77 98.84L323.239 100.126L323.244 100.132L323.249 100.138L324.77 98.84ZM324.684 66.16L323.153 64.8736L323.148 64.8796L323.143 64.8857L324.684 66.16ZM354.784 65.902L353.216 67.1434L353.221 67.1501L353.227 67.1567L354.784 65.902ZM348.592 68.482L347.127 69.8429L347.143 69.861L347.161 69.8786L348.592 68.482ZM331.306 68.396L329.875 66.9993L329.866 67.0084L329.857 67.0176L331.306 68.396ZM327.264 79.06L325.273 78.8681L325.062 81.06H327.264V79.06ZM352.032 79.06V81.06H354.032V79.06H352.032ZM359.772 82.22H327.092V86.22H359.772V82.22ZM325.094 84.3059C325.334 89.8932 326.757 94.4199 329.673 97.5398L332.595 94.8082C330.581 92.6534 329.309 89.2108 329.09 84.1341L325.094 84.3059ZM329.673 97.5398C332.53 100.596 336.162 102.13 340.422 102.13V98.13C337.229 98.13 334.669 97.0265 332.595 94.8082L329.673 97.5398ZM340.422 102.13C343.719 102.13 346.649 101.25 349.104 99.408L346.704 96.208C345.032 97.4623 342.974 98.13 340.422 98.13V102.13ZM349.083 99.4236C351.656 97.546 353.268 94.8541 353.987 91.5217L350.077 90.6783C349.535 93.1939 348.395 94.974 346.725 96.1924L349.083 99.4236ZM352.032 93.1H359.342V89.1H352.032V93.1ZM357.387 90.6773C356.563 94.4896 354.708 97.5235 351.808 99.8636L354.32 102.976C357.957 100.042 360.287 96.1957 361.297 91.5227L357.387 90.6773ZM351.811 99.861C349.042 102.087 345.308 103.29 340.422 103.29V107.29C345.971 107.29 350.665 105.913 354.317 102.979L351.811 99.861ZM340.422 103.29C334.116 103.29 329.506 101.308 326.292 97.5418L323.249 100.138C327.373 104.972 333.198 107.29 340.422 107.29V103.29ZM326.302 97.5536C323.043 93.6748 321.352 88.7088 321.352 82.5H317.352C317.352 89.4778 319.273 95.4052 323.239 100.126L326.302 97.5536ZM321.352 82.5C321.352 76.2834 323.019 71.313 326.226 67.4343L323.143 64.8857C319.24 69.607 317.352 75.53 317.352 82.5H321.352ZM326.216 67.4464C329.38 63.6794 333.876 61.71 339.992 61.71V57.71C332.922 57.71 327.212 60.0406 323.153 64.8736L326.216 67.4464ZM339.992 61.71C346.144 61.71 350.421 63.6132 353.216 67.1434L356.352 64.6606C352.611 59.9348 347.027 57.71 339.992 57.71V61.71ZM353.227 67.1567C356.239 70.8956 357.772 75.4008 357.772 80.78H361.772C361.772 74.5779 359.98 69.1643 356.342 64.6473L353.227 67.1567ZM357.772 80.78V84.22H361.772V80.78H357.772ZM350.058 67.1211C347.417 64.2771 344.005 62.87 339.992 62.87V66.87C342.973 66.87 345.295 67.8709 347.127 69.8429L350.058 67.1211ZM339.992 62.87C335.995 62.87 332.571 64.2359 329.875 66.9993L332.738 69.7926C334.628 67.8548 336.995 66.87 339.992 66.87V62.87ZM329.857 67.0176C327.197 69.8139 325.755 73.8672 325.273 78.8681L329.255 79.2519C329.69 74.7354 330.943 71.6794 332.755 69.7744L329.857 67.0176ZM327.264 81.06H352.032V77.06H327.264V81.06ZM354.032 79.06C354.032 74.0626 352.814 69.9449 350.024 67.0854L347.161 69.8786C348.957 71.7204 350.032 74.6547 350.032 79.06H354.032ZM377.62 69.256L379.149 70.5452L379.149 70.5452L377.62 69.256ZM377.62 95.744L379.149 94.4548L379.149 94.4548L377.62 95.744ZM395.25 97.206L396.664 98.6202L396.674 98.61L396.684 98.5996L395.25 97.206ZM398.862 88.95V86.95H397.107L396.879 88.6899L398.862 88.95ZM406.602 88.95L408.599 89.0499L408.704 86.95H406.602V88.95ZM401.184 100.56L399.82 99.0971L399.82 99.0971L401.184 100.56ZM371.6 98.84L370.068 100.126L370.073 100.132L370.078 100.138L371.6 98.84ZM371.6 66.16L370.078 64.8618L370.073 64.8677L370.068 64.8736L371.6 66.16ZM401.184 64.44L399.82 65.9029L399.82 65.9029L401.184 64.44ZM406.602 76.05V78.05H408.704L408.599 75.9501L406.602 76.05ZM398.862 76.05L396.879 76.3101L397.107 78.05H398.862V76.05ZM395.25 67.88L393.815 69.2736L393.825 69.284L393.836 69.2942L395.25 67.88ZM376.091 67.9668C373.194 71.4025 371.922 76.3676 371.922 82.5H375.922C375.922 76.8218 377.115 72.9575 379.149 70.5452L376.091 67.9668ZM371.922 82.5C371.922 88.6324 373.194 93.5975 376.091 97.0332L379.149 94.4548C377.115 92.0425 375.922 88.1782 375.922 82.5H371.922ZM376.091 97.0332C378.951 100.425 382.73 102.13 387.252 102.13V98.13C383.862 98.13 381.219 96.9106 379.149 94.4548L376.091 97.0332ZM387.252 102.13C391.037 102.13 394.258 101.026 396.664 98.6202L393.836 95.7918C392.343 97.2843 390.232 98.13 387.252 98.13V102.13ZM396.684 98.5996C399.004 96.2114 400.345 93.0218 400.845 89.2101L396.879 88.6899C396.461 91.8729 395.394 94.1873 393.815 95.8124L396.684 98.5996ZM398.862 90.95H406.602V86.95H398.862V90.95ZM404.604 88.8501C404.401 92.9133 402.825 96.2956 399.82 99.0971L402.548 102.023C406.308 98.5177 408.344 94.1601 408.599 89.0499L404.604 88.8501ZM399.82 99.0971C396.902 101.817 392.796 103.29 387.252 103.29V107.29C393.518 107.29 398.7 105.609 402.548 102.023L399.82 99.0971ZM387.252 103.29C380.945 103.29 376.335 101.308 373.121 97.5418L370.078 100.138C374.203 104.972 380.028 107.29 387.252 107.29V103.29ZM373.131 97.5536C369.873 93.6748 368.182 88.7088 368.182 82.5H364.182C364.182 89.4778 366.103 95.4052 370.068 100.126L373.131 97.5536ZM368.182 82.5C368.182 76.2912 369.873 71.3252 373.131 67.4464L370.068 64.8736C366.103 69.5948 364.182 75.5222 364.182 82.5H368.182ZM373.121 67.4582C376.335 63.6916 380.945 61.71 387.252 61.71V57.71C380.028 57.71 374.203 60.0284 370.078 64.8618L373.121 67.4582ZM387.252 61.71C392.796 61.71 396.902 63.1826 399.82 65.9029L402.548 62.9771C398.7 59.3908 393.518 57.71 387.252 57.71V61.71ZM399.82 65.9029C402.825 68.7044 404.401 72.0867 404.604 76.1499L408.599 75.9501C408.344 70.8399 406.308 66.4823 402.548 62.9771L399.82 65.9029ZM406.602 74.05H398.862V78.05H406.602V74.05ZM400.845 75.7899C400.345 71.9791 399.003 68.8045 396.664 66.4658L393.836 69.2942C395.396 70.8542 396.461 73.1263 396.879 76.3101L400.845 75.7899ZM396.684 66.4864C394.282 64.013 391.054 62.87 387.252 62.87V66.87C390.215 66.87 392.319 67.7337 393.815 69.2736L396.684 66.4864ZM387.252 62.87C382.73 62.87 378.951 64.5746 376.091 67.9668L379.149 70.5452C381.219 68.0894 383.862 66.87 387.252 66.87V62.87ZM421.182 78.63H419.182V80.63H421.182V78.63ZM413.872 104H411.872V106H413.872V104ZM413.872 61V59H411.872V61H413.872ZM421.182 61H423.182V59H421.182V61ZM421.182 84.22V82.22H419.182V84.22H421.182ZM421.182 98.41H419.182V100.41H421.182V98.41ZM439.328 96.862L440.382 98.5613L440.403 98.5484L440.424 98.5349L439.328 96.862ZM421.182 80.63H432.792V76.63H421.182V80.63ZM432.792 80.63C438.192 80.63 441.878 81.6442 444.176 83.3524C446.362 84.978 447.562 87.4378 447.562 91.1H451.562C451.562 86.4489 449.966 82.6736 446.562 80.1426C443.27 77.6941 438.571 76.63 432.792 76.63V80.63ZM447.562 91.1C447.562 94.9307 446.344 97.5021 444.15 99.1898C441.856 100.954 438.181 102 432.792 102V106C438.582 106 443.292 104.896 446.588 102.36C449.985 99.7479 451.562 95.8693 451.562 91.1H447.562ZM432.792 102H413.872V106H432.792V102ZM415.872 104V61H411.872V104H415.872ZM413.872 63H421.182V59H413.872V63ZM419.182 61V78.63H423.182V61H419.182ZM432.362 82.22H421.182V86.22H432.362V82.22ZM419.182 84.22V98.41H423.182V84.22H419.182ZM421.182 100.41H432.362V96.41H421.182V100.41ZM432.362 100.41C435.535 100.41 438.278 99.8672 440.382 98.5613L438.273 95.1627C437.051 95.9208 435.151 96.41 432.362 96.41V100.41ZM440.424 98.5349C442.853 96.9434 443.822 94.2421 443.822 91.1H439.822C439.822 93.4619 439.128 94.6019 438.231 95.1891L440.424 98.5349ZM443.822 91.1C443.822 88.2952 442.823 85.9152 440.633 84.3225C438.561 82.816 435.698 82.22 432.362 82.22V86.22C435.332 86.22 437.198 86.7707 438.28 87.5575C439.244 88.2582 439.822 89.3182 439.822 91.1H443.822ZM457.47 95.83V93.83H455.47V95.83H457.47ZM464.78 95.83H466.78V93.83H464.78V95.83ZM455.75 114.32H453.75V116.32H455.75V114.32ZM455.75 110.88V108.88H453.75V110.88H455.75ZM460.05 109.418L458.591 108.05L458.547 108.097L458.506 108.147L460.05 109.418ZM461.34 104H463.34V102H461.34V104ZM457.47 104H455.47V106H457.47V104ZM457.47 97.83H464.78V93.83H457.47V97.83ZM462.78 95.83V105.29H466.78V95.83H462.78ZM462.78 105.29C462.78 108.038 462.154 109.726 461.255 110.721C460.389 111.677 458.971 112.32 456.61 112.32V116.32C459.696 116.32 462.363 115.458 464.221 113.404C466.044 111.389 466.78 108.562 466.78 105.29H462.78ZM456.61 112.32H455.75V116.32H456.61V112.32ZM457.75 114.32V110.88H453.75V114.32H457.75ZM455.75 112.88C458.039 112.88 460.225 112.352 461.594 110.689L458.506 108.147C458.27 108.434 457.59 108.88 455.75 108.88V112.88ZM461.509 110.786C462.848 109.358 463.34 107.402 463.34 105.29H459.34C459.34 106.847 458.973 107.643 458.591 108.05L461.509 110.786ZM463.34 105.29V104H459.34V105.29H463.34ZM461.34 102H457.47V106H461.34V102ZM459.47 104V95.83H455.47V104H459.47ZM521.832 61V59H519.832V61H521.832ZM529.142 61H531.142V59H529.142V61ZM529.142 104V106H531.142V104H529.142ZM521.832 104H519.832V106H521.832V104ZM521.832 83.79H523.832V77.5491L520.204 82.6275L521.832 83.79ZM520.456 85.252L519.11 83.7721L519.075 83.8041L519.042 83.8378L520.456 85.252ZM516.328 87.574L517.122 89.4097L517.133 89.4047L517.144 89.3996L516.328 87.574ZM493.882 61V59H491.882V61H493.882ZM501.192 61H503.192V59H501.192V61ZM503.6 80.694L502.116 82.0346L502.127 82.0475L502.139 82.0603L503.6 80.694ZM518.994 81.726L519.992 83.4592L520.011 83.448L520.03 83.4364L518.994 81.726ZM521.832 63H529.142V59H521.832V63ZM527.142 61V104H531.142V61H527.142ZM529.142 102H521.832V106H529.142V102ZM523.832 104V83.79H519.832V104H523.832ZM520.204 82.6275C520.039 82.8595 519.7 83.236 519.11 83.7721L521.801 86.7319C522.473 86.1213 523.052 85.5232 523.459 84.9525L520.204 82.6275ZM519.042 83.8378C518.954 83.9251 518.662 84.1542 518.013 84.5193C517.398 84.8654 516.57 85.2748 515.511 85.7484L517.144 89.3996C518.265 88.8986 519.213 88.4336 519.974 88.0057C520.701 87.5968 521.384 87.1522 521.87 86.6662L519.042 83.8378ZM515.534 85.7383C513.685 86.5377 511.637 86.95 509.362 86.95V90.95C512.132 90.95 514.727 90.445 517.122 89.4097L515.534 85.7383ZM509.362 86.95C505.028 86.95 501.79 85.7956 499.432 83.6779L496.76 86.6541C500.02 89.5817 504.293 90.95 509.362 90.95V86.95ZM499.432 83.6779C497.17 81.6464 495.882 78.5125 495.882 73.9H491.882C491.882 79.2635 493.403 83.6403 496.76 86.6541L499.432 83.6779ZM495.882 73.9V61H491.882V73.9H495.882ZM493.882 63H501.192V59H493.882V63ZM499.192 61V72.18H503.192V61H499.192ZM499.192 72.18C499.192 76.2812 500.024 79.7187 502.116 82.0346L505.084 79.3534C503.965 78.1146 503.192 75.8761 503.192 72.18H499.192ZM502.139 82.0603C504.331 84.4034 507.615 85.36 511.512 85.36V81.36C508.185 81.36 506.194 80.5393 505.06 79.3277L502.139 82.0603ZM511.512 85.36C514.82 85.36 517.695 84.7814 519.992 83.4592L517.996 79.9928C516.508 80.8492 514.396 81.36 511.512 81.36V85.36ZM520.03 83.4364C522.468 81.9588 523.832 79.7321 523.832 76.91H519.832C519.832 78.2159 519.303 79.1999 517.957 80.0156L520.03 83.4364ZM523.832 76.91V61H519.832V76.91H523.832ZM558.778 104V106H560.778V104H558.778ZM551.468 104H549.468V106H551.468V104ZM551.468 66.59H553.468V64.59H551.468V66.59ZM535.558 66.59H533.558V68.59H535.558V66.59ZM535.558 61V59H533.558V61H535.558ZM574.688 61H576.688V59H574.688V61ZM574.688 66.59V68.59H576.688V66.59H574.688ZM558.778 66.59V64.59H556.778V66.59H558.778ZM558.778 102H551.468V106H558.778V102ZM553.468 104V66.59H549.468V104H553.468ZM551.468 64.59H535.558V68.59H551.468V64.59ZM537.558 66.59V61H533.558V66.59H537.558ZM535.558 63H574.688V59H535.558V63ZM572.688 61V66.59H576.688V61H572.688ZM574.688 64.59H558.778V68.59H574.688V64.59ZM556.778 66.59V104H560.778V66.59H556.778ZM582.703 98.84L581.172 100.126L581.177 100.132L581.182 100.138L582.703 98.84ZM582.703 66.16L581.182 64.8618L581.177 64.8677L581.172 64.8736L582.703 66.16ZM613.921 66.16L612.39 67.4464L612.395 67.4523L612.4 67.4582L613.921 66.16ZM613.921 98.84L612.4 97.5418L612.395 97.5477L612.39 97.5536L613.921 98.84ZM588.723 69.256L590.252 70.5452L590.252 70.5452L588.723 69.256ZM588.723 95.744L590.252 94.4548L590.252 94.4548L588.723 95.744ZM607.987 95.744L609.516 97.0332L609.516 97.0332L607.987 95.744ZM607.987 69.256L609.516 67.9668L609.516 67.9668L607.987 69.256ZM584.234 97.5536C580.976 93.6748 579.285 88.7088 579.285 82.5H575.285C575.285 89.4778 577.206 95.4052 581.172 100.126L584.234 97.5536ZM579.285 82.5C579.285 76.2912 580.976 71.3252 584.234 67.4464L581.172 64.8736C577.206 69.5948 575.285 75.5222 575.285 82.5H579.285ZM584.224 67.4582C587.438 63.6916 592.048 61.71 598.355 61.71V57.71C591.131 57.71 585.306 60.0284 581.182 64.8618L584.224 67.4582ZM598.355 61.71C604.663 61.71 609.236 63.6916 612.39 67.4464L615.452 64.8736C611.382 60.0284 605.578 57.71 598.355 57.71V61.71ZM612.4 67.4582C615.71 71.3374 617.425 76.299 617.425 82.5H621.425C621.425 75.5143 619.471 69.5826 615.442 64.8618L612.4 67.4582ZM617.425 82.5C617.425 88.701 615.71 93.6626 612.4 97.5418L615.442 100.138C619.471 95.4174 621.425 89.4857 621.425 82.5H617.425ZM612.39 97.5536C609.236 101.308 604.663 103.29 598.355 103.29V107.29C605.578 107.29 611.382 104.972 615.452 100.126L612.39 97.5536ZM598.355 103.29C592.048 103.29 587.438 101.308 584.224 97.5418L581.182 100.138C585.306 104.972 591.131 107.29 598.355 107.29V103.29ZM587.194 67.9668C584.297 71.4025 583.025 76.3676 583.025 82.5H587.025C587.025 76.8218 588.218 72.9575 590.252 70.5452L587.194 67.9668ZM583.025 82.5C583.025 88.6324 584.297 93.5975 587.194 97.0332L590.252 94.4548C588.218 92.0425 587.025 88.1782 587.025 82.5H583.025ZM587.194 97.0332C590.054 100.425 593.833 102.13 598.355 102.13V98.13C594.965 98.13 592.323 96.9106 590.252 94.4548L587.194 97.0332ZM598.355 102.13C602.877 102.13 606.656 100.425 609.516 97.0332L606.458 94.4548C604.387 96.9106 601.745 98.13 598.355 98.13V102.13ZM609.516 97.0332C612.413 93.5975 613.685 88.6324 613.685 82.5H609.685C609.685 88.1782 608.492 92.0425 606.458 94.4548L609.516 97.0332ZM613.685 82.5C613.685 76.3676 612.413 71.4025 609.516 67.9668L606.458 70.5452C608.492 72.9575 609.685 76.8218 609.685 82.5H613.685ZM609.516 67.9668C606.656 64.5746 602.877 62.87 598.355 62.87V66.87C601.745 66.87 604.387 68.0894 606.458 70.5452L609.516 67.9668ZM598.355 62.87C593.833 62.87 590.054 64.5746 587.194 67.9668L590.252 70.5452C592.323 68.0894 594.965 66.87 598.355 66.87V62.87ZM637.402 71.062L635.89 69.7532L635.883 69.7616L635.876 69.7701L637.402 71.062ZM637.316 95.916L635.8 97.2201L635.814 97.2363L635.828 97.2523L637.316 95.916ZM656.494 95.916L654.993 94.5947L654.991 94.5968L656.494 95.916ZM656.494 70.89L654.978 72.1941L654.992 72.2103L655.006 72.2262L656.494 70.89ZM665.438 43.8H667.438V41.8H665.438V43.8ZM665.18 47.326L667.15 47.6736L667.152 47.6642L667.153 47.6548L665.18 47.326ZM663.976 50.766L662.172 49.9031L662.157 49.9355L662.142 49.9685L663.976 50.766ZM660.794 53.862L659.927 52.06L659.913 52.0665L659.9 52.0731L660.794 53.862ZM631.468 73.9L629.472 73.773L629.337 75.9H631.468V73.9ZM631.898 73.9V75.9H633.593L633.871 74.2288L631.898 73.9ZM632.242 72.61L630.385 71.8672L630.364 71.9218L630.345 71.9775L632.242 72.61ZM633.79 69.6L635.535 70.5772L635.535 70.5772L633.79 69.6ZM636.628 65.816L638.043 67.2302L638.061 67.2121L638.078 67.1935L636.628 65.816ZM641.186 62.806L641.994 64.6358L642.006 64.6305L642.018 64.6249L641.186 62.806ZM662.858 67.794L661.295 69.0408L661.3 69.0472L661.305 69.0536L662.858 67.794ZM662.514 99.012L661.002 97.7037L661 97.7053L662.514 99.012ZM631.124 98.496L632.707 97.2737L632.707 97.2737L631.124 98.496ZM659.676 47.24L660.69 48.9639L660.727 48.9423L660.763 48.9191L659.676 47.24ZM661.138 43.8V41.8H659.138V43.8H661.138ZM646.948 64.59C642.557 64.59 638.832 66.3539 635.89 69.7532L638.915 72.3708C641.133 69.8074 643.772 68.59 646.948 68.59V64.59ZM635.876 69.7701C632.958 73.2184 631.618 77.8298 631.618 83.36H635.618C635.618 78.4556 636.802 74.8683 638.929 72.3539L635.876 69.7701ZM631.618 83.36C631.618 89.1292 632.907 93.8562 635.8 97.2201L638.833 94.6119C636.795 92.2424 635.618 88.5988 635.618 83.36H631.618ZM635.828 97.2523C638.744 100.499 642.503 102.13 646.948 102.13V98.13C643.596 98.13 640.934 96.9512 638.804 94.5797L635.828 97.2523ZM646.948 102.13C651.394 102.13 655.134 100.498 657.998 97.2352L654.991 94.5968C652.924 96.9526 650.3 98.13 646.948 98.13V102.13ZM657.996 97.2373C660.956 93.873 662.278 89.1389 662.278 83.36H658.278C658.278 88.5891 657.078 92.2257 654.993 94.5947L657.996 97.2373ZM662.278 83.36C662.278 77.5848 660.958 72.8673 657.982 69.5537L655.006 72.2262C657.076 74.5314 658.278 78.1272 658.278 83.36H662.278ZM658.011 69.5859C655.152 66.2619 651.409 64.59 646.948 64.59V68.59C650.285 68.59 652.906 69.7847 654.978 72.1941L658.011 69.5859ZM663.438 43.8C663.438 45.0355 663.357 46.0976 663.208 46.9972L667.153 47.6548C667.347 46.4904 667.438 45.2018 667.438 43.8H663.438ZM663.211 46.9784C663.081 47.7117 662.758 48.678 662.172 49.9031L665.781 51.6289C666.456 50.2167 666.935 48.8897 667.15 47.6736L663.211 46.9784ZM662.142 49.9685C661.796 50.765 661.131 51.4802 659.927 52.06L661.662 55.664C663.554 54.7531 665.01 53.4043 665.81 51.5635L662.142 49.9685ZM659.9 52.0731C658.771 52.6375 657.212 52.98 655.118 52.98V56.98C657.612 56.98 659.836 56.5772 661.689 55.6509L659.9 52.0731ZM655.118 52.98H647.808V56.98H655.118V52.98ZM647.808 52.98C642.316 52.98 637.825 54.7173 634.642 58.4028C631.519 62.018 629.888 67.244 629.472 73.773L633.464 74.027C633.851 67.9426 635.345 63.7087 637.669 61.0172C639.933 58.396 643.21 56.98 647.808 56.98V52.98ZM631.468 75.9H631.898V71.9H631.468V75.9ZM633.871 74.2288C633.905 74.0281 633.985 73.7076 634.14 73.2425L630.345 71.9775C630.156 72.5444 630.007 73.0839 629.926 73.5712L633.871 74.2288ZM634.099 73.3528C634.274 72.9165 634.728 72.0193 635.535 70.5772L632.045 68.6228C631.248 70.0474 630.67 71.1568 630.385 71.8672L634.099 73.3528ZM635.535 70.5772C636.254 69.2934 637.091 68.1814 638.043 67.2302L635.214 64.4018C633.987 65.6292 632.932 67.0399 632.045 68.6228L635.535 70.5772ZM638.078 67.1935C638.934 66.2927 640.207 65.424 641.994 64.6358L640.379 60.9762C638.267 61.908 636.501 63.0459 635.178 64.4385L638.078 67.1935ZM642.018 64.6249C643.74 63.8375 645.661 63.43 647.808 63.43V59.43C645.14 59.43 642.646 59.9399 640.355 60.987L642.018 64.6249ZM647.808 63.43C654.002 63.43 658.377 65.3813 661.295 69.0408L664.422 66.5472C660.575 61.7214 654.916 59.43 647.808 59.43V63.43ZM661.305 69.0536C664.42 72.8962 666.018 77.6241 666.018 83.36H670.018C670.018 76.8265 668.176 71.1772 664.412 66.5344L661.305 69.0536ZM666.018 83.36C666.018 89.1251 664.323 93.863 661.002 97.7037L664.027 100.32C668.044 95.6756 670.018 89.9789 670.018 83.36H666.018ZM661 97.7053C657.852 101.353 653.274 103.29 646.948 103.29V107.29C654.153 107.29 659.953 105.041 664.028 100.319L661 97.7053ZM646.948 103.29C640.356 103.29 635.738 101.199 632.707 97.2737L629.541 99.7183C633.505 104.852 639.436 107.29 646.948 107.29V103.29ZM632.707 97.2737C629.565 93.2044 627.878 87.4949 627.878 79.92H623.878C623.878 88.0544 625.689 94.7289 629.541 99.7183L632.707 97.2737ZM627.878 79.92C627.878 69.5142 629.892 62.077 633.59 57.2755C637.213 52.5729 642.687 50.1 650.388 50.1V46.1C641.75 46.1 634.969 48.9305 630.421 54.8345C625.95 60.6397 623.878 69.1125 623.878 79.92H627.878ZM650.388 50.1H655.118V46.1H650.388V50.1ZM655.118 50.1C657.288 50.1 659.247 49.8129 660.69 48.9639L658.662 45.5161C658.156 45.8138 657.077 46.1 655.118 46.1V50.1ZM660.763 48.9191C662.531 47.7753 663.138 45.8231 663.138 43.8H659.138C659.138 45.1023 658.771 45.4434 658.59 45.5609L660.763 48.9191ZM661.138 45.8H665.438V41.8H661.138V45.8ZM682.642 78.63H680.642V80.63H682.642V78.63ZM675.332 104H673.332V106H675.332V104ZM675.332 61V59H673.332V61H675.332ZM682.642 61H684.642V59H682.642V61ZM682.642 84.22V82.22H680.642V84.22H682.642ZM682.642 98.41H680.642V100.41H682.642V98.41ZM699.068 96.862L700.122 98.5613L700.143 98.5484L700.164 98.5349L699.068 96.862ZM720.912 104V106H722.912V104H720.912ZM713.602 104H711.602V106H713.602V104ZM713.602 61V59H711.602V61H713.602ZM720.912 61H722.912V59H720.912V61ZM682.642 80.63H692.532V76.63H682.642V80.63ZM692.532 80.63C697.932 80.63 701.618 81.6442 703.916 83.3524C706.102 84.978 707.302 87.4378 707.302 91.1H711.302C711.302 86.4489 709.706 82.6736 706.303 80.1426C703.01 77.6941 698.311 76.63 692.532 76.63V80.63ZM707.302 91.1C707.302 94.9307 706.084 97.5021 703.89 99.1898C701.596 100.954 697.921 102 692.532 102V106C698.322 106 703.032 104.896 706.329 102.36C709.725 99.7479 711.302 95.8693 711.302 91.1H707.302ZM692.532 102H675.332V106H692.532V102ZM677.332 104V61H673.332V104H677.332ZM675.332 63H682.642V59H675.332V63ZM680.642 61V78.63H684.642V61H680.642ZM692.102 82.22H682.642V86.22H692.102V82.22ZM680.642 84.22V98.41H684.642V84.22H680.642ZM682.642 100.41H692.102V96.41H682.642V100.41ZM692.102 100.41C695.275 100.41 698.018 99.8672 700.122 98.5613L698.013 95.1627C696.792 95.9208 694.891 96.41 692.102 96.41V100.41ZM700.164 98.5349C702.593 96.9434 703.562 94.2421 703.562 91.1H699.562C699.562 93.4619 698.868 94.6019 697.972 95.1891L700.164 98.5349ZM703.562 91.1C703.562 88.2952 702.563 85.9152 700.373 84.3225C698.301 82.816 695.438 82.22 692.102 82.22V86.22C695.072 86.22 696.939 86.7707 698.02 87.5575C698.984 88.2582 699.562 89.3182 699.562 91.1H703.562ZM720.912 102H713.602V106H720.912V102ZM715.602 104V61H711.602V104H715.602ZM713.602 63H720.912V59H713.602V63ZM718.912 61V104H722.912V61H718.912ZM36.1014 186V188H38.1014V186H36.1014ZM28.7914 186H26.7914V188H28.7914V186ZM28.7914 148.59H30.7914V146.59H28.7914V148.59ZM12.8814 148.59H10.8814V150.59H12.8814V148.59ZM12.8814 143V141H10.8814V143H12.8814ZM52.0114 143H54.0114V141H52.0114V143ZM52.0114 148.59V150.59H54.0114V148.59H52.0114ZM36.1014 148.59V146.59H34.1014V148.59H36.1014ZM36.1014 184H28.7914V188H36.1014V184ZM30.7914 186V148.59H26.7914V186H30.7914ZM28.7914 146.59H12.8814V150.59H28.7914V146.59ZM14.8814 148.59V143H10.8814V148.59H14.8814ZM12.8814 145H52.0114V141H12.8814V145ZM50.0114 143V148.59H54.0114V143H50.0114ZM52.0114 146.59H36.1014V150.59H52.0114V146.59ZM34.1014 148.59V186H38.1014V148.59H34.1014ZM65.8016 160.63H63.8016V162.63H65.8016V160.63ZM58.4916 186H56.4916V188H58.4916V186ZM58.4916 143V141H56.4916V143H58.4916ZM65.8016 143H67.8016V141H65.8016V143ZM65.8016 166.22V164.22H63.8016V166.22H65.8016ZM65.8016 180.41H63.8016V182.41H65.8016V180.41ZM82.2276 178.862L83.2824 180.561L83.3032 180.548L83.3237 180.535L82.2276 178.862ZM104.072 186V188H106.072V186H104.072ZM96.7616 186H94.7616V188H96.7616V186ZM96.7616 143V141H94.7616V143H96.7616ZM104.072 143H106.072V141H104.072V143ZM65.8016 162.63H75.6916V158.63H65.8016V162.63ZM75.6916 162.63C81.092 162.63 84.7785 163.644 87.0757 165.352C89.2619 166.978 90.4616 169.438 90.4616 173.1H94.4616C94.4616 168.449 92.8664 164.674 89.4625 162.143C86.1698 159.694 81.4713 158.63 75.6916 158.63V162.63ZM90.4616 173.1C90.4616 176.931 89.2436 179.502 87.0497 181.19C84.7563 182.954 81.0812 184 75.6916 184V188C81.482 188 86.1919 186.896 89.4886 184.36C92.8846 181.748 94.4616 177.869 94.4616 173.1H90.4616ZM75.6916 184H58.4916V188H75.6916V184ZM60.4916 186V143H56.4916V186H60.4916ZM58.4916 145H65.8016V141H58.4916V145ZM63.8016 143V160.63H67.8016V143H63.8016ZM75.2616 164.22H65.8016V168.22H75.2616V164.22ZM63.8016 166.22V180.41H67.8016V166.22H63.8016ZM65.8016 182.41H75.2616V178.41H65.8016V182.41ZM75.2616 182.41C78.435 182.41 81.1783 181.867 83.2824 180.561L81.1729 177.163C79.9516 177.921 78.0509 178.41 75.2616 178.41V182.41ZM83.3237 180.535C85.7528 178.943 86.7216 176.242 86.7216 173.1H82.7216C82.7216 175.462 82.0278 176.602 81.1316 177.189L83.3237 180.535ZM86.7216 173.1C86.7216 170.295 85.7229 167.915 83.533 166.323C81.4614 164.816 78.5979 164.22 75.2616 164.22V168.22C78.232 168.22 80.0985 168.771 81.1803 169.557C82.1437 170.258 82.7216 171.318 82.7216 173.1H86.7216ZM104.072 184H96.7616V188H104.072V184ZM98.7616 186V143H94.7616V186H98.7616ZM96.7616 145H104.072V141H96.7616V145ZM102.072 143V186H106.072V143H102.072ZM138.885 166.22V164.22H136.885V166.22H138.885ZM138.885 180.41H136.885V182.41H138.885V180.41ZM158.751 178.862L159.806 180.561L159.826 180.548L159.847 180.535L158.751 178.862ZM138.885 161.06H136.885V163.06H138.885V161.06ZM138.885 148.59V146.59H136.885V148.59H138.885ZM131.575 186H129.575V188H131.575V186ZM131.575 143V141H129.575V143H131.575ZM162.879 145.494L161.875 147.224L161.896 147.236L161.916 147.247L162.879 145.494ZM165.201 159.34L166.696 160.669L166.708 160.655L166.719 160.642L165.201 159.34ZM161.073 162.264L161.578 164.199L161.605 164.192L161.633 164.184L161.073 162.264ZM159.095 162.78L158.59 160.845L157.095 161.235V162.78H159.095ZM159.095 163.21H157.095V164.85L158.703 165.171L159.095 163.21ZM160.127 163.468L159.577 165.391L159.726 165.433L159.879 165.453L160.127 163.468ZM162.535 164.242L163.278 162.385L163.278 162.385L162.535 164.242ZM165.545 165.962L164.295 167.524L164.295 167.524L165.545 165.962ZM167.867 169.058L166.078 169.952L166.101 169.998L166.126 170.042L167.867 169.058ZM164.341 183.076L163.275 181.384L163.275 181.384L164.341 183.076ZM151.785 164.22H138.885V168.22H151.785V164.22ZM136.885 166.22V180.41H140.885V166.22H136.885ZM138.885 182.41H151.785V178.41H138.885V182.41ZM151.785 182.41C154.958 182.41 157.702 181.867 159.806 180.561L157.696 177.163C156.475 177.921 154.574 178.41 151.785 178.41V182.41ZM159.847 180.535C162.276 178.943 163.245 176.242 163.245 173.1H159.245C159.245 175.462 158.551 176.602 157.655 177.189L159.847 180.535ZM163.245 173.1C163.245 170.295 162.246 167.915 160.056 166.323C157.985 164.816 155.121 164.22 151.785 164.22V168.22C154.755 168.22 156.622 168.771 157.703 169.557C158.667 170.258 159.245 171.318 159.245 173.1H163.245ZM138.885 163.06H150.495V159.06H138.885V163.06ZM150.495 163.06C153.813 163.06 156.655 162.506 158.717 161.1C160.916 159.601 161.955 157.324 161.955 154.61H157.955C157.955 156.196 157.417 157.144 156.463 157.795C155.372 158.539 153.483 159.06 150.495 159.06V163.06ZM161.955 154.61C161.955 152.061 161.004 149.893 158.952 148.457C157.029 147.111 154.393 146.59 151.355 146.59V150.59C154.05 150.59 155.714 151.073 156.658 151.733C157.472 152.303 157.955 153.145 157.955 154.61H161.955ZM151.355 146.59H138.885V150.59H151.355V146.59ZM136.885 148.59V161.06H140.885V148.59H136.885ZM133.575 186V143H129.575V186H133.575ZM131.575 145H151.785V141H131.575V145ZM151.785 145C156.086 145 159.405 145.791 161.875 147.224L163.882 143.764C160.619 141.871 156.543 141 151.785 141V145ZM161.916 147.247C163.089 147.891 163.896 148.691 164.424 149.632C164.956 150.582 165.265 151.785 165.265 153.32H169.265C169.265 151.243 168.843 149.336 167.913 147.677C166.978 146.009 165.592 144.702 163.841 143.741L161.916 147.247ZM165.265 153.32C165.265 155.321 164.705 156.846 163.682 158.038L166.719 160.642C168.449 158.624 169.265 156.135 169.265 153.32H165.265ZM163.706 158.011C162.475 159.397 161.401 160.085 160.513 160.344L161.633 164.184C163.496 163.64 165.175 162.379 166.696 160.669L163.706 158.011ZM160.568 160.329L158.59 160.845L159.6 164.715L161.578 164.199L160.568 160.329ZM157.095 162.78V163.21H161.095V162.78H157.095ZM158.703 165.171C158.919 165.215 159.208 165.286 159.577 165.391L160.676 161.545C160.243 161.421 159.844 161.32 159.487 161.249L158.703 165.171ZM159.879 165.453C160.047 165.474 160.625 165.632 161.792 166.099L163.278 162.385C162.152 161.935 161.124 161.577 160.375 161.483L159.879 165.453ZM161.792 166.099C162.778 166.493 163.606 166.972 164.295 167.524L166.794 164.4C165.763 163.576 164.585 162.908 163.278 162.385L161.792 166.099ZM164.295 167.524C164.858 167.974 165.471 168.739 166.078 169.952L169.656 168.164C168.886 166.625 167.951 165.326 166.794 164.4L164.295 167.524ZM166.126 170.042C166.685 171.032 166.985 172.178 166.985 173.53H170.985C170.985 171.557 170.539 169.721 169.608 168.074L166.126 170.042ZM166.985 173.53C166.985 177.422 165.663 179.88 163.275 181.384L165.406 184.768C169.211 182.373 170.985 178.467 170.985 173.53H166.985ZM163.275 181.384C160.594 183.071 156.958 184 152.215 184V188C157.447 188 161.895 186.979 165.406 184.768L163.275 181.384ZM152.215 184H131.575V188H152.215V184ZM186.463 151.256L187.992 152.545L187.992 152.545L186.463 151.256ZM186.463 177.744L187.992 176.455L187.992 176.455L186.463 177.744ZM204.093 179.206L205.507 180.62L205.517 180.61L205.528 180.6L204.093 179.206ZM207.705 170.95V168.95H205.95L205.722 170.69L207.705 170.95ZM215.445 170.95L217.443 171.05L217.548 168.95H215.445V170.95ZM210.027 182.56L208.663 181.097L208.663 181.097L210.027 182.56ZM180.443 180.84L178.912 182.126L178.917 182.132L178.922 182.138L180.443 180.84ZM180.443 148.16L178.922 146.862L178.917 146.868L178.912 146.874L180.443 148.16ZM210.027 146.44L208.663 147.903L208.663 147.903L210.027 146.44ZM215.445 158.05V160.05H217.548L217.443 157.95L215.445 158.05ZM207.705 158.05L205.722 158.31L205.95 160.05H207.705V158.05ZM204.093 149.88L202.658 151.274L202.669 151.284L202.679 151.294L204.093 149.88ZM184.934 149.967C182.037 153.403 180.765 158.368 180.765 164.5H184.765C184.765 158.822 185.958 154.957 187.992 152.545L184.934 149.967ZM180.765 164.5C180.765 170.632 182.037 175.597 184.934 179.033L187.992 176.455C185.958 174.043 184.765 170.178 184.765 164.5H180.765ZM184.934 179.033C187.794 182.425 191.573 184.13 196.095 184.13V180.13C192.705 180.13 190.063 178.911 187.992 176.455L184.934 179.033ZM196.095 184.13C199.88 184.13 203.101 183.026 205.507 180.62L202.679 177.792C201.186 179.284 199.075 180.13 196.095 180.13V184.13ZM205.528 180.6C207.848 178.211 209.188 175.022 209.688 171.21L205.722 170.69C205.305 173.873 204.237 176.187 202.658 177.812L205.528 180.6ZM207.705 172.95H215.445V168.95H207.705V172.95ZM213.447 170.85C213.244 174.913 211.668 178.296 208.663 181.097L211.391 184.023C215.151 180.518 217.187 176.16 217.443 171.05L213.447 170.85ZM208.663 181.097C205.745 183.817 201.64 185.29 196.095 185.29V189.29C202.361 189.29 207.544 187.609 211.391 184.023L208.663 181.097ZM196.095 185.29C189.788 185.29 185.179 183.308 181.964 179.542L178.922 182.138C183.046 186.972 188.871 189.29 196.095 189.29V185.29ZM181.974 179.554C178.716 175.675 177.025 170.709 177.025 164.5H173.025C173.025 171.478 174.946 177.405 178.912 182.126L181.974 179.554ZM177.025 164.5C177.025 158.291 178.716 153.325 181.974 149.446L178.912 146.874C174.946 151.595 173.025 157.522 173.025 164.5H177.025ZM181.964 149.458C185.179 145.692 189.788 143.71 196.095 143.71V139.71C188.871 139.71 183.046 142.028 178.922 146.862L181.964 149.458ZM196.095 143.71C201.64 143.71 205.745 145.183 208.663 147.903L211.391 144.977C207.544 141.391 202.361 139.71 196.095 139.71V143.71ZM208.663 147.903C211.668 150.704 213.244 154.087 213.447 158.15L217.443 157.95C217.187 152.84 215.151 148.482 211.391 144.977L208.663 147.903ZM215.445 156.05H207.705V160.05H215.445V156.05ZM209.688 157.79C209.188 153.979 207.846 150.804 205.507 148.466L202.679 151.294C204.239 152.854 205.304 155.126 205.722 158.31L209.688 157.79ZM205.528 148.486C203.125 146.013 199.897 144.87 196.095 144.87V148.87C199.058 148.87 201.163 149.734 202.658 151.274L205.528 148.486ZM196.095 144.87C191.573 144.87 187.794 146.575 184.934 149.967L187.992 152.545C190.063 150.089 192.705 148.87 196.095 148.87V144.87ZM262.275 166.22V168.22H264.275V166.22H262.275ZM229.595 166.22V164.22H227.507L227.597 166.306L229.595 166.22ZM233.637 178.174L232.176 179.54L232.176 179.54L233.637 178.174ZM250.407 179.808L249.228 178.192L249.217 178.2L249.207 178.208L250.407 179.808ZM254.535 173.1V171.1H252.92L252.58 172.678L254.535 173.1ZM261.845 173.1L263.8 173.523L264.323 171.1H261.845V173.1ZM255.567 183.42L256.819 184.979L256.823 184.976L255.567 183.42ZM227.273 180.84L225.741 182.126L225.746 182.132L225.751 182.138L227.273 180.84ZM227.187 148.16L225.655 146.874L225.65 146.88L225.645 146.886L227.187 148.16ZM257.287 147.902L255.719 149.143L255.724 149.15L255.729 149.157L257.287 147.902ZM251.095 150.482L249.629 151.843L249.646 151.861L249.663 151.879L251.095 150.482ZM233.809 150.396L232.377 148.999L232.368 149.008L232.36 149.018L233.809 150.396ZM229.767 161.06L227.776 160.868L227.565 163.06H229.767V161.06ZM254.535 161.06V163.06H256.535V161.06H254.535ZM262.275 164.22H229.595V168.22H262.275V164.22ZM227.597 166.306C227.837 171.893 229.259 176.42 232.176 179.54L235.098 176.808C233.083 174.653 231.811 171.211 231.593 166.134L227.597 166.306ZM232.176 179.54C235.033 182.596 238.664 184.13 242.925 184.13V180.13C239.732 180.13 237.171 179.026 235.098 176.808L232.176 179.54ZM242.925 184.13C246.221 184.13 249.151 183.25 251.607 181.408L249.207 178.208C247.534 179.462 245.476 180.13 242.925 180.13V184.13ZM251.586 181.424C254.159 179.546 255.771 176.854 256.49 173.522L252.58 172.678C252.037 175.194 250.897 176.974 249.228 178.192L251.586 181.424ZM254.535 175.1H261.845V171.1H254.535V175.1ZM259.89 172.677C259.066 176.49 257.21 179.524 254.311 181.864L256.823 184.976C260.459 182.042 262.789 178.196 263.8 173.523L259.89 172.677ZM254.314 181.861C251.544 184.087 247.81 185.29 242.925 185.29V189.29C248.474 189.29 253.168 187.913 256.819 184.979L254.314 181.861ZM242.925 185.29C236.618 185.29 232.008 183.308 228.794 179.542L225.751 182.138C229.876 186.972 235.701 189.29 242.925 189.29V185.29ZM228.804 179.554C225.546 175.675 223.855 170.709 223.855 164.5H219.855C219.855 171.478 221.776 177.405 225.741 182.126L228.804 179.554ZM223.855 164.5C223.855 158.283 225.522 153.313 228.728 149.434L225.645 146.886C221.742 151.607 219.855 157.53 219.855 164.5H223.855ZM228.718 149.446C231.882 145.679 236.378 143.71 242.495 143.71V139.71C235.425 139.71 229.715 142.041 225.655 146.874L228.718 149.446ZM242.495 143.71C248.646 143.71 252.924 145.613 255.719 149.143L258.855 146.661C255.114 141.935 249.53 139.71 242.495 139.71V143.71ZM255.729 149.157C258.741 152.896 260.275 157.401 260.275 162.78H264.275C264.275 156.578 262.483 151.164 258.844 146.647L255.729 149.157ZM260.275 162.78V166.22H264.275V162.78H260.275ZM252.56 149.121C249.919 146.277 246.508 144.87 242.495 144.87V148.87C245.476 148.87 247.798 149.871 249.629 151.843L252.56 149.121ZM242.495 144.87C238.497 144.87 235.073 146.236 232.377 148.999L235.24 151.793C237.131 149.855 239.497 148.87 242.495 148.87V144.87ZM232.36 149.018C229.7 151.814 228.258 155.867 227.776 160.868L231.757 161.252C232.193 156.735 233.446 153.679 235.258 151.774L232.36 149.018ZM229.767 163.06H254.535V159.06H229.767V163.06ZM256.535 161.06C256.535 156.063 255.316 151.945 252.526 149.085L249.663 151.879C251.46 153.72 252.535 156.655 252.535 161.06H256.535ZM276.854 186V188H278.854V186H276.854ZM269.544 186H267.544V188H269.544V186ZM269.544 143V141H267.544V143H269.544ZM300.074 143H302.074V141H300.074V143ZM300.074 148.59V150.59H302.074V148.59H300.074ZM276.854 148.59V146.59H274.854V148.59H276.854ZM276.854 184H269.544V188H276.854V184ZM271.544 186V143H267.544V186H271.544ZM269.544 145H300.074V141H269.544V145ZM298.074 143V148.59H302.074V143H298.074ZM300.074 146.59H276.854V150.59H300.074V146.59ZM274.854 148.59V186H278.854V148.59H274.854ZM305.661 198.9V200.9H307.661V198.9H305.661ZM298.351 198.9H296.351V200.9H298.351V198.9ZM298.351 180.41V178.41H296.351V180.41H298.351ZM307.123 174.046L305.249 173.346L305.247 173.353L305.244 173.36L307.123 174.046ZM309.531 143V141H307.531V143H309.531ZM340.921 143H342.921V141H340.921V143ZM340.921 180.41H338.921V182.41H340.921V180.41ZM348.661 180.41H350.661V178.41H348.661V180.41ZM348.661 198.9V200.9H350.661V198.9H348.661ZM341.351 198.9H339.351V200.9H341.351V198.9ZM341.351 186H343.351V184H341.351V186ZM305.661 186V184H303.661V186H305.661ZM310.391 180.41L309.128 178.859L304.767 182.41H310.391V180.41ZM333.611 180.41V182.41H335.611V180.41H333.611ZM333.611 148.59H335.611V146.59H333.611V148.59ZM316.411 148.59V146.59H314.411V148.59H316.411ZM305.661 196.9H298.351V200.9H305.661V196.9ZM300.351 198.9V180.41H296.351V198.9H300.351ZM298.351 182.41H300.071V178.41H298.351V182.41ZM300.071 182.41C302.145 182.41 303.998 181.695 305.539 180.304C307.037 178.951 308.161 177.037 309.002 174.732L305.244 173.36C304.537 175.298 303.711 176.565 302.859 177.334C302.05 178.065 301.15 178.41 300.071 178.41V182.41ZM308.997 174.746C310.736 170.086 311.531 162.724 311.531 152.89H307.531C307.531 162.664 306.72 169.406 305.249 173.346L308.997 174.746ZM311.531 152.89V143H307.531V152.89H311.531ZM309.531 145H340.921V141H309.531V145ZM338.921 143V180.41H342.921V143H338.921ZM340.921 182.41H348.661V178.41H340.921V182.41ZM346.661 180.41V198.9H350.661V180.41H346.661ZM348.661 196.9H341.351V200.9H348.661V196.9ZM343.351 198.9V186H339.351V198.9H343.351ZM341.351 184H305.661V188H341.351V184ZM303.661 186V198.9H307.661V186H303.661ZM314.411 153.75C314.411 160.931 313.912 166.614 312.955 170.853C311.983 175.157 310.609 177.653 309.128 178.859L311.654 181.961C314.186 179.899 315.822 176.318 316.857 171.735C317.906 167.088 318.411 161.075 318.411 153.75H314.411ZM310.391 182.41H333.611V178.41H310.391V182.41ZM335.611 180.41V148.59H331.611V180.41H335.611ZM333.611 146.59H316.411V150.59H333.611V146.59ZM314.411 148.59V153.75H318.411V148.59H314.411ZM382.691 178.69H384.691L380.903 177.796L382.691 178.69ZM380.455 181.7L378.999 180.329L378.977 180.353L378.956 180.377L380.455 181.7ZM377.531 184.28L376.402 182.629L376.381 182.644L376.361 182.659L377.531 184.28ZM373.317 186.344L372.649 184.459L372.649 184.459L373.317 186.344ZM356.547 183.678L355.199 185.155L355.199 185.155L356.547 183.678ZM357.149 164.758L358.392 166.325L358.401 166.318L358.41 166.311L357.149 164.758ZM377.703 160.544L378.153 162.493L378.179 162.487L378.205 162.48L377.703 160.544ZM381.057 158.91L382.472 160.324L382.5 160.296L382.527 160.267L381.057 158.91ZM382.347 156.76L380.45 156.128L380.426 156.2L380.407 156.275L382.347 156.76ZM360.761 155.9V157.9H362.761V155.9H360.761ZM353.451 155.9H351.451V157.9H353.451V155.9ZM358.439 145.236L359.594 146.869L358.439 145.236ZM390.087 178.088L388.1 178.309L388.101 178.322L388.103 178.336L390.087 178.088ZM390.517 179.636L388.661 180.379L388.691 180.456L388.729 180.53L390.517 179.636ZM391.807 180.754L391.233 182.67L391.257 182.677L391.281 182.684L391.807 180.754ZM394.301 180.84H396.301V178.605L394.081 178.852L394.301 180.84ZM394.301 186L394.726 187.954L396.301 187.612V186H394.301ZM384.669 185.14L385.762 183.465L385.762 183.465L384.669 185.14ZM382.691 162.006H384.691L380.903 161.112L382.691 162.006ZM382.347 162.436L380.933 161.022L380.793 161.162L380.683 161.327L382.347 162.436ZM381.315 163.296L382.344 165.011L382.405 164.975L382.462 164.934L381.315 163.296ZM379.251 164.242L378.579 162.359L378.556 162.367L378.534 162.375L379.251 164.242ZM375.897 165.016L375.593 163.039L375.582 163.041L375.897 165.016ZM363.513 167.252L362.511 165.521L362.501 165.527L362.491 165.533L363.513 167.252ZM362.739 179.808L361.325 181.222L361.351 181.247L361.377 181.272L362.739 179.808ZM378.649 178.002L377.206 176.618L377.206 176.618L378.649 178.002ZM380.903 177.796C380.813 177.976 380.662 178.253 380.439 178.644L383.912 180.628C384.148 180.216 384.341 179.863 384.48 179.584L380.903 177.796ZM380.439 178.644C380.346 178.807 379.94 179.329 378.999 180.329L381.912 183.071C382.805 182.121 383.546 181.268 383.912 180.628L380.439 178.644ZM378.956 180.377C378.207 181.225 377.357 181.976 376.402 182.629L378.661 185.931C379.885 185.093 380.984 184.124 381.955 183.023L378.956 180.377ZM376.361 182.659C375.537 183.253 374.324 183.865 372.649 184.459L373.986 188.229C375.865 187.562 377.462 186.797 378.702 185.901L376.361 182.659ZM372.649 184.459C371.099 185.009 369.435 185.29 367.641 185.29V189.29C369.861 189.29 371.981 188.94 373.986 188.229L372.649 184.459ZM367.641 185.29C363.213 185.29 360.057 184.174 357.896 182.201L355.199 185.155C358.313 187.998 362.553 189.29 367.641 189.29V185.29ZM357.896 182.201C355.701 180.197 354.591 177.65 354.591 174.39H350.591C350.591 178.698 352.12 182.343 355.199 185.155L357.896 182.201ZM354.591 174.39C354.591 170.963 355.851 168.339 358.392 166.325L355.907 163.191C352.371 165.993 350.591 169.791 350.591 174.39H354.591ZM358.41 166.311C360.91 164.282 365.27 163.06 371.941 163.06V159.06C364.967 159.06 359.466 160.303 355.889 163.205L358.41 166.311ZM371.941 163.06C374.372 163.06 376.459 162.884 378.153 162.493L377.254 158.595C375.967 158.892 374.212 159.06 371.941 159.06V163.06ZM378.205 162.48C379.9 162.041 381.418 161.378 382.472 160.324L379.643 157.496C379.321 157.818 378.603 158.245 377.202 158.608L378.205 162.48ZM382.527 160.267C383.351 159.374 384.007 158.368 384.288 157.245L380.407 156.275C380.344 156.528 380.14 156.955 379.588 157.553L382.527 160.267ZM384.245 157.392C384.564 156.434 384.691 155.344 384.691 154.18H380.691C380.691 155.08 380.589 155.71 380.45 156.128L384.245 157.392ZM384.691 154.18C384.691 151.177 383.543 148.685 381.129 147.044C378.852 145.496 375.689 144.87 371.941 144.87V148.87C375.361 148.87 377.572 149.463 378.879 150.351C380.048 151.146 380.691 152.309 380.691 154.18H384.691ZM371.941 144.87C367.998 144.87 364.669 145.658 362.3 147.572C359.849 149.551 358.761 152.455 358.761 155.9H362.761C362.761 153.325 363.538 151.714 364.813 150.683C366.17 149.587 368.432 148.87 371.941 148.87V144.87ZM360.761 153.9H353.451V157.9H360.761V153.9ZM355.451 155.9C355.451 151.665 356.894 148.778 359.594 146.869L357.285 143.603C353.335 146.395 351.451 150.617 351.451 155.9H355.451ZM359.594 146.869C362.472 144.835 366.521 143.71 371.941 143.71V139.71C366.01 139.71 361.057 140.936 357.285 143.603L359.594 146.869ZM371.941 143.71C377.754 143.71 381.745 144.861 384.251 146.83C386.665 148.727 388.001 151.624 388.001 155.9H392.001C392.001 150.716 390.328 146.518 386.722 143.685C383.208 140.924 378.169 139.71 371.941 139.71V143.71ZM388.001 155.9V175.68H392.001V155.9H388.001ZM388.001 175.68C388.001 176.781 388.029 177.677 388.1 178.309L392.075 177.867C392.031 177.467 392.001 176.757 392.001 175.68H388.001ZM388.103 178.336C388.187 179.01 388.388 179.696 388.661 180.379L392.374 178.893C392.189 178.429 392.102 178.083 392.072 177.84L388.103 178.336ZM388.729 180.53C389.242 181.558 390.091 182.327 391.233 182.67L392.382 178.838C392.364 178.833 392.358 178.829 392.359 178.83C392.36 178.83 392.363 178.832 392.365 178.834C392.367 178.836 392.363 178.833 392.354 178.821C392.344 178.808 392.327 178.783 392.306 178.742L388.729 180.53ZM391.281 182.684C392.256 182.949 393.37 182.956 394.522 182.828L394.081 178.852C393.169 178.954 392.621 178.903 392.334 178.824L391.281 182.684ZM392.301 180.84V186H396.301V180.84H392.301ZM393.877 184.046C392.688 184.304 391.54 184.43 390.431 184.43V188.43C391.845 188.43 393.278 188.269 394.726 187.954L393.877 184.046ZM390.431 184.43C388.084 184.43 386.614 184.021 385.762 183.465L383.577 186.815C385.362 187.979 387.734 188.43 390.431 188.43V184.43ZM385.762 183.465C385.3 183.163 384.691 182.326 384.691 179.98H380.691C380.691 182.794 381.402 185.397 383.577 186.815L385.762 183.465ZM384.691 179.98V178.69H380.691V179.98H384.691ZM384.691 164.93V162.006H380.691V164.93H384.691ZM380.903 161.112C380.932 161.053 380.958 161.011 380.974 160.988C380.989 160.964 381 160.952 381.001 160.95C381.002 160.948 380.998 160.954 380.986 160.967C380.974 160.98 380.957 160.998 380.933 161.022L383.762 163.85C383.975 163.637 384.276 163.31 384.48 162.9L380.903 161.112ZM380.683 161.327C380.724 161.266 380.758 161.224 380.775 161.204C380.785 161.193 380.792 161.185 380.797 161.18C380.801 161.175 380.804 161.173 380.804 161.172C380.805 161.172 380.798 161.178 380.784 161.191C380.77 161.204 380.75 161.221 380.723 161.244C380.611 161.337 380.432 161.473 380.169 161.658L382.462 164.934C382.773 164.717 383.052 164.51 383.284 164.316C383.473 164.159 383.782 163.889 384.012 163.545L380.683 161.327ZM380.287 161.581C379.852 161.842 379.289 162.105 378.579 162.359L379.924 166.125C380.819 165.806 381.632 165.438 382.344 165.011L380.287 161.581ZM378.534 162.375C377.992 162.584 377.044 162.816 375.593 163.039L376.202 166.993C377.733 166.757 379.02 166.474 379.969 166.109L378.534 162.375ZM375.582 163.041C374.273 163.251 372.776 163.36 371.081 163.36V167.36C372.942 167.36 374.656 167.24 376.213 166.991L375.582 163.041ZM371.081 163.36C367.913 163.36 365.035 164.06 362.511 165.521L364.516 168.983C366.349 167.921 368.517 167.36 371.081 167.36V163.36ZM362.491 165.533C359.642 167.227 358.331 170.054 358.331 173.53H362.331C362.331 171.158 363.142 169.8 364.536 168.971L362.491 165.533ZM358.331 173.53C358.331 176.562 359.293 179.19 361.325 181.222L364.154 178.394C362.976 177.216 362.331 175.658 362.331 173.53H358.331ZM361.377 181.272C363.485 183.234 366.217 184.13 369.361 184.13V180.13C367.002 180.13 365.32 179.478 364.102 178.344L361.377 181.272ZM369.361 184.13C373.504 184.13 377.109 182.5 380.093 179.386L377.206 176.618C374.915 179.008 372.329 180.13 369.361 180.13V184.13ZM380.093 179.386C383.292 176.052 384.691 171.091 384.691 164.93H380.691C380.691 170.58 379.397 174.334 377.206 176.618L380.093 179.386ZM430.322 153.062L428.81 151.753L428.802 151.762L428.795 151.77L430.322 153.062ZM430.236 177.916L428.72 179.22L428.734 179.236L428.748 179.252L430.236 177.916ZM449.414 177.916L447.913 176.595L447.911 176.597L449.414 177.916ZM449.414 152.89L447.898 154.194L447.912 154.21L447.926 154.226L449.414 152.89ZM458.358 125.8H460.358V123.8H458.358V125.8ZM458.1 129.326L460.07 129.674L460.071 129.664L460.073 129.655L458.1 129.326ZM456.896 132.766L455.092 131.903L455.076 131.936L455.062 131.969L456.896 132.766ZM453.714 135.862L452.846 134.06L452.833 134.066L452.82 134.073L453.714 135.862ZM424.388 155.9L422.392 155.773L422.257 157.9H424.388V155.9ZM424.818 155.9V157.9H426.512L426.791 156.229L424.818 155.9ZM425.162 154.61L423.305 153.867L423.283 153.922L423.265 153.978L425.162 154.61ZM426.71 151.6L428.455 152.577L428.455 152.577L426.71 151.6ZM429.548 147.816L430.962 149.23L430.98 149.212L430.998 149.193L429.548 147.816ZM434.106 144.806L434.913 146.636L434.926 146.63L434.938 146.625L434.106 144.806ZM455.778 149.794L454.214 151.041L454.219 151.047L454.225 151.054L455.778 149.794ZM455.434 181.012L453.921 179.704L453.92 179.705L455.434 181.012ZM424.044 180.496L425.627 179.274L425.627 179.274L424.044 180.496ZM452.596 129.24L453.61 130.964L453.647 130.942L453.683 130.919L452.596 129.24ZM454.058 125.8V123.8H452.058V125.8H454.058ZM439.868 146.59C435.476 146.59 431.751 148.354 428.81 151.753L431.834 154.371C434.053 151.807 436.692 150.59 439.868 150.59V146.59ZM428.795 151.77C425.878 155.218 424.538 159.83 424.538 165.36H428.538C428.538 160.456 429.721 156.868 431.849 154.354L428.795 151.77ZM424.538 165.36C424.538 171.129 425.827 175.856 428.72 179.22L431.752 176.612C429.715 174.242 428.538 170.599 428.538 165.36H424.538ZM428.748 179.252C431.664 182.499 435.423 184.13 439.868 184.13V180.13C436.516 180.13 433.854 178.951 431.724 176.58L428.748 179.252ZM439.868 184.13C444.314 184.13 448.054 182.498 450.917 179.235L447.911 176.597C445.843 178.953 443.219 180.13 439.868 180.13V184.13ZM450.915 179.237C453.876 175.873 455.198 171.139 455.198 165.36H451.198C451.198 170.589 449.997 174.226 447.913 176.595L450.915 179.237ZM455.198 165.36C455.198 159.585 453.878 154.867 450.902 151.554L447.926 154.226C449.996 156.531 451.198 160.127 451.198 165.36H455.198ZM450.93 151.586C448.072 148.262 444.329 146.59 439.868 146.59V150.59C443.205 150.59 445.826 151.785 447.898 154.194L450.93 151.586ZM456.358 125.8C456.358 127.035 456.277 128.098 456.127 128.997L460.073 129.655C460.267 128.49 460.358 127.202 460.358 125.8H456.358ZM456.131 128.978C456.001 129.712 455.678 130.678 455.092 131.903L458.7 133.629C459.376 132.217 459.855 130.89 460.07 129.674L456.131 128.978ZM455.062 131.969C454.716 132.765 454.051 133.48 452.846 134.06L454.582 137.664C456.474 136.753 457.93 135.404 458.73 133.563L455.062 131.969ZM452.82 134.073C451.691 134.637 450.131 134.98 448.038 134.98V138.98C450.532 138.98 452.756 138.577 454.608 137.651L452.82 134.073ZM448.038 134.98H440.728V138.98H448.038V134.98ZM440.728 134.98C435.236 134.98 430.744 136.717 427.561 140.403C424.439 144.018 422.808 149.244 422.392 155.773L426.384 156.027C426.771 149.943 428.264 145.709 430.589 143.017C432.853 140.396 436.13 138.98 440.728 138.98V134.98ZM424.388 157.9H424.818V153.9H424.388V157.9ZM426.791 156.229C426.824 156.028 426.904 155.708 427.059 155.242L423.265 153.978C423.076 154.544 422.927 155.084 422.845 155.571L426.791 156.229ZM427.019 155.353C427.194 154.917 427.648 154.019 428.455 152.577L424.965 150.623C424.167 152.047 423.589 153.157 423.305 153.867L427.019 155.353ZM428.455 152.577C429.174 151.293 430.011 150.181 430.962 149.23L428.134 146.402C426.906 147.629 425.851 149.04 424.965 150.623L428.455 152.577ZM430.998 149.193C431.854 148.293 433.127 147.424 434.913 146.636L433.299 142.976C431.187 143.908 429.421 145.046 428.098 146.438L430.998 149.193ZM434.938 146.625C436.66 145.837 438.58 145.43 440.728 145.43V141.43C438.06 141.43 435.565 141.94 433.275 142.987L434.938 146.625ZM440.728 145.43C446.922 145.43 451.297 147.381 454.214 151.041L457.342 148.547C453.494 143.721 447.836 141.43 440.728 141.43V145.43ZM454.225 151.054C457.34 154.896 458.938 159.624 458.938 165.36H462.938C462.938 158.827 461.096 153.177 457.332 148.534L454.225 151.054ZM458.938 165.36C458.938 171.125 457.243 175.863 453.921 179.704L456.947 182.32C460.964 177.676 462.938 171.979 462.938 165.36H458.938ZM453.92 179.705C450.772 183.353 446.194 185.29 439.868 185.29V189.29C447.073 189.29 452.873 187.041 456.948 182.319L453.92 179.705ZM439.868 185.29C433.276 185.29 428.658 183.199 425.627 179.274L422.461 181.718C426.425 186.852 432.356 189.29 439.868 189.29V185.29ZM425.627 179.274C422.485 175.204 420.798 169.495 420.798 161.92H416.798C416.798 170.054 418.608 176.729 422.461 181.718L425.627 179.274ZM420.798 161.92C420.798 151.514 422.812 144.077 426.51 139.275C430.132 134.573 435.606 132.1 443.308 132.1V128.1C434.67 128.1 427.889 130.93 423.341 136.835C418.87 142.64 416.798 151.112 416.798 161.92H420.798ZM443.308 132.1H448.038V128.1H443.308V132.1ZM448.038 132.1C450.208 132.1 452.167 131.813 453.61 130.964L451.582 127.516C451.076 127.814 449.997 128.1 448.038 128.1V132.1ZM453.683 130.919C455.45 129.775 456.058 127.823 456.058 125.8H452.058C452.058 127.102 451.691 127.443 451.51 127.561L453.683 130.919ZM454.058 127.8H458.358V123.8H454.058V127.8ZM475.561 160.63H473.561V162.63H475.561V160.63ZM468.251 186H466.251V188H468.251V186ZM468.251 143V141H466.251V143H468.251ZM475.561 143H477.561V141H475.561V143ZM475.561 166.22V164.22H473.561V166.22H475.561ZM475.561 180.41H473.561V182.41H475.561V180.41ZM491.987 178.862L493.042 180.561L493.063 180.548L493.083 180.535L491.987 178.862ZM513.831 186V188H515.831V186H513.831ZM506.521 186H504.521V188H506.521V186ZM506.521 143V141H504.521V143H506.521ZM513.831 143H515.831V141H513.831V143ZM475.561 162.63H485.451V158.63H475.561V162.63ZM485.451 162.63C490.852 162.63 494.538 163.644 496.835 165.352C499.022 166.978 500.221 169.438 500.221 173.1H504.221C504.221 168.449 502.626 164.674 499.222 162.143C495.93 159.694 491.231 158.63 485.451 158.63V162.63ZM500.221 173.1C500.221 176.931 499.003 179.502 496.809 181.19C494.516 182.954 490.841 184 485.451 184V188C491.242 188 495.952 186.896 499.248 184.36C502.644 181.748 504.221 177.869 504.221 173.1H500.221ZM485.451 184H468.251V188H485.451V184ZM470.251 186V143H466.251V186H470.251ZM468.251 145H475.561V141H468.251V145ZM473.561 143V160.63H477.561V143H473.561ZM485.021 164.22H475.561V168.22H485.021V164.22ZM473.561 166.22V180.41H477.561V166.22H473.561ZM475.561 182.41H485.021V178.41H475.561V182.41ZM485.021 182.41C488.195 182.41 490.938 181.867 493.042 180.561L490.933 177.163C489.711 177.921 487.811 178.41 485.021 178.41V182.41ZM493.083 180.535C495.513 178.943 496.481 176.242 496.481 173.1H492.481C492.481 175.462 491.788 176.602 490.891 177.189L493.083 180.535ZM496.481 173.1C496.481 170.295 495.483 167.915 493.293 166.323C491.221 164.816 488.358 164.22 485.021 164.22V168.22C487.992 168.22 489.858 168.771 490.94 169.557C491.903 170.258 492.481 171.318 492.481 173.1H496.481ZM513.831 184H506.521V188H513.831V184ZM508.521 186V143H504.521V186H508.521ZM506.521 145H513.831V141H506.521V145ZM511.831 143V186H515.831V143H511.831ZM561.098 143H563.098V141H561.098V143ZM561.098 186V188H563.098V186H561.098ZM553.788 186H551.788V188H553.788V186ZM553.788 148.59H555.788V146.59H553.788V148.59ZM536.588 148.59V146.59H534.588V148.59H536.588ZM533.406 179.98L531.608 179.105L531.603 179.115L533.406 179.98ZM522.828 186.43L522.58 188.415L522.703 188.43H522.828V186.43ZM519.388 186H517.388V187.766L519.14 187.985L519.388 186ZM519.388 179.98L519.937 178.057L517.388 177.329V179.98H519.388ZM524.634 179.378L523.698 177.61L523.698 177.61L524.634 179.378ZM527.3 176.282L525.551 175.311L525.537 175.336L525.524 175.361L527.3 176.282ZM529.106 169.316L527.122 169.063L527.12 169.079L527.118 169.095L529.106 169.316ZM529.708 143V141H527.708V143H529.708ZM559.098 143V186H563.098V143H559.098ZM561.098 184H553.788V188H561.098V184ZM555.788 186V148.59H551.788V186H555.788ZM553.788 146.59H536.588V150.59H553.788V146.59ZM534.588 148.59V158.05H538.588V148.59H534.588ZM534.588 158.05C534.588 168.275 533.515 175.186 531.608 179.105L535.204 180.855C537.539 176.059 538.588 168.35 538.588 158.05H534.588ZM531.603 179.115C530.711 180.971 529.556 182.266 528.172 183.11C526.782 183.957 525.031 184.43 522.828 184.43V188.43C525.612 188.43 528.118 187.828 530.254 186.525C532.396 185.219 534.036 183.289 535.209 180.845L531.603 179.115ZM523.076 184.445L519.636 184.015L519.14 187.985L522.58 188.415L523.076 184.445ZM521.388 186V179.98H517.388V186H521.388ZM518.838 181.903C519.471 182.084 520.155 182.152 520.85 182.152V178.152C520.398 178.152 520.107 178.106 519.937 178.057L518.838 181.903ZM520.85 182.152C522.6 182.152 524.214 181.863 525.57 181.146L523.698 177.61C523.104 177.925 522.196 178.152 520.85 178.152V182.152ZM525.57 181.146C527.057 180.358 528.186 178.918 529.075 177.203L525.524 175.361C524.808 176.742 524.159 177.366 523.698 177.61L525.57 181.146ZM529.048 177.253C530.1 175.36 530.739 172.727 531.094 169.537L527.118 169.095C526.784 172.097 526.22 174.108 525.551 175.311L529.048 177.253ZM531.09 169.569C531.506 166.299 531.708 162.165 531.708 157.19H527.708C527.708 162.077 527.508 166.026 527.122 169.063L531.09 169.569ZM531.708 157.19V143H527.708V157.19H531.708ZM529.708 145H561.098V141H529.708V145ZM595.978 186V188H597.978V186H595.978ZM588.668 186H586.668V188H588.668V186ZM588.668 143V141H586.668V143H588.668ZM619.198 143H621.198V141H619.198V143ZM619.198 148.59V150.59H621.198V148.59H619.198ZM595.978 148.59V146.59H593.978V148.59H595.978ZM595.978 184H588.668V188H595.978V184ZM590.668 186V143H586.668V186H590.668ZM588.668 145H619.198V141H588.668V145ZM617.198 143V148.59H621.198V143H617.198ZM619.198 146.59H595.978V150.59H619.198V146.59ZM593.978 148.59V186H597.978V148.59H593.978ZM626.786 180.84L625.255 182.126L625.26 182.132L625.265 182.138L626.786 180.84ZM626.786 148.16L625.265 146.862L625.26 146.868L625.255 146.874L626.786 148.16ZM658.004 148.16L656.473 149.446L656.478 149.452L656.483 149.458L658.004 148.16ZM658.004 180.84L656.483 179.542L656.478 179.548L656.473 179.554L658.004 180.84ZM632.806 151.256L634.335 152.545L634.335 152.545L632.806 151.256ZM632.806 177.744L634.335 176.455L634.335 176.455L632.806 177.744ZM652.07 177.744L653.599 179.033L653.599 179.033L652.07 177.744ZM652.07 151.256L653.599 149.967L653.599 149.967L652.07 151.256ZM628.318 179.554C625.06 175.675 623.368 170.709 623.368 164.5H619.368C619.368 171.478 621.289 177.405 625.255 182.126L628.318 179.554ZM623.368 164.5C623.368 158.291 625.06 153.325 628.318 149.446L625.255 146.874C621.289 151.595 619.368 157.522 619.368 164.5H623.368ZM628.308 149.458C631.522 145.692 636.132 143.71 642.438 143.71V139.71C635.214 139.71 629.39 142.028 625.265 146.862L628.308 149.458ZM642.438 143.71C648.746 143.71 653.319 145.692 656.473 149.446L659.536 146.874C655.466 142.028 649.661 139.71 642.438 139.71V143.71ZM656.483 149.458C659.793 153.337 661.508 158.299 661.508 164.5H665.508C665.508 157.514 663.554 151.583 659.526 146.862L656.483 149.458ZM661.508 164.5C661.508 170.701 659.793 175.663 656.483 179.542L659.526 182.138C663.554 177.417 665.508 171.486 665.508 164.5H661.508ZM656.473 179.554C653.319 183.308 648.746 185.29 642.438 185.29V189.29C649.661 189.29 655.466 186.972 659.536 182.126L656.473 179.554ZM642.438 185.29C636.132 185.29 631.522 183.308 628.308 179.542L625.265 182.138C629.39 186.972 635.214 189.29 642.438 189.29V185.29ZM631.277 149.967C628.381 153.403 627.108 158.368 627.108 164.5H631.108C631.108 158.822 632.302 154.957 634.335 152.545L631.277 149.967ZM627.108 164.5C627.108 170.632 628.381 175.597 631.277 179.033L634.335 176.455C632.302 174.043 631.108 170.178 631.108 164.5H627.108ZM631.277 179.033C634.137 182.425 637.916 184.13 642.438 184.13V180.13C639.049 180.13 636.406 178.911 634.335 176.455L631.277 179.033ZM642.438 184.13C646.961 184.13 650.739 182.425 653.599 179.033L650.541 176.455C648.471 178.911 645.828 180.13 642.438 180.13V184.13ZM653.599 179.033C656.496 175.597 657.768 170.632 657.768 164.5H653.768C653.768 170.178 652.575 174.043 650.541 176.455L653.599 179.033ZM657.768 164.5C657.768 158.368 656.496 153.403 653.599 149.967L650.541 152.545C652.575 154.957 653.768 158.822 653.768 164.5H657.768ZM653.599 149.967C650.739 146.575 646.961 144.87 642.438 144.87V148.87C645.828 148.87 648.471 150.089 650.541 152.545L653.599 149.967ZM642.438 144.87C637.916 144.87 634.137 146.575 631.277 149.967L634.335 152.545C636.406 150.089 639.049 148.87 642.438 148.87V144.87ZM689.298 186V188H691.298V186H689.298ZM681.988 186H679.988V188H681.988V186ZM681.988 148.59H683.988V146.59H681.988V148.59ZM666.078 148.59H664.078V150.59H666.078V148.59ZM666.078 143V141H664.078V143H666.078ZM705.208 143H707.208V141H705.208V143ZM705.208 148.59V150.59H707.208V148.59H705.208ZM689.298 148.59V146.59H687.298V148.59H689.298ZM689.298 184H681.988V188H689.298V184ZM683.988 186V148.59H679.988V186H683.988ZM681.988 146.59H666.078V150.59H681.988V146.59ZM668.078 148.59V143H664.078V148.59H668.078ZM666.078 145H705.208V141H666.078V145ZM703.208 143V148.59H707.208V143H703.208ZM705.208 146.59H689.298V150.59H705.208V146.59ZM687.298 148.59V186H691.298V148.59H687.298ZM713.223 180.84L711.692 182.126L711.697 182.132L711.702 182.138L713.223 180.84ZM713.223 148.16L711.702 146.862L711.697 146.868L711.692 146.874L713.223 148.16ZM744.441 148.16L742.91 149.446L742.915 149.452L742.92 149.458L744.441 148.16ZM744.441 180.84L742.92 179.542L742.915 179.548L742.91 179.554L744.441 180.84ZM719.243 151.256L720.772 152.545L720.772 152.545L719.243 151.256ZM719.243 177.744L720.772 176.455L720.772 176.455L719.243 177.744ZM738.507 177.744L740.036 179.033L740.036 179.033L738.507 177.744ZM738.507 151.256L740.036 149.967L740.036 149.967L738.507 151.256ZM714.754 179.554C711.496 175.675 709.805 170.709 709.805 164.5H705.805C705.805 171.478 707.726 177.405 711.692 182.126L714.754 179.554ZM709.805 164.5C709.805 158.291 711.496 153.325 714.754 149.446L711.692 146.874C707.726 151.595 705.805 157.522 705.805 164.5H709.805ZM714.744 149.458C717.959 145.692 722.568 143.71 728.875 143.71V139.71C721.651 139.71 715.826 142.028 711.702 146.862L714.744 149.458ZM728.875 143.71C735.183 143.71 739.756 145.692 742.91 149.446L745.972 146.874C741.902 142.028 736.098 139.71 728.875 139.71V143.71ZM742.92 149.458C746.23 153.337 747.945 158.299 747.945 164.5H751.945C751.945 157.514 749.991 151.583 745.962 146.862L742.92 149.458ZM747.945 164.5C747.945 170.701 746.23 175.663 742.92 179.542L745.962 182.138C749.991 177.417 751.945 171.486 751.945 164.5H747.945ZM742.91 179.554C739.756 183.308 735.183 185.29 728.875 185.29V189.29C736.098 189.29 741.902 186.972 745.972 182.126L742.91 179.554ZM728.875 185.29C722.568 185.29 717.959 183.308 714.744 179.542L711.702 182.138C715.826 186.972 721.651 189.29 728.875 189.29V185.29ZM717.714 149.967C714.817 153.403 713.545 158.368 713.545 164.5H717.545C717.545 158.822 718.738 154.957 720.772 152.545L717.714 149.967ZM713.545 164.5C713.545 170.632 714.817 175.597 717.714 179.033L720.772 176.455C718.738 174.043 717.545 170.178 717.545 164.5H713.545ZM717.714 179.033C720.574 182.425 724.353 184.13 728.875 184.13V180.13C725.485 180.13 722.843 178.911 720.772 176.455L717.714 179.033ZM728.875 184.13C733.397 184.13 737.176 182.425 740.036 179.033L736.978 176.455C734.907 178.911 732.265 180.13 728.875 180.13V184.13ZM740.036 179.033C742.933 175.597 744.205 170.632 744.205 164.5H740.205C740.205 170.178 739.012 174.043 736.978 176.455L740.036 179.033ZM744.205 164.5C744.205 158.368 742.933 153.403 740.036 149.967L736.978 152.545C739.012 154.957 740.205 158.822 740.205 164.5H744.205ZM740.036 149.967C737.176 146.575 733.397 144.87 728.875 144.87V148.87C732.265 148.87 734.907 150.089 736.978 152.545L740.036 149.967ZM728.875 144.87C724.353 144.87 720.574 146.575 717.714 149.967L720.772 152.545C722.843 150.089 725.485 148.87 728.875 148.87V144.87ZM764.568 166.22V164.22H762.568V166.22H764.568ZM764.568 180.41H762.568V182.41H764.568V180.41ZM784.434 178.862L785.489 180.561L785.51 180.548L785.53 180.535L784.434 178.862ZM764.568 161.06H762.568V163.06H764.568V161.06ZM764.568 148.59V146.59H762.568V148.59H764.568ZM757.258 186H755.258V188H757.258V186ZM757.258 143V141H755.258V143H757.258ZM788.562 145.494L787.559 147.224L787.579 147.236L787.6 147.247L788.562 145.494ZM790.884 159.34L792.379 160.669L792.391 160.655L792.403 160.642L790.884 159.34ZM786.756 162.264L787.261 164.199L787.289 164.192L787.316 164.184L786.756 162.264ZM784.778 162.78L784.274 160.845L782.778 161.235V162.78H784.778ZM784.778 163.21H782.778V164.85L784.386 165.171L784.778 163.21ZM785.81 163.468L785.261 165.391L785.409 165.433L785.562 165.453L785.81 163.468ZM788.218 164.242L788.961 162.385L788.961 162.385L788.218 164.242ZM791.228 165.962L789.979 167.524L789.979 167.524L791.228 165.962ZM793.55 169.058L791.762 169.952L791.784 169.998L791.809 170.042L793.55 169.058ZM790.024 183.076L788.959 181.384L788.959 181.384L790.024 183.076ZM777.468 164.22H764.568V168.22H777.468V164.22ZM762.568 166.22V180.41H766.568V166.22H762.568ZM764.568 182.41H777.468V178.41H764.568V182.41ZM777.468 182.41C780.642 182.41 783.385 181.867 785.489 180.561L783.38 177.163C782.158 177.921 780.258 178.41 777.468 178.41V182.41ZM785.53 180.535C787.96 178.943 788.928 176.242 788.928 173.1H784.928C784.928 175.462 784.235 176.602 783.338 177.189L785.53 180.535ZM788.928 173.1C788.928 170.295 787.93 167.915 785.74 166.323C783.668 164.816 780.805 164.22 777.468 164.22V168.22C780.439 168.22 782.305 168.771 783.387 169.557C784.351 170.258 784.928 171.318 784.928 173.1H788.928ZM764.568 163.06H776.178V159.06H764.568V163.06ZM776.178 163.06C779.497 163.06 782.338 162.506 784.4 161.1C786.599 159.601 787.638 157.324 787.638 154.61H783.638C783.638 156.196 783.101 157.144 782.147 157.795C781.055 158.539 779.167 159.06 776.178 159.06V163.06ZM787.638 154.61C787.638 152.061 786.688 149.893 784.635 148.457C782.713 147.111 780.077 146.59 777.038 146.59V150.59C779.733 150.59 781.397 151.073 782.341 151.733C783.155 152.303 783.638 153.145 783.638 154.61H787.638ZM777.038 146.59H764.568V150.59H777.038V146.59ZM762.568 148.59V161.06H766.568V148.59H762.568ZM759.258 186V143H755.258V186H759.258ZM757.258 145H777.468V141H757.258V145ZM777.468 145C781.769 145 785.089 145.791 787.559 147.224L789.566 143.764C786.303 141.871 782.226 141 777.468 141V145ZM787.6 147.247C788.773 147.891 789.58 148.691 790.107 149.632C790.639 150.582 790.948 151.785 790.948 153.32H794.948C794.948 151.243 794.527 149.336 793.597 147.677C792.662 146.009 791.276 144.702 789.525 143.741L787.6 147.247ZM790.948 153.32C790.948 155.321 790.388 156.846 789.366 158.038L792.403 160.642C794.133 158.624 794.948 156.135 794.948 153.32H790.948ZM789.39 158.011C788.158 159.397 787.085 160.085 786.196 160.344L787.316 164.184C789.18 163.64 790.859 162.379 792.379 160.669L789.39 158.011ZM786.252 160.329L784.274 160.845L785.283 164.715L787.261 164.199L786.252 160.329ZM782.778 162.78V163.21H786.778V162.78H782.778ZM784.386 165.171C784.603 165.215 784.892 165.286 785.261 165.391L786.36 161.545C785.927 161.421 785.527 161.32 785.171 161.249L784.386 165.171ZM785.562 165.453C785.731 165.474 786.308 165.632 787.476 166.099L788.961 162.385C787.835 161.935 786.807 161.577 786.058 161.483L785.562 165.453ZM787.476 166.099C788.462 166.493 789.29 166.972 789.979 167.524L792.478 164.4C791.447 163.576 790.268 162.908 788.961 162.385L787.476 166.099ZM789.979 167.524C790.542 167.974 791.155 168.739 791.762 169.952L795.339 168.164C794.57 166.625 793.635 165.326 792.478 164.4L789.979 167.524ZM791.809 170.042C792.369 171.032 792.668 172.178 792.668 173.53H796.668C796.668 171.557 796.223 169.721 795.292 168.074L791.809 170.042ZM792.668 173.53C792.668 177.422 791.346 179.88 788.959 181.384L791.09 184.768C794.894 182.373 796.668 178.467 796.668 173.53H792.668ZM788.959 181.384C786.278 183.071 782.642 184 777.898 184V188C783.131 188 787.579 186.979 791.09 184.768L788.959 181.384ZM777.898 184H757.258V188H777.898V184Z" fill="#231F1C"/>
</g>
<defs>
<clipPath id="clip0_2001_1885">
<rect width="807" height="235" fill="white"/>
</clipPath>
</defs>
</svg>
