<svg width="266" height="119" viewBox="0 0 266 119" fill="none" xmlns="http://www.w3.org/2000/svg">
<path fill-rule="evenodd" clip-rule="evenodd" d="M71.2737 34.4707L69.9593 36.6733L50.06 70.0048H74.1859L71.4035 36.054L71.2737 34.4707ZM67.4204 51.0735L59.2153 64.8137H68.5448L67.4204 51.0735Z" fill="#231F1C"/>
<path d="M97.7406 25.7908C97.8361 25.8329 97.9282 25.8783 98.018 25.926C98.0096 25.922 98.0011 25.9179 97.9927 25.9137C97.9741 25.9046 97.9554 25.8952 97.9366 25.8857L97.8958 25.8652C97.8486 25.8415 97.8006 25.8177 97.7518 25.7958L97.7406 25.7908Z" fill="#231F1C"/>
<path fill-rule="evenodd" clip-rule="evenodd" d="M265.506 18.3198C265.415 11.5355 259.507 6.7265 252.409 4.04623C245.219 1.32958 236.49 0.0184415 224.48 0.000247086C200.405 -0.0384161 169.997 4.45902 133.894 14.4148C130.595 15.3245 127.324 16.26 124.083 17.2213H89.1075L86.3843 26.7518L85.3851 17.086H72.5483L57.4139 42.3558C51.5736 45.1338 46.0804 47.9494 40.9889 50.7707C29.0398 57.3969 19.0253 64.2118 11.9184 70.871C5.04595 77.3084 0.184358 84.2894 0.0170704 90.9611H0C0 91.041 0.00393637 91.1238 0.00785614 91.2062C0.00951256 91.241 0.011166 91.2757 0.0125182 91.3102V91.4353C0.467723 102.628 7.76352 109.764 15.7478 113.305C24.0098 116.969 31.0143 118.877 43.8397 118.666C69.6122 118.243 102.659 111.871 140.472 98.2696L140.225 86.2965L139.954 75.6653C134.425 77.6537 128.976 79.5987 123.604 81.5L142.472 51.0857C142.266 52.4307 142.158 53.7891 142.15 55.1499C142.15 60.5832 144.044 65.2444 148.34 68.2772C152.265 71.0484 157.422 71.8797 162.74 71.8797C166.902 71.8797 171.368 71.1746 176.109 69.843L171.443 87.478V87.4882C171.287 88.1199 171.078 88.7373 170.818 89.3338H170.452L160.806 90.0605L157.086 103.069L205.596 103.093C205.892 103.118 206.194 103.131 206.5 103.131C212.835 103.131 217.425 97.8579 217.425 92.0118C217.425 86.2521 213.018 80.7904 206.714 80.7904C201.124 80.7904 197.354 84.8716 196.245 89.4202L193.253 89.3702L208.537 32.483C208.703 31.8126 208.922 31.1566 209.193 30.5214H210.982C210.536 31.886 210.149 33.312 209.812 34.7835L209.806 34.8062V34.829C209.01 38.4678 208.727 40.9957 208.397 43.9637L208.367 44.24L208.366 44.2468C208.286 44.9622 208.203 45.7044 208.107 46.5087C207.797 49.1112 207.41 51.9119 206.985 54.9915L206.978 55.0373L206.968 55.1135L206.866 55.854C206.63 57.5625 206.385 59.3426 206.14 61.1973C205.419 66.6453 204.719 70.7948 203.954 73.955L202.394 80.3742H215.874L216.859 76.4385C218.099 71.4737 220.24 65.797 223.345 59.4949L223.359 59.4654C224.321 57.4803 225.196 55.7036 226.017 54.0369L226.221 53.6227L226.261 53.5442L226.295 53.4742C228.079 49.8546 229.639 46.6887 231.268 43.0744L231.284 43.0403C233.857 37.2238 235.267 31.8132 235.267 26.8075C235.267 23.8679 234.057 21.3094 232.028 19.5536C230.094 17.8808 227.667 17.1428 225.388 17.1428C224.852 17.1424 224.317 17.1758 223.786 17.2429L182.92 17.1599L181.84 20.9352L180.994 23.8361L179.131 30.3486L186.759 30.4759L180.273 54.7541C174.598 56.602 170.961 57.3321 169.083 57.3321C166.16 57.3321 165.044 56.7931 164.714 56.5361L164.708 56.5325C164.647 56.4928 164.195 56.1981 164.195 54.4198C164.195 52.9859 164.488 51.0925 165.158 48.609V48.601L169.523 32.5023L169.533 32.466L169.542 32.4284C169.698 31.7791 169.9 31.1418 170.147 30.5214H170.297L176.83 30.4407L180.622 17.1792L155.018 17.211C182.26 10.6815 207.001 6.8061 225.273 6.83453C226.912 6.83713 228.463 6.82693 229.941 6.8172C238.805 6.75889 245.066 6.7177 252.244 9.55574C257.041 11.4536 261.728 14.433 261.844 19.4171H261.858C261.858 25.7124 259.387 32.5319 253.462 39.7597C247.47 47.0693 238.702 54.5631 227.749 61.7692L228.832 64.1709C239.984 56.8317 249.11 49.0786 255.45 41.3437C261.79 33.6088 265.563 25.7556 265.514 18.3812V18.322L265.506 18.3198ZM206.704 85.9963C209.72 85.9963 212.215 88.697 212.215 92.0232C212.215 95.2447 209.72 97.9466 206.496 97.9466C203.48 97.9466 201.088 95.4528 201.088 92.2313C201.088 88.9051 203.48 85.9963 206.704 85.9963ZM125.862 30.5226L127.601 24.4433C129.708 23.8369 131.83 23.2376 133.966 22.6455L135.515 22.2202L133.141 30.5226H139.122L123.617 56.2563L118.302 30.5226H125.862ZM19.2017 98.3583C18.9976 98.2824 18.8007 98.201 18.6111 98.1138C12.888 95.5768 10.0623 91.5717 9.95306 87.5496C9.91763 87.5789 9.87953 87.6048 9.83926 87.627C9.89502 83.1818 11.7272 80.1945 17.2841 74.9886C23.2018 69.4462 32.5893 64.122 44.0047 57.7938C45.9848 56.6953 48.0332 55.596 50.1499 54.496L32.1921 84.4827L32.175 84.51L32.1591 84.5373C30.575 87.2585 29.594 88.3559 28.9545 88.8392C28.5744 89.1257 28.1761 89.3327 26.9823 89.3327H21.4584L19.2017 98.3583ZM60.2783 99.5807C56.505 100.169 52.7013 100.542 48.8856 100.699L51.7284 89.3361H44.5782L51.1468 78.3216H69.7989L70.6046 88.4571H63.096L60.2783 99.5807ZM100.879 86.773L100.875 86.798C100.873 86.8076 100.872 86.8188 100.87 86.831L100.86 86.9123C100.857 86.9362 100.853 86.9603 100.85 86.9822C100.839 87.0436 100.836 87.0743 100.828 87.1198C100.825 87.1342 100.822 87.1509 100.819 87.1689C100.811 87.2078 100.802 87.253 100.794 87.2949L100.788 87.3219C100.786 87.335 100.783 87.3479 100.78 87.3608C100.778 87.3727 100.775 87.3845 100.772 87.3961L100.762 87.4416C100.754 87.4791 100.744 87.5178 100.735 87.5553C100.726 87.5928 100.715 87.6315 100.705 87.669L100.694 87.7096L100.685 87.7449C100.671 87.7954 100.656 87.8459 100.64 87.8965V87.9078C100.62 87.9749 100.597 88.042 100.574 88.108L100.564 88.1375C100.556 88.1595 100.548 88.1815 100.54 88.2035C100.532 88.2254 100.524 88.2474 100.515 88.2693C100.507 88.2913 100.499 88.3134 100.49 88.3354L100.489 88.3368C100.464 88.402 100.44 88.4622 100.413 88.5242C100.4 88.5537 100.386 88.5844 100.373 88.614L100.362 88.6387C100.308 88.7598 100.254 88.8789 100.186 88.9949C100.169 89.0281 100.151 89.0621 100.133 89.0952L100.121 89.1175C100.112 89.1323 100.104 89.1468 100.095 89.161L100.083 89.1837C100.066 89.2127 100.049 89.24 100.032 89.2678L100.011 89.3015C100.004 89.3136 99.9966 89.3258 99.9892 89.3384C99.9847 89.3462 99.9801 89.3541 99.9756 89.3622C99.9506 89.402 99.9254 89.4419 99.8993 89.476C99.8828 89.4975 99.8749 89.5113 99.8673 89.5246L99.861 89.5354C99.8585 89.5396 99.8558 89.544 99.8527 89.5487C89.4501 92.8761 79.6222 95.6814 70.5966 97.6521L66.1345 97.6441L67.1462 93.6493H72.2809C75.0793 93.6493 75.9578 93.6493 75.9578 90.8917C75.9578 90.7577 75.9382 90.4318 75.9163 90.0675L75.9111 89.982C75.8975 89.7546 75.8838 89.5169 75.8725 89.3099C75.8611 89.103 75.8542 88.9233 75.8542 88.8119L74.6024 73.1192H48.188L39.7667 87.2517C38.4148 89.6397 37.6876 91.3034 37.6876 92.4462C37.6876 93.7971 38.623 94.5249 40.5986 94.5249H45.071L44.3415 97.4338H24.7905L25.5177 94.5249H26.9743C31.0291 94.5249 33.3176 92.8624 36.6474 87.1471L75.5003 22.2828H80.6999L87.3163 86.2556C87.7146 83.2262 89.8916 80.5152 92.789 79.8875C93.7382 79.6139 94.738 79.5646 95.7096 79.7434C96.6811 79.9222 97.5978 80.3243 98.3871 80.9178C99.1765 81.5114 99.8169 82.2802 100.258 83.1635C100.699 84.0468 100.928 85.0205 100.928 86.0076C100.927 86.2265 100.914 86.4451 100.891 86.6627C100.891 86.6996 100.884 86.7366 100.879 86.773ZM105.989 84.2439C105.739 82.6353 105.152 81.0976 104.266 79.7311C103.381 78.3646 102.217 77.2002 100.85 76.3139C99.4839 75.4277 97.9457 74.8395 96.3361 74.5878C94.7266 74.3361 93.082 74.4266 91.5099 74.8533L91.3642 74.8886L87.5348 37.8674C90.4656 36.7409 93.4491 35.6295 96.4853 34.5333L107.478 81.8855C106.957 82.7611 106.462 83.5446 105.989 84.2439ZM225.377 22.3316C227.766 22.3316 230.056 23.8907 230.056 26.8007C230.056 30.8523 228.912 35.5283 226.52 40.9321C224.92 44.4766 223.39 47.5833 221.587 51.2415L221.367 51.6872C220.537 53.3712 219.647 55.174 218.667 57.2013C215.444 63.7467 213.155 69.7737 211.802 75.1774H208.989C209.821 71.7489 210.549 67.3845 211.278 61.8727C211.559 59.7371 211.841 57.696 212.112 55.7423C212.324 54.1996 212.528 52.7103 212.723 51.2745C212.918 49.8386 213.095 48.4528 213.253 47.117C213.352 46.3115 213.434 45.5671 213.512 44.8626L213.512 44.8602L213.548 44.5323C213.876 41.5825 214.132 39.2877 214.868 35.9377C216.842 27.3192 220.276 22.3316 225.377 22.3316ZM173.726 22.384L172.894 25.2939L170.23 25.3269C167.214 25.3269 165.758 26.2617 164.51 31.1457L160.142 47.2523C159.415 49.9542 158.997 52.3434 158.997 54.4221C158.997 60.2409 162.431 62.5266 169.086 62.5266C172.205 62.5266 177.405 61.2757 184.58 58.7865L191.963 31.1457C193.004 26.7813 192.692 25.3269 189.78 25.3269L185.996 25.2655L186.828 22.3567L217.003 22.4169L216.171 25.3269H209.229C206.214 25.3269 204.758 26.4641 203.51 31.1457L188.016 88.8164C187.599 90.272 187.391 91.4137 187.391 92.1415C187.391 93.7005 188.431 94.5295 190.511 94.5295L197.731 94.6432L196.526 97.8932L163.979 97.8727L164.81 94.9627L170.648 94.5238C173.663 94.5238 175.223 93.4844 176.472 88.8085L183.641 61.6874C175.634 65.0139 168.667 66.6768 162.739 66.6761C152.86 66.6761 147.349 63.4545 147.349 55.1419C147.349 52.9597 147.764 50.3659 148.601 47.2444L152.865 31.1378C153.177 29.7868 153.385 28.644 153.385 27.7092C153.402 27.2227 153.268 26.7427 153.001 26.3356C151.408 27.409 149.797 29.4377 147.629 32.9049L116.119 83.7174L115.819 84.2075C115.816 84.2118 115.813 84.2164 115.811 84.2212C114.254 84.7579 112.708 85.2886 111.171 85.8132C111.778 84.8527 112.388 83.8092 113.001 82.6826L101.036 31.1457C101.016 31.0525 100.995 30.9615 100.974 30.8717C100.935 30.7022 100.894 30.5385 100.852 30.3781C100.838 30.3247 100.825 30.2735 100.81 30.2212C100.759 30.0324 100.705 29.8497 100.649 29.6731C100.635 29.6231 100.619 29.573 100.601 29.523C100.546 29.3524 100.488 29.1819 100.427 29.0272C100.42 29.0078 100.413 28.9883 100.406 28.9689C100.396 28.9442 100.387 28.9195 100.377 28.8953C100.336 28.7884 100.292 28.6838 100.248 28.5814C100.23 28.5405 100.213 28.5007 100.195 28.462C100.117 28.2858 100.034 28.1209 99.9482 27.9594L99.9359 27.9367C99.913 27.8947 99.8904 27.8531 99.8663 27.8127C99.8639 27.8076 99.8613 27.8025 99.8585 27.7976C99.8559 27.7931 99.8532 27.7886 99.8504 27.7843C99.833 27.7542 99.8148 27.7241 99.7968 27.6943L99.7958 27.6927C99.7835 27.6723 99.7712 27.652 99.7593 27.6319L99.6672 27.4864C99.6315 27.4318 99.5936 27.3783 99.5534 27.326L99.5181 27.276L99.4475 27.1793L99.4243 27.1484L99.3965 27.1117C99.3748 27.0834 99.3535 27.0555 99.3337 27.0281L99.2404 26.9144C99.1926 26.8598 99.146 26.8075 99.0982 26.7574C99.0504 26.7074 99.0208 26.6767 98.9844 26.6437C98.9706 26.6313 98.9556 26.6169 98.94 26.602C98.9143 26.5774 98.887 26.5513 98.8615 26.53C98.8224 26.4975 98.7803 26.4588 98.7399 26.4218L98.734 26.4163C98.6919 26.3776 98.66 26.3549 98.6202 26.3265L98.6021 26.3133C98.5912 26.3053 98.5838 26.2994 98.5772 26.2943L98.565 26.2848C98.5611 26.2818 98.5569 26.2788 98.5519 26.2753C98.5291 26.2594 98.495 26.2321 98.4666 26.2116C98.4381 26.1911 98.3755 26.1479 98.3289 26.1172C98.2965 26.096 98.2544 26.0703 98.2138 26.0456L98.1616 26.0138L98.0796 25.9671L98.0205 25.9341C97.9306 25.8864 97.8384 25.8409 97.7428 25.7988L97.6176 25.7442C97.2304 25.588 96.8257 25.4788 96.4124 25.419L96.2986 25.4031C96.1848 25.3872 96.071 25.3735 95.9459 25.3644H95.8764L95.7547 25.3565C95.7255 25.3565 95.6964 25.3544 95.6672 25.3524C95.6429 25.3507 95.6185 25.349 95.5942 25.3485H92.2029L93.0257 22.4169H122.767L121.935 25.3269H117.254C114.238 25.3269 112.68 26.4641 112.68 28.7554V28.8282C112.685 28.8691 112.692 28.9249 112.701 28.9954C112.711 29.0761 112.726 29.1762 112.744 29.2933L112.751 29.3399C112.756 29.3682 112.761 29.3976 112.766 29.4275C112.801 29.6437 112.853 29.9079 112.915 30.2184L112.915 30.2194L112.96 30.4509C112.982 30.5646 113.007 30.6783 113.034 30.7921L113.041 30.8229C113.057 30.8959 113.073 30.9699 113.091 31.0457L121.203 70.324L145.432 30.1098C146.161 28.9726 146.473 27.9276 146.473 27.0963C146.473 25.9592 145.848 25.3303 144.497 25.3303H140.025L140.856 22.4203H147.343L173.726 22.384Z" fill="#231F1C"/>
</svg>
