<svg width="595" height="623" viewBox="0 0 595 623" fill="none" xmlns="http://www.w3.org/2000/svg">
<path d="M381.643 440.846C380.378 442.208 379.186 443.43 378.063 444.694C374.574 448.632 371.092 452.565 367.652 456.545C366.1 458.334 365.782 458.423 363.679 457.434C359.889 455.644 356.578 453.124 353.233 450.668C338.323 439.708 322.286 430.625 305.93 422.059C303.036 420.544 300.157 418.983 297.256 417.471C295.736 416.683 295.778 416.748 294.832 418.278C290.581 425.15 287.644 432.663 284.12 439.893C280.219 447.908 277.465 456.379 274.235 464.655C271.297 472.188 269.375 480.005 266.999 487.691C264.162 496.888 262.2 506.295 260.345 515.707C258.586 524.615 257.235 533.618 256.179 542.658C254.888 553.688 253.922 564.74 253.445 575.838C253.149 582.62 253.086 589.411 252.889 596.202C252.856 597.341 252.664 598.483 252.62 599.618C252.529 601.805 251.286 603.252 249.523 604.259C245.972 606.283 242.362 608.204 238.77 610.164C238.471 610.33 238.163 610.48 237.834 610.584C235.959 611.15 235.117 610.773 234.244 609.01C233.059 606.629 232.762 604.061 232.791 601.457C232.917 591.178 232.951 580.887 233.269 570.61C233.848 552.101 234.504 533.593 235.316 515.094C235.927 501.217 236.889 487.358 237.576 473.481C237.906 466.749 237.98 460 238.165 453.263C238.17 453.137 238.094 453.002 238.009 452.73C237.658 452.597 237.239 452.402 236.796 452.276C232.706 451.1 229.376 448.636 226.139 445.994C219.719 440.76 214.308 434.574 209.121 428.164C202.443 419.914 195.852 411.592 188.95 403.528C182.935 396.495 176.345 390.002 169.281 383.997C158.381 374.73 146.45 367.091 133.726 360.593C129.864 358.619 126.053 357.448 121.675 357.412C112.864 357.329 104.046 356.802 95.3345 355.327C91.0992 354.612 86.877 353.69 83.0429 351.617C81.5008 350.782 79.9593 349.89 79.0626 348.234C78.3205 346.855 78.4635 345.728 79.5475 344.578C81.0211 343.019 82.699 341.74 84.6715 340.907C88.1253 339.443 91.5454 337.892 95.0666 336.605C98.0854 335.498 101.252 335.975 104.346 336.44C112.596 337.674 120.48 340.201 128.215 343.239C131.718 344.618 135.159 346.16 138.666 347.527C139.844 347.988 141.13 348.396 142.377 348.395C156.936 348.376 171.511 348.254 186.02 346.889C193.686 346.171 201.292 344.845 208.93 343.779C209.374 343.714 209.793 343.499 210.43 343.283C208.595 340.801 206.862 338.489 205.164 336.149C199.613 328.49 193.957 320.91 188.563 313.145C180.289 301.249 172.288 289.152 163.998 277.263C157.5 267.944 150.733 258.814 144.097 249.581C142.399 247.223 140.053 245.563 137.907 243.691C129.614 236.441 121.329 229.188 113.036 221.938C105.073 214.974 97.8501 207.305 91.1439 199.135C88.4251 195.82 85.791 192.445 83.6838 188.687C82.8169 187.131 82.9244 187.079 84.2009 185.777C86.6266 183.304 89.7983 182.198 92.8156 180.796C93.5604 180.45 94.3804 180.258 95.0796 179.858C96.8893 178.829 98.4891 179.14 100.24 180.13C103.624 182.043 106.657 184.404 109.62 186.876C118.505 194.264 126.402 202.631 134.111 211.215C141.744 219.721 148.91 228.618 155.912 237.643C157.77 240.037 160.238 241.732 162.564 243.583C170.463 249.854 178.382 256.087 186.34 262.282C198.671 271.886 211.211 281.217 224.351 289.711C228.201 292.205 232.067 294.673 235.936 297.148C236.035 297.214 236.172 297.222 236.516 297.321C236.556 296.625 236.63 295.979 236.639 295.337C237.028 277.159 238.759 259.077 240.578 240.999C242.871 218.175 246.242 195.49 249.227 172.756C251.612 154.61 254.188 136.485 256.715 118.355C257.032 116.086 256.809 113.862 256.345 111.652C254.264 101.845 252.785 91.943 251.991 81.9436C251.664 77.8757 251.717 73.7841 251.609 69.6951C251.513 65.9426 253.428 63.2621 256.516 61.5779C259.92 59.7202 263.519 58.2046 267.1 56.6888C268.455 56.1109 269.998 55.8405 271.402 56.7812C271.828 57.0677 272.268 57.404 272.533 57.8269C275.27 62.2089 276.27 67.051 276.336 72.1608C276.434 79.8446 275.049 87.3787 274.104 94.9546C273.605 98.9316 272.873 102.88 272.416 106.865C272.255 108.248 272.423 109.737 272.733 111.109C276.981 129.89 281.448 148.631 285.532 167.446C289.406 185.287 293.099 203.169 296.51 221.095C299.256 235.527 301.478 250.055 303.877 264.553C304.875 270.558 305.736 276.592 306.666 282.611C306.691 282.799 306.778 282.975 306.916 283.393C308.099 282.328 309.223 281.378 310.268 280.361C323.702 267.315 338.601 256.132 354.178 245.808C377.167 230.575 401.13 217.038 425.911 204.937C436.785 199.63 447.654 194.334 458.618 189.211C461.935 187.662 465.542 186.705 469.028 185.521C469.664 185.305 470.38 185.192 471.046 185.228C471.504 185.251 472.099 185.512 472.356 185.862C472.783 186.443 472.465 187.018 471.892 187.422C471.226 187.891 470.606 188.433 469.907 188.852C465.08 191.692 460.213 194.41 455.054 196.67C448.303 199.624 441.619 202.794 435.557 207.077C427.318 212.903 419.378 219.107 411.661 225.61C396.216 238.632 381.244 252.193 366.306 265.785C355.749 275.394 345.139 284.933 334.521 294.476C332.553 296.25 330.478 297.904 328.317 299.733C328.819 300.116 329.225 300.536 329.716 300.8C340.271 306.409 349.715 313.676 359.338 320.665C368.899 327.607 378.519 334.455 388.119 341.34C396.256 347.162 404.69 352.543 413.311 357.604C421.148 362.211 429.178 366.495 437.197 370.775C442.25 373.47 447.365 376.059 452.581 378.407C467.834 385.267 483.372 391.424 499.132 397.025C505.866 399.421 512.487 402.129 519.061 404.936C521.481 405.969 524.057 407.126 525.451 409.681C525.925 410.553 526.331 411.458 526.854 412.526C525.713 413.561 524.79 414.689 523.614 415.398C520.225 417.44 516.748 419.342 513.268 421.238C510.548 422.722 507.684 423.116 504.555 422.715C496.766 421.703 489.354 419.383 482.088 416.543C464.354 409.614 446.651 402.613 428.913 395.714C401.633 385.101 374.337 374.534 347.041 363.947C346.088 363.576 345.162 363.163 344.023 362.683C344.137 363.17 344.168 363.602 344.345 363.963C355.687 387.468 367.037 410.97 378.403 434.463C379.174 436.057 380.029 437.609 380.839 439.183C381.098 439.713 381.354 440.254 381.643 440.846ZM416.373 214.837C416.297 214.703 416.226 214.576 416.15 214.441C415.582 214.72 414.998 214.987 414.438 215.28C410.336 217.461 406.218 219.611 402.135 221.83C385.026 231.144 368.426 241.285 352.543 252.579C342.884 259.452 333.649 266.842 325.039 275.002C323.509 276.446 322.236 278.317 320.461 279.301C317.007 281.212 313.401 283.007 309.652 284.177C303.924 285.973 298.035 287.268 292.489 289.651C292.271 289.749 291.988 289.697 291.602 289.724C288.172 267.133 284.749 244.633 280.415 222.294C274.382 191.199 266.94 157.347 265.795 155.728C265.649 156.247 265.438 156.75 265.369 157.269C264.415 164.497 263.496 171.737 262.534 178.968C261.414 187.392 260.244 195.811 259.131 204.231C258.389 209.869 257.639 215.512 257.023 221.174C256.121 229.519 255.277 237.864 254.532 246.218C253.703 255.528 252.858 264.844 252.296 274.175C251.731 283.44 251.376 292.727 251.736 302.015C251.803 303.706 251.174 304.385 249.852 305.128C245.853 307.344 241.872 309.618 238.013 312.06C235.964 313.359 234.131 313.467 232.122 312.204C228.317 309.821 224.501 307.472 220.696 305.089C210.427 298.645 200.308 291.985 190.554 284.785C190.151 284.487 189.694 284.254 189.26 283.99C192.868 289.955 196.703 295.684 200.637 301.346C204.561 306.984 208.535 312.589 212.558 318.159C216.605 323.756 220.732 329.286 224.843 334.88C224.399 335.373 224.129 335.677 223.852 335.965C220.338 339.6 216.836 343.239 213.307 346.863C212.883 347.299 212.398 347.689 211.909 348.052C208.561 350.568 204.769 351.788 200.626 352.465C186.936 354.705 173.225 356.632 159.332 356.981C158.957 356.994 158.589 357.136 157.9 357.283C159.239 358.132 160.285 358.848 161.369 359.468C169.078 363.891 176.12 369.249 182.939 374.907C190.156 380.894 196.799 387.495 202.94 394.551C208.514 400.953 213.775 407.631 219.113 414.233C224.285 420.612 229.369 427.063 235.211 432.867C236.656 434.301 238.001 435.842 239.281 437.424C241.344 439.984 243.473 442.483 246.235 444.311C247.817 445.364 249.469 446.364 251.191 447.158C252.604 447.809 253.336 448.583 253.177 450.242C252.997 452.11 253.085 454 252.997 455.881C252.39 468.462 251.767 481.031 251.16 493.612C251.145 493.971 251.288 494.34 251.353 494.707C251.866 494.276 252.064 493.807 252.218 493.322C254.311 486.574 256.263 479.771 258.528 473.082C260.715 466.641 262.921 460.18 265.679 453.973C270.732 442.595 275.785 431.198 282.027 420.38C285.502 414.354 288.799 408.235 292.807 402.539C293.388 401.722 293.878 401.148 294.953 401.593C299.584 403.505 304.796 404.037 308.791 407.45C308.89 407.535 309.051 407.533 309.169 407.599C316.422 411.463 323.719 415.24 330.914 419.218C336.644 422.382 342.32 425.648 347.859 429.124C351.9 431.658 355.678 434.607 359.575 437.354C360.039 437.679 360.565 437.897 361.498 438.402C347.166 408.716 333.063 379.497 318.922 350.222C319.245 350.064 319.579 349.833 319.955 349.725C324.743 348.361 329.546 347.008 334.348 345.693C334.758 345.578 335.289 345.69 335.716 345.842C343.231 348.607 350.773 351.331 358.253 354.199C375.428 360.783 392.572 367.439 409.727 374.061C411.934 374.913 414.15 375.742 416.361 376.582C415.957 375.894 415.413 375.523 414.835 375.216C404.036 369.403 393.498 363.148 383.293 356.369C370.082 347.595 357.185 338.373 344.49 328.861C335.668 322.261 326.76 315.779 317.179 310.293C315.261 309.195 315.091 308.383 316.303 306.58C318.076 303.941 319.796 301.27 321.599 298.654C322.253 297.714 323.022 296.814 323.869 296.037C338.53 282.714 353.178 269.369 367.914 256.123C382.392 243.108 396.893 230.102 412.25 218.104C413.64 217.014 415.006 215.916 416.373 214.837Z" fill="#FEFF8B"/>
<path d="M406.559 239.279C402.547 243.062 398.487 246.67 394.681 250.525C388.935 256.348 383.318 262.299 377.747 268.284C372.55 273.867 367.475 279.562 362.354 285.203C360.567 287.174 358.675 288.967 356.206 290.148C353.384 291.502 350.69 293.136 347.939 294.654C347.64 294.82 347.336 294.978 347.025 295.121C346.227 295.493 345.4 295.632 344.806 294.828C344.163 293.943 344.784 293.286 345.393 292.702C354.948 283.594 363.053 273.14 372.3 263.754C378.05 257.919 383.924 252.204 389.765 246.457C392.934 243.344 396.779 241.317 400.895 239.768C402.172 239.285 403.409 238.698 404.69 238.242C405.545 237.947 406.351 237.98 406.559 239.279Z" fill="#FEFF8B"/>
<path d="M330.597 462.308C328.656 463.497 326.907 464.63 325.097 465.659C322.677 467.035 320.203 468.323 317.764 469.661C317.065 470.041 316.344 470.28 315.632 469.819C313.517 468.456 311.118 468.165 308.742 468.272C305.965 468.394 303.156 468.666 300.443 469.252C296.827 470.033 294.905 472.155 294.263 475.412C296.287 476.706 296.326 477.02 294.307 478.456C293.206 479.243 291.985 479.879 290.79 480.531C288.167 481.978 285.531 483.402 282.9 484.834C282.839 484.864 282.781 484.902 282.716 484.924C280.44 485.858 278.805 484.717 279.162 482.276C279.344 481.034 279.817 479.765 280.457 478.68C282.717 474.897 286.002 472.098 289.745 469.903C296.358 466.025 303.175 462.543 310.577 460.412C315.668 458.947 320.88 458.489 326.114 459.648C327.332 459.918 328.501 460.497 329.644 461.042C330.006 461.217 330.193 461.735 330.597 462.308Z" fill="#FEFF8B"/>
<path d="M148.466 167.391C147.459 168.017 146.517 168.621 145.548 169.21C143.461 170.47 141.386 171.773 139.261 172.976C137.955 173.711 136.592 174.35 135.214 174.939C134.205 175.367 133.767 175.095 133.111 174.008C131.96 172.086 130.925 170.07 129.562 168.3C127.519 165.644 124.901 163.565 122.008 161.859C121.312 161.448 120.581 161.044 119.981 160.519C118.823 159.515 118.942 158.962 119.98 157.835C121.84 155.819 124.329 154.857 126.664 153.656C128.35 152.782 130.183 152.189 131.929 151.438C132.916 151.022 133.618 151.192 134.484 151.93C136.064 153.27 137.887 154.328 139.548 155.581C143.6 158.605 146.513 162.491 148.466 167.391Z" fill="#FEFF8B"/>
<path d="M129.885 180.291C127.372 181.789 125.185 183.137 122.96 184.407C121.016 185.512 119.038 186.567 117.041 187.583C115.351 188.449 115.085 188.313 114.172 186.684C111.895 182.657 109.738 178.544 106.353 175.288C105.583 174.552 104.67 173.932 103.745 173.386C102.394 172.591 102.375 172.105 103.486 170.913C105.5 168.746 108.204 167.735 110.747 166.452C112.144 165.748 113.655 165.275 115.079 164.625C116.469 163.982 117.618 164.171 118.85 165.111C121.753 167.345 123.887 170.223 125.785 173.282C127.129 175.462 128.388 177.721 129.885 180.291Z" fill="#FEFF8B"/>
</svg>
